<svg width="390" height="1332" viewBox="0 0 390 1332" fill="none" xmlns="http://www.w3.org/2000/svg">
<g clip-path="url(#clip0_607_9125)">
<rect width="390" height="1332" fill="#E8E6C9"/>
<path d="M132.936 1035.78C137.058 1035.78 137.377 1036.57 133.256 1036.57C129.134 1036.57 128.815 1035.78 132.936 1035.78Z" fill="#5D91A3"/>
<path d="M345.001 1035.04C353.639 1035.04 354.637 1036.4 345.999 1036.4C337.361 1036.4 336.363 1035.04 345.001 1035.04Z" fill="#5D91A3"/>
<path d="M57.4625 1028.62C66.7648 1028.62 67.8399 1029.98 58.5375 1029.98C49.2352 1029.98 48.1601 1028.62 57.4625 1028.62Z" fill="#5D91A3"/>
<path d="M826.92 -207.977H-1055.97V937H826.92V-207.977Z" fill="#60DCE8"/>
<path style="mix-blend-mode:screen" d="M826.919 182.941C739.854 175.338 626.353 207.031 593.44 208.795C550.761 211.085 390.088 208.795 174.182 162.996C-41.723 117.196 -197.376 222.534 -425.833 250.014C-654.291 277.493 -671.865 133.226 -782.328 71.3974C-876.925 18.4536 -1017.51 71.2829 -1055.98 87.5644V235.747C-995.296 192.009 -891.812 130.203 -814.965 151.546C-699.481 183.605 -616.634 325.582 -493.618 366.801C-370.602 408.021 -134.612 291.233 23.5507 238.564C181.714 185.895 249.498 288.943 407.661 316.422C565.824 343.902 605.993 291.233 696.372 240.854C740.582 216.214 788.985 215.687 826.919 221.573V182.941Z" fill="url(#paint0_linear_607_9125)"/>
<path style="mix-blend-mode:screen" d="M826.92 151.179C811.806 149.53 795.915 147.538 779.219 145.134C590.93 117.906 425.235 11.7898 477.956 -13.5829C530.677 -38.9556 721.477 42.7729 816.877 30.5445C820.267 30.1094 823.606 29.6056 826.92 29.0789V-79.2588C805.404 -76.3963 777.864 -76.259 741.562 -82.1441C590.93 -106.555 623.567 -143.194 688.841 -156.339C733.126 -165.247 755.395 -188.421 742.465 -208H689.795C686.129 -199.848 671.141 -191.512 631.099 -185.467C500.551 -165.75 415.193 -138.523 385.067 -163.873C367.995 -178.253 354.137 -195.634 345.35 -208H296.194C305.634 -194.581 307.793 -171.223 211.841 -168.567C76.2722 -164.811 -174.78 -196.733 -340.475 -164.811C-506.17 -132.89 -576.465 -87.8003 -749.691 -116.929C-912.875 -144.316 -951.311 -171.727 -1055.98 -167.743V-148.003C-1033.23 -151.53 -988.743 -151.873 -910.365 -130.027C-782.328 -94.3496 -714.544 -44.566 -566.422 -72.7324C-418.301 -100.899 -312.859 -162.888 -174.78 -150.682C-36.7015 -138.477 66.2301 -61.4659 -59.2962 -41.7493C-184.823 -22.0328 -380.644 53.1006 -543.828 10.8509C-707.012 -31.3988 -812.454 -54.8937 -912.875 -33.2765C-993.84 -15.8729 -1009.53 14.9728 -1055.98 18.4078V29.6056C-1037.47 28.2317 -1011.97 25.0715 -978.149 18.3848C-892.791 1.48499 -817.475 -43.6042 -709.522 4.30164C-601.57 52.1846 -516.212 133.89 -322.901 117.929C-129.591 101.968 91.3353 16.5071 272.093 50.3068C414.089 76.8703 574.687 172.384 826.92 182.071V151.202V151.179Z" fill="url(#paint1_linear_607_9125)"/>
<path style="mix-blend-mode:screen" d="M827 593.324C546.734 536.97 579.9 217.155 281.131 217.155C-46.486 217.155 -106.742 527.23 -347.766 527.23C-588.79 527.23 -611.361 375.164 -844.853 303.624C-928.885 277.882 -999.736 286.112 -1056 307.182V842.115H827V593.324Z" fill="url(#paint2_linear_607_9125)"/>
<g style="mix-blend-mode:multiply">
<path d="M826.92 212.664C825.991 212.388 825.062 212.087 824.133 211.786C822.928 211.886 821.773 211.961 820.694 212.037C814.342 228.602 789.89 230.836 779.044 244.089C770.006 255.107 763.128 281.688 776.157 291.903C758.182 306.21 740.708 279.604 730.917 301.516C706.59 305.758 702.95 309.724 687.134 319.462C681.083 323.177 659.844 335.677 652.915 342.002C632.078 360.952 652.84 397.698 629.367 412.531C620.103 418.38 585.407 419.584 574.788 420.061C576.319 419.986 548.302 421.818 550.938 420.488C543.08 424.429 542.904 428.921 537.306 432.46C527.013 438.986 516.719 452.565 499.924 457.61C482.174 462.956 456.492 453.193 458.45 477.213C415.545 478.367 449.437 498.648 449.337 512.352C466.258 514.737 473.89 525.153 468.668 537.627C437.562 532.382 452.098 551.658 442.081 562.827C432.366 573.67 412.909 576.481 395.36 580.547C384.414 583.083 366.063 588.529 356.623 590.186C346.054 592.043 335.233 595.406 324.187 592.018C308.496 587.199 305.157 568.449 282.512 563.254C279.5 565.563 278.119 566.467 275.031 568.399C256.227 545.433 245.884 561.949 230.595 572.792C221.481 579.242 225.749 580.447 211.238 588.052C199.966 593.951 183.874 590.286 174.987 600.05C159.02 617.544 186.083 618.699 152.216 635.189C134.19 643.974 93.4194 644.049 94.1224 662.799C43.8868 671.006 84.5322 697.31 47.1254 703.962C61.4103 725.196 55.8118 721.757 32.6899 736.415C22.4469 742.916 12.3295 746.229 3.39201 755.842C-1.75457 761.364 11.0993 766.434 3.66813 772.308C-9.08534 782.398 -108.301 786.012 -65.999 808.225C-93.5897 822.632 -107.9 825.192 -107.774 846.552C-107.824 838.796 -94.9955 874.312 -100.217 867.862C-91.7569 878.328 -86.8363 880.336 -73.0535 886.561C1.0572 920.119 102.784 905.059 182.744 896.174C298.956 883.247 414.365 867.51 529.9 878.83C574.436 883.197 620.73 881.742 665.493 881.666C715.854 881.591 773.747 888.644 826.945 886.761V212.664H826.92Z" fill="#5FDAE6"/>
</g>
<path d="M414.767 899.415C414.767 899.415 441.579 780.845 449.839 735.49C458.099 690.135 386.925 695.28 386.925 723.116C386.925 748.893 392.072 903.531 392.072 903.531L414.767 899.415Z" fill="#E261A5"/>
<g style="mix-blend-mode:screen" opacity="0.5">
<path d="M387.151 738.276C387.277 744.325 387.453 751.579 387.678 759.61C389.536 759.435 391.444 759.108 393.478 758.581C410.926 754.013 424.433 740.786 443.287 741.689C444.994 741.765 446.801 741.89 448.609 742.066C449.061 739.732 449.463 737.523 449.839 735.49C450.216 733.381 450.391 731.399 450.442 729.491C445.094 728.462 439.697 727.709 434.148 727.333C424.734 726.705 416.474 729.692 407.587 732.377C402.24 734.009 393.352 737.699 387.151 738.276ZM412.432 852.93C405.252 852.955 397.846 854.913 390.541 856.068C390.741 862.644 390.942 868.793 391.118 874.39C392.875 873.612 394.683 872.784 396.616 871.981C405.152 868.492 413.211 866.534 422.173 866.283C423.052 862.292 424.006 858.051 424.985 853.608C420.667 853.081 416.374 852.93 412.432 852.93ZM392.474 778.736C391.018 778.36 389.586 777.983 388.155 777.557C388.306 782.978 388.482 788.6 388.632 794.298C397.193 795.779 404.298 795.98 412.633 792.842C418.834 790.508 424.357 786.316 430.383 783.58C433.847 782.024 437.236 781.121 440.751 780.744C441.354 777.883 441.931 775.072 442.508 772.311C434.676 772.486 427.696 774.62 419.487 777.506C410.349 780.744 401.963 781.121 392.474 778.736ZM389.361 818.895C389.561 825.22 389.737 831.495 389.938 837.595C403.219 836.314 415.395 827.078 429.429 828.082C429.805 828.107 430.182 828.182 430.558 828.207C431.337 824.618 432.14 820.954 432.943 817.314C425.01 816.16 416.876 816.059 409.093 816.762C402.365 817.364 395.913 819.172 389.386 818.921L389.361 818.895Z" fill="#E561C4"/>
</g>
<path d="M465.936 811.23C465.936 811.23 460.312 643.691 457.325 621.353C454.337 599.014 410.001 602.955 397.976 620.976C385.95 638.998 452.078 813.364 452.078 813.364L465.936 811.23Z" fill="#E261A5"/>
<path d="M454.735 876.004C454.735 876.004 428.274 772.996 415.922 729.172C403.57 685.373 358.581 713.61 355.192 733.012C350.297 761.098 440.575 882.831 440.575 882.831L454.709 875.979L454.735 876.004Z" fill="#E261A5"/>
<path d="M362.171 732.636C364.405 737.254 374.397 737.003 384.465 732.108C394.532 727.214 400.883 719.509 398.649 714.89C396.415 710.272 386.423 710.523 376.355 715.417C366.288 720.312 359.937 728.017 362.171 732.636Z" fill="#AA497D"/>
<g style="mix-blend-mode:screen" opacity="0.5">
<path d="M408.316 836.999C411.805 842.17 415.169 847.089 418.358 851.683C424.408 850.779 432.065 852.185 436.685 853.113C440.978 853.992 445.22 855.347 449.539 855.95C448.384 851.482 447.078 846.437 445.647 840.965C441.756 839.66 437.915 838.054 433.923 837.276C425.588 835.644 416.525 834.238 408.291 836.999H408.316ZM355.57 740.442C356.348 744.432 357.904 749.176 360.088 754.472C364.808 752.289 370.206 752.715 375.428 752.69C387.378 752.69 398.801 757.861 410.676 753.97C415.596 752.364 418.282 749.728 420.517 745.713C418.985 740.115 417.58 734.97 416.274 730.402C414.918 732.008 413.588 733.79 412.157 735.773C406.935 743.102 400.834 742.123 393.202 740.442C387.026 739.061 380.876 738.459 374.549 738.283C367.921 738.082 361.444 738.409 355.544 740.417L355.57 740.442ZM413.086 803.667C405.604 804.094 397.746 806.378 390.767 810.193C393.629 814.711 396.516 819.204 399.403 823.621C400.784 823.019 402.14 822.492 403.42 822.09C408.491 820.509 415.044 820.559 420.391 820.936C425.864 821.312 429.756 824.249 434.802 826.056C437.187 826.909 439.672 827.437 442.208 827.688C440.526 821.262 438.768 814.51 436.961 807.608C434.224 806.353 431.513 804.947 428.802 804.27C423.63 802.99 418.333 803.391 413.061 803.692L413.086 803.667ZM394.909 767.951C385.42 768.704 378.265 772.971 372.415 779.421C375.754 785.445 379.42 791.695 383.236 798.02C386.625 792.373 390.742 787.679 398.073 787.127C408.793 786.324 421.421 793.05 431.739 787.679C429.906 780.751 428.099 773.899 426.316 767.273C425.111 769.256 423.529 770.887 421.094 771.339C419.186 771.691 415.42 770.185 413.613 769.758C407.362 768.252 401.336 767.424 394.909 767.926V767.951Z" fill="#E561C4"/>
</g>
<path d="M820 802.015C803.681 791.682 785.73 782.649 766.75 775.187C695.096 747 610.965 738.57 528.917 738.51C315.162 738.359 97.8164 790.988 -108.583 751.743C-284.001 718.389 -427.534 622.135 -605.964 597.936C-715.302 583.132 -829.787 597.15 -932.522 627.422C-977.965 640.806 -1021.32 657.271 -1063 675.791V947H819.975V802.015H820Z" fill="#EFEED9"/>
<g style="mix-blend-mode:multiply" opacity="0.5">
<path d="M134.212 829.631C-64.769 792.172 -272.465 758.602 -492.187 748.415C-685.423 739.458 -890.636 750.423 -1055.97 789.036V947H683.346C505.738 904.247 322.336 865.057 134.261 829.631H134.212Z" fill="#EFEED9"/>
</g>
<path d="M57.2358 750.053C57.0349 749.2 56.5329 748.472 55.604 748.045C54.0475 747.343 52.265 748.095 50.7336 748.848C27.0844 760.495 3.4603 772.141 -20.1889 783.787C-6.50648 767.447 4.31389 748.748 11.6697 728.744C12.8999 725.406 14.0547 721.766 13.1008 718.353C12.1467 714.939 8.2052 712.128 4.99171 713.684C2.73225 714.789 1.77827 717.424 1.02512 719.808C-1.9373 729.221 -4.89972 738.658 -7.83704 748.07C-12.1551 732.961 -10.0965 716.144 -2.23853 702.54C-1.15901 700.683 0.0460205 698.8 0.322174 696.667C0.623444 694.533 -0.30545 692.048 -2.33897 691.32C-5.55244 690.191 -8.28891 693.931 -9.54417 697.093C-13.8372 707.987 -16.0715 719.683 -16.1217 731.379C-16.1469 739.788 -15.0924 748.296 -16.6741 756.529C-18.9335 768.15 -26.3648 778.265 -35.4026 785.92C-44.4406 793.576 -55.06 799.073 -65.5792 804.519C-51.8717 785.092 -52.1478 758.838 -40.6998 738.006C-34.2227 726.234 -24.281 716.771 -16.5486 705.778C-10.7995 697.595 -6.28055 688.56 -3.1675 679.072C-2.46454 676.938 -2.53984 673.65 -4.79932 673.475C-6.1048 673.374 -7.10901 674.579 -7.86217 675.683C-18.6072 691.295 -29.3523 706.907 -40.1225 722.519C-40.0723 709.392 -40.022 696.29 -39.9718 683.163C-39.9718 678.721 -40.0722 674.002 -43.3108 670.563C-44.8924 668.856 -47.3528 667.827 -49.6122 668.405C-53.7546 669.484 -54.8592 674.755 -55.1605 679.022C-57.1187 706.23 -60.2066 733.111 -62.8929 760.219C-73.1358 738.206 -76.2991 713.508 -76.1485 689.237C-76.1233 684.719 -77.5544 678.57 -82.0482 678.796C-85.2366 678.946 -87.0191 682.485 -87.9731 685.522C-93.5214 703.494 -92.9439 723.297 -86.3663 740.917C-82.2239 751.986 -75.8221 762.176 -72.6589 773.571C-69.4956 784.967 -70.324 798.571 -78.8849 806.703C-95.9063 782.005 -107.505 753.567 -112.626 724C-113.907 716.646 -114.735 708.865 -112.024 701.912C-108.685 693.379 -100.676 687.756 -94.149 681.306C-85.8893 673.148 -79.5628 663.058 -75.8472 652.065C-74.843 649.128 -74.9685 644.61 -78.0565 644.284C-79.7636 644.108 -81.1695 645.489 -82.2993 646.769C-92.8937 658.691 -103.488 670.613 -114.083 682.536C-111.271 666.497 -108.459 650.458 -105.622 634.42C-104.869 630.128 -104.442 624.907 -107.907 622.247C-110.97 619.887 -115.714 621.117 -118.376 623.928C-121.037 626.739 -122.141 630.655 -123.045 634.42C-130.175 663.962 -131.129 694.96 -125.882 724.878C-138.259 705.803 -145.841 683.615 -147.724 660.95C-147.975 658.089 -148.15 655.102 -149.581 652.592C-151.012 650.082 -154.1 648.275 -156.787 649.304C-159.674 650.433 -160.577 653.998 -160.954 657.06C-163.992 682.586 -156.159 709.241 -139.74 729.07C-129.045 741.971 -114.158 753.743 -112.953 770.459C-136.803 761.674 -157.163 743.753 -168.887 721.214C-171.398 716.395 -173.607 711.275 -177.599 707.61C-180.335 705.1 -187.264 701.561 -190.628 704.899C-193.666 707.911 -190.854 714.713 -189.85 718.051C-186.737 728.292 -181.666 737.905 -175.164 746.414C-162.335 763.155 -143.757 775.655 -123.045 780.072C-117.447 781.252 -111.572 781.98 -106.752 785.042C-99.2453 789.836 -96.1573 798.997 -91.9146 806.853C-88.5505 813.053 -83.1277 819.278 -76.0731 819.253C-72.8346 819.253 -69.7969 817.847 -66.9349 816.316C-56.6919 810.819 -47.6289 802.913 -36.5575 799.324C-28.5991 796.738 -20.1135 796.538 -11.8288 795.358C14.2305 791.643 38.683 777.562 55.0014 756.88C56.4826 754.998 57.6877 752.137 57.2106 750.103L57.2358 750.053Z" fill="url(#paint3_linear_607_9125)"/>
<g style="mix-blend-mode:multiply">
<path d="M332.709 394.235C334.693 396.093 337.605 398.477 341.12 400.084C341.32 400.535 342.4 402.895 344.107 403.949C346.015 405.129 353.195 403.095 356.81 401.238C359.17 400.033 360.576 398.327 361.279 397.297C363.137 395.942 364.693 394.537 365.798 393.432C368.007 395.49 371.723 398.427 375.74 399.255C375.74 399.255 377.045 393.733 373.631 391.098C377.045 388.462 375.74 382.941 375.74 382.941C371.572 383.819 367.681 386.956 365.522 389.015C362.359 385.902 356.082 380.832 348.852 380.832C348.827 380.832 348.802 380.832 348.777 380.832C348.852 380.782 348.902 380.757 348.952 380.732C349.982 380.23 355.078 380.481 356.609 380.933C358.141 381.384 358.794 380.431 358.794 380.431C358.091 379.351 359.296 379 359.547 378.398C359.798 377.795 359.195 376.967 359.195 376.967C352.969 376.917 348.877 379.929 347.572 380.531C347.371 380.631 347.17 380.757 346.919 380.958C340.894 381.686 335.697 385.701 332.709 388.513C331.077 390.069 331.077 392.679 332.709 394.235Z" fill="#5FDAE6"/>
</g>
<g style="mix-blend-mode:multiply">
<path d="M315.186 366.777C316.567 368.082 318.625 369.764 321.111 370.893C321.236 371.219 322.014 372.851 323.219 373.604C324.575 374.432 329.621 373.001 332.157 371.696C333.814 370.843 334.818 369.663 335.295 368.91C336.601 367.956 337.705 366.978 338.458 366.199C340.015 367.63 342.626 369.713 345.438 370.291C345.438 370.291 346.366 366.4 343.956 364.543C346.366 362.685 345.438 358.795 345.438 358.795C342.5 359.397 339.764 361.631 338.257 363.062C336.023 360.878 331.604 357.289 326.533 357.289H326.483C326.533 357.264 326.583 357.239 326.609 357.214C327.337 356.862 330.927 357.038 332.006 357.364C333.086 357.666 333.538 357.013 333.538 357.013C333.061 356.26 333.889 356.009 334.065 355.582C334.241 355.156 333.814 354.578 333.814 354.578C329.445 354.553 326.558 356.662 325.655 357.088C325.529 357.138 325.353 357.264 325.203 357.389C320.96 357.917 317.295 360.728 315.211 362.711C314.056 363.815 314.056 365.647 315.211 366.726L315.186 366.777Z" fill="#5FDAE6"/>
</g>
<g style="mix-blend-mode:multiply">
<path d="M224.105 369.513C225.912 371.219 228.573 373.378 231.762 374.834C231.937 375.235 232.917 377.394 234.498 378.348C236.23 379.427 242.783 377.569 246.072 375.888C248.231 374.783 249.511 373.252 250.139 372.299C251.846 371.069 253.252 369.789 254.256 368.785C256.264 370.642 259.654 373.328 263.319 374.081C263.319 374.081 264.524 369.036 261.411 366.651C264.524 364.242 263.319 359.222 263.319 359.222C259.528 360.025 255.988 362.886 254.03 364.769C251.143 361.932 245.419 357.314 238.841 357.314C238.816 357.314 238.791 357.314 238.766 357.314C238.816 357.289 238.892 357.239 238.942 357.214C239.896 356.762 244.515 356.988 245.921 357.389C247.327 357.791 247.905 356.938 247.905 356.938C247.277 355.959 248.356 355.633 248.582 355.08C248.808 354.528 248.256 353.775 248.256 353.775C242.582 353.725 238.841 356.486 237.687 357.013C237.511 357.088 237.31 357.239 237.084 357.389C231.586 358.067 226.866 361.707 224.13 364.267C222.623 365.672 222.623 368.057 224.13 369.487L224.105 369.513Z" fill="#5FDAE6"/>
</g>
<g style="mix-blend-mode:multiply">
<path d="M263.796 388.664C265.804 390.546 268.767 392.956 272.332 394.612C272.532 395.064 273.612 397.449 275.369 398.528C277.302 399.733 284.608 397.65 288.273 395.792C290.658 394.562 292.089 392.855 292.792 391.801C294.675 390.446 296.257 389.015 297.361 387.886C299.596 389.969 303.387 392.956 307.454 393.784C307.454 393.784 308.784 388.162 305.32 385.501C308.784 382.816 307.454 377.218 307.454 377.218C303.211 378.097 299.295 381.31 297.085 383.393C293.872 380.23 287.495 375.085 280.164 375.085C280.139 375.085 280.114 375.085 280.089 375.085C280.164 375.035 280.215 375.01 280.265 374.985C281.319 374.483 286.491 374.734 288.047 375.185C289.604 375.637 290.257 374.683 290.257 374.683C289.554 373.579 290.759 373.228 291.01 372.625C291.261 372.023 290.658 371.17 290.658 371.17C284.332 371.119 280.189 374.181 278.884 374.784C278.683 374.884 278.457 375.035 278.231 375.211C272.106 375.964 266.833 380.005 263.821 382.891C262.164 384.472 262.164 387.108 263.821 388.689L263.796 388.664Z" fill="#5FDAE6"/>
</g>
<path style="mix-blend-mode:screen" d="M381.929 85.0618C394.061 85.0618 403.896 75.2291 403.896 63.0998C403.896 50.9704 394.061 41.1377 381.929 41.1377C369.797 41.1377 359.962 50.9704 359.962 63.0998C359.962 75.2291 369.797 85.0618 381.929 85.0618Z" fill="url(#paint4_linear_607_9125)"/>
<path style="mix-blend-mode:screen" d="M394.482 213.37C406.614 213.37 416.449 203.538 416.449 191.408C416.449 179.279 406.614 169.446 394.482 169.446C382.35 169.446 372.515 179.279 372.515 191.408C372.515 203.538 382.35 213.37 394.482 213.37Z" fill="url(#paint5_linear_607_9125)"/>
<path style="mix-blend-mode:screen" d="M352.129 178.256C360.282 178.256 366.891 171.649 366.891 163.498C366.891 155.347 360.282 148.739 352.129 148.739C343.976 148.739 337.367 155.347 337.367 163.498C337.367 171.649 343.976 178.256 352.129 178.256Z" fill="url(#paint6_linear_607_9125)"/>
<path style="mix-blend-mode:screen" d="M349.92 134.006C355.119 134.006 359.334 129.792 359.334 124.593C359.334 119.395 355.119 115.181 349.92 115.181C344.72 115.181 340.505 119.395 340.505 124.593C340.505 129.792 344.72 134.006 349.92 134.006Z" fill="url(#paint7_linear_607_9125)"/>
<path style="mix-blend-mode:screen" d="M357.15 209.304C362.349 209.304 366.564 205.09 366.564 199.892C366.564 194.694 362.349 190.479 357.15 190.479C351.95 190.479 347.735 194.694 347.735 199.892C347.735 205.09 351.95 209.304 357.15 209.304Z" fill="url(#paint8_linear_607_9125)"/>
<path style="mix-blend-mode:screen" d="M385.368 155.968C393.341 155.968 399.804 149.506 399.804 141.536C399.804 133.565 393.341 127.104 385.368 127.104C377.396 127.104 370.933 133.565 370.933 141.536C370.933 149.506 377.396 155.968 385.368 155.968Z" fill="url(#paint9_linear_607_9125)"/>
<path style="mix-blend-mode:screen" d="M381.93 114.855C386.255 114.855 389.762 111.349 389.762 107.024C389.762 102.699 386.255 99.1929 381.93 99.1929C377.604 99.1929 374.097 102.699 374.097 107.024C374.097 111.349 377.604 114.855 381.93 114.855Z" fill="url(#paint10_linear_607_9125)"/>
<path style="mix-blend-mode:screen" d="M328.28 151.249C332.606 151.249 336.112 147.743 336.112 143.418C336.112 139.093 332.606 135.587 328.28 135.587C323.954 135.587 320.447 139.093 320.447 143.418C320.447 147.743 323.954 151.249 328.28 151.249Z" fill="url(#paint11_linear_607_9125)"/>
<path style="mix-blend-mode:screen" d="M354.94 103.259C360.486 103.259 364.982 98.7643 364.982 93.2195C364.982 87.6747 360.486 83.1797 354.94 83.1797C349.393 83.1797 344.897 87.6747 344.897 93.2195C344.897 98.7643 349.393 103.259 354.94 103.259Z" fill="url(#paint12_linear_607_9125)"/>
<path style="mix-blend-mode:screen" d="M93.7159 368.425C102.396 368.425 109.432 361.39 109.432 352.712C109.432 344.035 102.396 337 93.7159 337C85.0363 337 78 344.035 78 352.712C78 361.39 85.0363 368.425 93.7159 368.425Z" fill="url(#paint13_linear_607_9125)"/>
<path style="mix-blend-mode:screen" d="M126 363.341C126 369.039 130.619 373.682 136.343 373.682C142.067 373.682 146.687 369.064 146.687 363.341C146.687 357.618 142.067 353 136.343 353C130.619 353 126 357.618 126 363.341Z" fill="url(#paint14_linear_607_9125)"/>
<path style="mix-blend-mode:screen" d="M85.7283 393.453C89.4442 393.453 92.4565 390.442 92.4565 386.727C92.4565 383.012 89.4442 380 85.7283 380C82.0124 380 79 383.012 79 386.727C79 390.442 82.0124 393.453 85.7283 393.453Z" fill="url(#paint15_linear_607_9125)"/>
<path style="mix-blend-mode:screen" d="M118.624 391.245C121.729 391.245 124.247 388.727 124.247 385.622C124.247 382.517 121.729 380 118.624 380C115.518 380 113 382.517 113 385.622C113 388.727 115.518 391.245 118.624 391.245Z" fill="url(#paint16_linear_607_9125)"/>
<path style="mix-blend-mode:screen" d="M42 419.622C42 422.735 44.5105 425.245 47.6236 425.245C50.7366 425.245 53.2472 422.735 53.2472 419.622C53.2472 416.51 50.7366 414 47.6236 414C44.5105 414 42 416.51 42 419.622Z" fill="url(#paint17_linear_607_9125)"/>
<path style="mix-blend-mode:screen" d="M39 379.178C39 383.144 42.2134 386.357 46.1801 386.357C50.1467 386.357 53.3602 383.144 53.3602 379.178C53.3602 375.213 50.1467 372 46.1801 372C42.2134 372 39 375.213 39 379.178Z" fill="url(#paint18_linear_607_9125)"/>
<path style="mix-blend-mode:screen" d="M173.222 0L-432 885.719V1204.44L-412.483 1634L260.633 0H173.222ZM406.599 0L288 565.5L382.5 553L486.102 0H406.599ZM708.101 0H618.424L1223.6 1578.39L1376 1204.44V1050.8L708.101 0Z" fill="url(#paint19_linear_607_9125)"/>
</g>
<defs>
<linearGradient id="paint0_linear_607_9125" x1="-114.528" y1="333.918" x2="-114.528" y2="-20.7504" gradientUnits="userSpaceOnUse">
<stop/>
<stop offset="1" stop-color="#60DCE8"/>
</linearGradient>
<linearGradient id="paint1_linear_607_9125" x1="-1055.98" y1="132.516" x2="-1053.89" y2="-290.44" gradientUnits="userSpaceOnUse">
<stop/>
<stop offset="1" stop-color="#60DCE8"/>
</linearGradient>
<linearGradient id="paint2_linear_607_9125" x1="-1056" y1="762.763" x2="-1054.43" y2="85.005" gradientUnits="userSpaceOnUse">
<stop/>
<stop offset="1" stop-color="#60DCE8"/>
</linearGradient>
<linearGradient id="paint3_linear_607_9125" x1="-59.9807" y1="624.556" x2="-74.2089" y2="829.544" gradientUnits="userSpaceOnUse">
<stop stop-color="#975DA5"/>
<stop offset="1" stop-color="#745DA5"/>
</linearGradient>
<linearGradient id="paint4_linear_607_9125" x1="376.732" y1="-11.8975" x2="379.919" y2="34.2103" gradientUnits="userSpaceOnUse">
<stop/>
<stop offset="1" stop-color="#60DCE8"/>
</linearGradient>
<linearGradient id="paint5_linear_607_9125" x1="389.285" y1="116.436" x2="392.472" y2="162.519" gradientUnits="userSpaceOnUse">
<stop/>
<stop offset="1" stop-color="#60DCE8"/>
</linearGradient>
<linearGradient id="paint6_linear_607_9125" x1="348.614" y1="113.148" x2="350.772" y2="144.096" gradientUnits="userSpaceOnUse">
<stop/>
<stop offset="1" stop-color="#60DCE8"/>
</linearGradient>
<linearGradient id="paint7_linear_607_9125" x1="347.685" y1="92.4661" x2="349.066" y2="112.219" gradientUnits="userSpaceOnUse">
<stop/>
<stop offset="1" stop-color="#60DCE8"/>
</linearGradient>
<linearGradient id="paint8_linear_607_9125" x1="354.915" y1="167.764" x2="356.271" y2="187.518" gradientUnits="userSpaceOnUse">
<stop/>
<stop offset="1" stop-color="#60DCE8"/>
</linearGradient>
<linearGradient id="paint9_linear_607_9125" x1="381.954" y1="92.2654" x2="384.062" y2="122.535" gradientUnits="userSpaceOnUse">
<stop/>
<stop offset="1" stop-color="#60DCE8"/>
</linearGradient>
<linearGradient id="paint10_linear_607_9125" x1="380.072" y1="80.2428" x2="381.201" y2="96.7081" gradientUnits="userSpaceOnUse">
<stop/>
<stop offset="1" stop-color="#60DCE8"/>
</linearGradient>
<linearGradient id="paint11_linear_607_9125" x1="326.397" y1="116.637" x2="327.551" y2="133.102" gradientUnits="userSpaceOnUse">
<stop/>
<stop offset="1" stop-color="#60DCE8"/>
</linearGradient>
<linearGradient id="paint12_linear_607_9125" x1="352.555" y1="58.9336" x2="354.01" y2="80.0172" gradientUnits="userSpaceOnUse">
<stop/>
<stop offset="1" stop-color="#60DCE8"/>
</linearGradient>
<linearGradient id="paint13_linear_607_9125" x1="90.0003" y1="299.024" x2="92.2838" y2="332.03" gradientUnits="userSpaceOnUse">
<stop/>
<stop offset="1" stop-color="#60DCE8"/>
</linearGradient>
<linearGradient id="paint14_linear_607_9125" x1="133.883" y1="328.076" x2="135.389" y2="349.762" gradientUnits="userSpaceOnUse">
<stop/>
<stop offset="1" stop-color="#60DCE8"/>
</linearGradient>
<linearGradient id="paint15_linear_607_9125" x1="84.1215" y1="363.71" x2="85.1001" y2="377.867" gradientUnits="userSpaceOnUse">
<stop/>
<stop offset="1" stop-color="#60DCE8"/>
</linearGradient>
<linearGradient id="paint16_linear_607_9125" x1="117.293" y1="366.446" x2="118.121" y2="378.243" gradientUnits="userSpaceOnUse">
<stop/>
<stop offset="1" stop-color="#60DCE8"/>
</linearGradient>
<linearGradient id="paint17_linear_607_9125" x1="46.293" y1="400.446" x2="47.096" y2="412.243" gradientUnits="userSpaceOnUse">
<stop/>
<stop offset="1" stop-color="#60DCE8"/>
</linearGradient>
<linearGradient id="paint18_linear_607_9125" x1="44.4981" y1="354.631" x2="45.5269" y2="369.716" gradientUnits="userSpaceOnUse">
<stop/>
<stop offset="1" stop-color="#60DCE8"/>
</linearGradient>
<linearGradient id="paint19_linear_607_9125" x1="-432" y1="786.714" x2="471.054" y2="-606.325" gradientUnits="userSpaceOnUse">
<stop offset="0.40625"/>
<stop offset="1" stop-color="#60DCE8"/>
</linearGradient>
<clipPath id="clip0_607_9125">
<rect width="390" height="1332" fill="white"/>
</clipPath>
</defs>
</svg>
