<svg width="204" height="74" viewBox="0 0 204 74" fill="none" xmlns="http://www.w3.org/2000/svg">
<g filter="url(#filter0_d_429_764)">
<path d="M7.6001 7.94214L9.66432 7.57628L7.80678 7.53621L7.6001 7.94214Z" fill="#32428B"/>
<path d="M45.9712 62.4322L41.5047 62.0959C40.1672 62.7423 38.7945 63.6168 37.375 64.6395L44.5725 65.1865L54.2033 64.4078C52.7241 63.4931 51.2981 62.7039 49.9839 62.1081L45.9712 62.4322Z" fill="#32428B"/>
<path d="M123.417 58.615L139.696 57.2178L149.459 57.662C145.643 56.8467 141.609 56.2805 137.421 56.1289C131.986 55.9321 127.361 56.9512 123.417 58.615Z" fill="#32428B"/>
<path d="M13.731 59.9885L5.39738 54.9101L9.07866 31.6138L6.96764 18.4814L7.58119 7.9761L6.18641 10.6974L5.57026 21.234L7.68258 34.3647L4 57.6645L12.3323 62.7447L37.3746 64.6401C38.7941 63.6175 40.1681 62.7429 41.5044 62.0948L13.731 59.9885Z" fill="#32428B"/>
<path d="M194.866 56.4978L195.378 53.9926L194.641 56.909L141.092 54.4595L85.4726 59.2382L49.9844 62.1076C51.2986 62.7052 52.7232 63.4926 54.2025 64.4055L84.0765 61.9926L123.416 58.6145C127.361 56.9525 131.986 55.9334 137.42 56.1302C141.608 56.28 145.642 56.848 149.458 57.6633L193.248 59.6581L194.866 56.4978Z" fill="#32428B"/>
<path d="M45.3183 60.9311C44.0782 61.0426 42.8095 61.4607 41.5044 62.0949L45.9708 62.4329L49.9849 62.1071C48.1559 61.2778 46.5402 60.8161 45.3183 60.9311Z" fill="#32428B"/>
<path d="M141.093 54.4598L194.641 56.9093L195.378 53.9929L198.381 39.2698L194.165 3.1599L181.112 4.74178L150.452 6.02751L122.775 4.24875L107.882 9.40208L83.6746 10.1617L41.8312 8.23483L9.66548 7.57629L7.60126 7.94215L7.58176 7.97699L6.96691 18.4805L9.07923 31.613L5.39795 54.911L13.7315 59.9877L41.5049 62.094C42.81 61.4598 44.08 61.0434 45.3188 60.9319C46.5407 60.817 48.1564 61.2769 49.9854 62.1079L85.4736 59.2368L141.093 54.4598Z" fill="#32428B"/>
<path d="M69.6143 5.49481L85.0738 7.40771L91.5538 6.80144L85.2935 6.99831L69.6143 5.49481Z" fill="#315597"/>
<path d="M182.73 1.58017L152.073 2.86763L125.006 2.24045L124.973 2.2509L151.851 3.27704L182.509 1.99306L195.565 0.409431L199.778 36.5194L194.749 56.4916L194.867 56.4985L200 36.1117L195.786 1.90735e-05L182.73 1.58017Z" fill="#315597"/>
<path d="M7.78516 7.90796L10.2107 7.48113L7.80725 7.53513L7.78516 7.90796Z" fill="#315597"/>
<path d="M45.319 60.9311C44.3363 61.0199 43.334 61.3039 42.311 61.7308L46.1951 62.0234L49.2264 61.7813C47.7108 61.1593 46.3706 60.8301 45.319 60.9311Z" fill="#315597"/>
<path d="M141.316 54.0538L194.747 56.491L199.776 36.5188L195.563 0.408886L182.508 1.99252L151.849 3.2765L124.972 2.25036L109.504 6.24167L91.5541 6.80091L85.0728 7.40718L69.6133 5.49428L38.9151 2.55175L26.21 7.09011L10.211 7.48035L7.78411 7.90718L7.18746 18.0762L9.30368 31.2052L5.62109 54.5085L13.956 59.5851L42.3104 61.7298C43.3334 61.3029 44.3356 61.0189 45.3184 60.9318C46.37 60.829 47.7102 61.1601 49.2258 61.7803L85.6968 58.829L141.316 54.0538Z" fill="#2A4474"/>
<path d="M132.037 50.2026C123.085 51.3246 119.516 50.6469 118.322 50.2671C119.302 49.3768 122.843 47.1103 135.521 43.6486C145.808 40.8402 148.523 39.044 148.623 37.3959C148.635 37.1938 148.61 36.997 148.56 36.8019C147.052 31.3715 118.369 34.5736 109.866 36.2879C100.734 38.1329 97.7965 36.6904 93.7383 34.6886C89.2667 32.4917 83.698 29.7496 69.1353 29.5579C51.5751 29.3297 45.2473 32.4238 37.24 36.3489C32.1847 38.8193 26.4548 41.6294 16.5835 44.1521C12.6539 45.1573 9.4315 45.7671 6.78753 46.1137L6.25977 49.4517C9.3535 49.0354 13.0322 48.2653 17.4609 47.1364C27.6195 44.5371 33.4885 41.6643 38.6725 39.1224C46.3353 35.3681 52.3889 32.4064 69.2445 32.6311C83.0987 32.814 88.3152 35.3768 92.5086 37.4325C96.9503 39.6259 100.455 41.3524 110.602 39.2984C124.004 36.5876 139.229 36.7165 143.176 37.6712C142.136 38.2479 139.799 39.2618 134.594 40.6834C129.367 42.1068 112.288 47.1103 112.02 51.4849L112.064 52.0406C112.817 55.173 119.951 54.896 131.214 53.4239L132.549 53.2514C141.185 52.1748 153.802 51.9117 167.161 51.6329C177.257 51.4274 187.569 51.2131 196.227 50.6155L197.02 47.4709C188.219 48.1242 177.467 48.3437 166.965 48.565C153.514 48.8385 140.812 49.1138 132.037 50.2026Z" fill="#32428B"/>
<path d="M167.521 22.1373C158.282 24.0711 152.561 22.3446 152.256 21.3934C152.307 20.9997 153.857 19.2174 160.22 17.2923C168.238 14.8481 174.333 9.74701 174.796 6.69647C175.037 5.06406 174.522 3.52747 173.373 2.37415L156.648 3.07276C155.983 3.32712 155.328 3.59889 154.697 3.8759C144.877 8.24003 135.807 7.84456 125.303 7.39508C118.225 7.09368 110.922 6.77661 102.513 7.84456C81.2432 10.5362 73.2099 10.6564 55.6835 10.3341C43.1812 10.1059 39.158 11.0658 30.3435 13.1895C26.3268 14.153 21.3093 15.254 14.0442 16.7941C11.3768 17.3551 9.04742 17.7645 6.991 18.0572L6.96631 18.4805L7.58375 22.3133C9.54918 22.1147 11.7668 21.7854 14.273 21.2889C18.8668 20.3777 22.8327 19.0572 26.0227 17.9822L31.2326 16.3777C39.7781 14.3272 43.6777 13.3951 55.7784 13.6111L66.6233 13.9265C77.6243 14.3237 86.3166 14.6338 102.92 12.5397L106.045 12.1338C112.873 11.2522 119.317 10.4108 125.316 10.6721C135.771 11.1216 145.637 11.5484 156.119 6.88637C162.604 4.00482 166.709 4.39855 168.251 5.61458C168.774 6.02573 168.984 6.5449 168.884 7.19821C168.653 8.74874 166.343 11.9578 159.148 14.146C149.304 17.1373 147.661 21.254 148.233 23.2192C149.621 27.9283 161.515 26.775 168.324 25.3516C179.733 22.9666 191.106 22.7366 198.223 23.2209L198.016 21.4161C190.783 20.3986 179.444 19.646 167.521 22.1373Z" fill="#32428B"/>
<path d="M162.03 2.84814L171.051 2.47358C168.937 1.76103 165.578 2.00494 162.03 2.84814Z" fill="#315597"/>
<path d="M167.713 23.5191C158.553 25.4355 151.903 23.9547 151.357 22.101C151.089 21.2038 152.596 19.0992 159.89 16.8832C167.594 14.5435 173.457 9.68805 173.863 6.99291C174.088 5.46677 173.533 4.08697 172.294 3.11484C171.953 2.84655 171.534 2.63575 171.051 2.47373L162.031 2.84829C159.69 3.40753 157.27 4.22286 155.071 5.19848C145.061 9.64275 135.892 9.24902 125.278 8.79431C118.251 8.48944 110.984 8.17933 102.642 9.23334C81.3071 11.932 73.2504 12.0539 55.6811 11.7334C43.2893 11.5086 39.3025 12.4668 30.5634 14.5591C26.5428 15.5243 21.5396 16.7299 14.2277 18.1707C11.5486 18.7003 9.18283 19.0592 7.09521 19.2857L7.50338 21.8153C9.44542 21.6428 11.6071 21.3414 14.0275 20.8623C21.3654 19.4111 26.9224 16.932 30.9547 15.9599C39.5781 13.8867 43.5103 12.9459 55.7201 13.1724C73.3713 13.4912 81.2993 14.8048 102.731 12.1009C110.955 11.0574 118.315 9.93369 125.284 10.2299C135.629 10.6724 145.392 11.094 155.691 6.52253C162.537 3.47721 166.932 3.93366 168.762 5.37444C169.564 6.00336 169.909 6.86051 169.759 7.85528C169.433 10.0365 166.529 13.3518 159.423 15.5086C150.713 18.1515 148.574 21.7665 149.078 23.4703C150.039 26.7177 159.057 26.8101 168.069 24.9233C179.138 22.6115 190.704 22.6236 198.223 23.216L198.055 21.7543C190.422 21.1585 178.942 21.1707 167.713 23.5191Z" fill="#315597"/>
<path d="M163.844 43.0715C158.946 43.5802 154.152 44.3781 149.918 45.075C144.078 46.0401 136.809 47.2422 135.549 46.2213C135.718 45.1255 142.78 43.8955 145.437 43.4304L150.03 42.7788C156.837 41.9042 161.358 41.1621 162.208 38.9304C162.52 38.108 162.649 36.7875 161.49 35.1464C155.716 26.9408 121.954 27.0592 112.845 31.0679C106.827 33.7178 104.647 32.8153 96.5317 29.4739C95.4268 29.0104 93.8656 28.0313 92.207 27.0017C89.6774 25.4181 86.8085 23.6219 84.0086 22.6184C66.5901 16.3693 49.7994 24.3519 37.5428 30.1916L37.0241 30.439C30.1191 33.7178 23.1621 36.7091 17.3958 38.5297C14.2332 39.5244 10.9692 40.561 7.45821 41.8711L6.99805 44.791C7.75198 44.5663 8.54881 44.2997 9.39894 43.9722C13.1478 42.5541 16.6354 41.4495 20.0034 40.3868C25.6202 38.6202 31.4229 36.7892 38.5216 33.4146C50.374 27.777 67.9771 22.3031 84.522 28.2369L95.4008 32.4826C103.62 35.8763 107.011 37.2753 114.257 34.0784C123.655 29.946 150.573 30.7613 154.605 36.4896C154.925 36.9425 154.907 37.1377 154.904 37.1429C154.382 38.5262 148.344 39.5697 144.737 40.2039C137.964 41.3833 132.117 42.4008 132.36 46.3555C132.422 47.2997 132.853 48.1395 133.584 48.7318C136.025 50.7213 141.811 49.7649 150.574 48.3102C154.812 47.6133 159.552 46.8293 164.325 46.3276C170.439 45.6952 177.383 46.4408 184.11 47.1604C188.535 47.6342 192.852 48.0942 196.845 48.1604L197.669 44.8938C193.577 44.8903 189.006 44.4042 184.301 43.9025C177.412 43.1603 170.292 42.3955 163.844 43.0715Z" fill="#32428B"/>
<path d="M123.527 55.9691L111.48 57.0057C112.454 57.2792 113.479 57.5754 114.579 57.8994C114.705 57.9395 125.174 56.72 124.829 56.558C124.388 56.3541 123.958 56.1642 123.527 55.9691Z" fill="#32428B"/>
<path d="M89.255 53.9831L89.2394 53.9901C87.6223 54.8873 85.9429 55.8176 84.0385 56.4256C76.9412 58.7061 68.8221 60.3647 65.6035 60.4883C66.3848 59.8455 67.7822 58.8472 70.2883 57.3768L71.0267 56.9483C75.1122 54.565 77.0464 53.2984 77.1296 51.9622L77.0529 51.4151C76.1534 48.9116 70.6172 49.4796 57.2492 50.8524L50.3013 51.5493C39.195 52.6347 26.2728 53.3803 22.1951 52.6468C15.0886 51.3664 9.68238 51.889 5.69303 53.0493L5.39795 54.9099L5.90881 55.2218C10.6612 53.9117 16.2702 53.1573 20.4312 55.0476C25.0094 57.1294 38.0875 55.8524 50.7393 54.6068C56.7253 54.0214 67.2375 52.9918 70.6237 53.4047C70.2233 53.7235 69.6501 54.1259 68.6674 54.7043C62.9258 58.0685 61.6922 59.6364 61.6155 60.9518L61.6571 61.1643L85.4229 59.241C87.452 58.5476 89.1627 57.6051 90.8161 56.6852C95.9377 53.8455 98.3906 53.2932 111.48 57.004L123.528 55.9692C102.336 46.4447 91.6026 52.6782 89.255 53.9831Z" fill="#32428B"/>
<path d="M63.8259 61.6812C63.8285 61.6673 63.8324 61.6396 63.8531 61.591C63.8234 61.5737 63.7897 61.5581 63.769 61.539C63.7988 61.5685 63.8324 61.6396 63.8259 61.6812Z" fill="#315597"/>
<path d="M50.3913 52.8381C38.6052 53.9914 25.254 55.2998 21.2348 53.4809C16.6007 51.3729 10.6654 52.0541 5.64005 53.3781L5.39697 54.9095L5.47107 54.9565C10.395 53.5837 16.2861 52.7788 20.7031 54.7806C25.0773 56.7736 38.0488 55.4966 50.5928 54.2719C59.1603 53.4339 70.8489 52.2858 72.0981 53.5175C72.1111 53.4862 72.1137 53.4687 72.115 53.4652C72.1137 53.4862 72.1254 53.5297 72.1371 53.5506C72.1293 53.5402 72.1111 53.528 72.0981 53.5175C72.024 53.7022 71.5989 54.4078 69.0694 55.8921C64.5873 58.5175 62.8806 60.0263 62.4854 61.0959L64.3521 60.9461C65.0098 60.2771 66.4891 59.1012 69.8259 57.143C72.8156 55.3938 76.6672 53.2701 76.2642 52.136C75.4674 49.9252 66.5034 51.2614 50.3913 52.8381Z" fill="#315597"/>
<path d="M89.641 55.1762C87.981 56.0961 86.2704 57.0473 84.2829 57.6849C81.6766 58.5229 78.7284 59.333 75.8921 60.0125L83.7161 59.38C84.3609 59.1832 84.7469 59.0612 84.7742 59.0543C86.8865 58.3783 88.6544 57.3975 90.3728 56.4445C95.1889 53.765 99.047 52.4741 110.603 57.0804L121.651 56.1309C106.692 50.7929 94.6755 52.38 89.641 55.1762Z" fill="#315597"/>
<path d="M72.0981 53.5168C72.1114 53.5292 72.13 53.5381 72.138 53.5505C72.126 53.531 72.1128 53.4866 72.1154 53.4635C72.1141 53.4671 72.1114 53.4866 72.0981 53.5168Z" fill="#315597"/>
<path d="M133.399 50.4321C122.375 51.8032 118.544 50.5262 118.397 49.906C118.39 49.8833 118.303 47.2457 136.499 42.277C146.617 39.5087 149.367 37.7073 149.004 36.4042C147.902 32.4285 122.659 34.2108 111.288 36.5087C101.884 38.4042 98.8453 36.9077 94.6401 34.8397C90.24 32.6742 84.7636 29.9791 70.3868 29.7874C53.0164 29.5662 46.764 32.6272 38.8503 36.4983C33.7586 38.9948 27.991 41.8188 18.0482 44.3624C13.3855 45.5558 9.66907 46.2701 6.70143 46.6516L6.46875 48.1325C9.83026 47.73 13.8222 46.946 18.4576 45.7596C28.5395 43.1847 34.3669 40.3241 39.5184 37.8014C47.2722 34.0052 53.3934 31.0087 70.4401 31.2247C84.4867 31.4111 89.798 34.0209 94.0656 36.1272C98.3643 38.2404 101.756 39.9112 111.63 37.9181C126.165 34.9791 144.608 35.1115 145.926 36.9355C145.938 36.9146 145.943 36.899 145.945 36.8902C145.938 36.9042 145.943 36.9495 145.957 36.9652C145.949 36.9564 145.935 36.946 145.926 36.9355C145.792 37.2143 144.717 38.5209 136.069 40.8903C122.815 44.5053 113.473 48.7509 114.083 51.3032C114.865 54.582 128.9 52.4478 133.639 51.859C142.304 50.7701 154.951 50.5157 168.332 50.2405C178.102 50.0349 188.089 49.8276 196.564 49.2736L196.935 47.8032C188.384 48.3781 178.198 48.5924 168.233 48.7997C154.816 49.0785 142.135 49.3398 133.399 50.4321Z" fill="#315597"/>
<path d="M145.947 36.8882C145.944 36.8971 145.937 36.9149 145.927 36.9344C145.935 36.9451 145.951 36.9557 145.959 36.9646C145.944 36.9486 145.937 36.9042 145.947 36.8882Z" fill="#315597"/>
<path d="M163.475 44.4151C158.616 44.9186 153.828 45.7078 149.602 46.4082C142.652 47.5615 136.085 48.6399 134.494 47.3507C134.298 47.1939 134.207 47.0092 134.189 46.7462C134.071 44.8106 139.981 43.7775 144.736 42.9552C150.331 41.9726 159.882 41.5284 160.848 38.9953C161.186 38.1015 160.986 37.1259 160.253 36.0771C154.793 28.3245 121.567 28.4517 112.741 32.3419C106.375 35.1416 103.901 34.1189 95.7174 30.7426C92.8628 29.5597 87.8348 25.5579 83.2384 23.9081C65.9317 17.7025 49.1801 25.8767 36.9403 31.7008C29.9833 35.0092 24.5056 36.7322 18.7055 38.5632C15.305 39.6346 11.7914 40.7461 7.98275 42.1974C7.77477 42.2775 7.57459 42.3472 7.37181 42.4186L7.11572 44.0423C7.57458 43.8908 8.04774 43.7287 8.5391 43.5406C12.3101 42.1085 15.8094 40.9953 19.1904 39.9343C24.7773 38.1712 30.5514 36.3524 37.5955 33.0022C49.6039 27.2931 67.4474 21.7565 84.2848 27.7983C88.8591 29.443 92.3922 30.9011 95.2312 32.0701C103.398 35.4378 106.452 36.7026 113.356 33.6573C122.347 29.706 150.224 29.8576 154.838 36.4047C155.487 37.328 155.305 37.7949 155.247 37.9569C154.557 39.7688 149.179 40.7078 144.428 41.5319C138.068 42.6399 132.573 43.6016 132.773 46.7618C132.812 47.4448 133.11 48.0267 133.63 48.4465C135.745 50.1678 141.681 49.1887 149.899 47.8281C154.102 47.1294 158.868 46.342 163.687 45.8402C169.892 45.1974 176.888 45.9465 183.657 46.6713C188.367 47.1747 192.866 47.6922 196.953 47.7409L197.328 46.2392C193.157 46.2479 188.514 45.7531 183.738 45.2427C176.902 44.5075 169.824 43.7531 163.475 44.4151Z" fill="#315597"/>
</g>
<defs>
<filter id="filter0_d_429_764" x="0" y="0" width="204" height="73.1865" filterUnits="userSpaceOnUse" color-interpolation-filters="sRGB">
<feFlood flood-opacity="0" result="BackgroundImageFix"/>
<feColorMatrix in="SourceAlpha" type="matrix" values="0 0 0 0 0 0 0 0 0 0 0 0 0 0 0 0 0 0 127 0" result="hardAlpha"/>
<feOffset dy="4"/>
<feGaussianBlur stdDeviation="2"/>
<feComposite in2="hardAlpha" operator="out"/>
<feColorMatrix type="matrix" values="0 0 0 0 0 0 0 0 0 0 0 0 0 0 0 0 0 0 0.25 0"/>
<feBlend mode="normal" in2="BackgroundImageFix" result="effect1_dropShadow_429_764"/>
<feBlend mode="normal" in="SourceGraphic" in2="effect1_dropShadow_429_764" result="shape"/>
</filter>
</defs>
</svg>
