<svg width="26" height="20" viewBox="0 0 26 20" fill="none" xmlns="http://www.w3.org/2000/svg">
<path d="M22.3268 0.0952004C22.235 0.15041 22.0513 0.283564 21.9169 0.384241C21.7824 0.484918 21.4217 0.786948 21.1134 1.05325C20.8084 1.31956 20.3493 1.72552 20.0967 1.95935C19.8442 2.18993 19.349 2.64785 18.9981 2.97911C18.6472 3.31037 17.5354 4.37559 16.5286 5.34989C15.5218 6.32418 13.7935 8.03569 12.6916 9.15287C11.5864 10.2701 10.5008 11.371 10.2746 11.6048C10.0483 11.8354 9.58913 12.3096 9.2579 12.6538C8.81516 13.1118 8.63151 13.2806 8.57576 13.2774C8.53641 13.2774 8.4413 13.2546 8.36587 13.2222C8.28716 13.1929 8.12974 13.1085 8.01168 13.0338C7.89362 12.9591 7.69357 12.813 7.56894 12.7123C7.44104 12.6084 7.16228 12.3615 6.94911 12.1634C6.73266 11.9621 5.99477 11.2151 5.30935 10.5039C4.62065 9.78941 3.91883 9.08143 3.74829 8.93204C3.57776 8.7794 3.36459 8.61701 3.27276 8.56505C3.15798 8.5001 3.06287 8.47087 2.96121 8.47087C2.86282 8.47087 2.74148 8.50335 2.60046 8.57155C2.48239 8.62676 2.27906 8.75342 2.1446 8.85734C2.01014 8.95802 1.77402 9.16587 1.61988 9.31851C1.46574 9.47114 1.22634 9.7342 1.08859 9.90308C0.950855 10.072 0.737685 10.3545 0.613063 10.5331C0.491721 10.7117 0.321185 11.004 0.235917 11.1827C0.14737 11.3613 0.0555433 11.6016 0.029307 11.7185C-0.00348824 11.8744 -0.0100473 11.9686 0.0161889 12.0758C0.0325866 12.1569 0.111295 12.3453 0.190004 12.4979C0.268713 12.6506 0.449087 12.9429 0.586827 13.1475C0.724567 13.3521 0.957414 13.6736 1.10171 13.862C1.24929 14.0503 1.51493 14.3783 1.69531 14.5927C1.87896 14.807 2.20363 15.1708 2.42336 15.4046C2.64309 15.6352 3.0104 16.0086 3.24325 16.2327C3.47609 16.4568 3.8434 16.7913 4.05985 16.9797C4.2763 17.1681 4.5649 17.4084 4.69936 17.5188C4.83382 17.626 5.12242 17.8468 5.33886 18.0092C5.55531 18.1716 5.94558 18.4411 6.20794 18.61C6.4703 18.7821 6.83105 19.003 7.01142 19.1069C7.1918 19.2108 7.55255 19.3992 7.81491 19.5291C8.07727 19.659 8.42162 19.8181 8.5856 19.8798C8.78565 19.961 8.93323 20 9.04473 20C9.13656 20 9.30381 19.9675 9.42188 19.9318C9.53994 19.8961 9.67768 19.8344 9.73343 19.7954C9.7859 19.7564 9.9794 19.6005 10.1598 19.4479C10.3401 19.292 10.7107 18.964 10.9797 18.7172C11.2519 18.4704 11.9209 17.8436 12.4718 17.3239C13.0195 16.8043 14.3117 15.5572 15.3414 14.557C16.3679 13.5534 18.047 11.8874 19.067 10.8546C20.0869 9.81864 21.2511 8.63 21.6578 8.21106C22.0612 7.79211 22.6876 7.13284 23.0483 6.74962C23.4091 6.36315 23.9043 5.83054 24.147 5.56423C24.3896 5.29468 24.7504 4.88872 24.9504 4.65814C25.1472 4.4308 25.4325 4.08655 25.5801 3.89494C25.731 3.70658 25.8884 3.47924 25.9343 3.38831C26.0097 3.23567 26.013 3.21294 25.9802 3.03107C25.9605 2.9239 25.895 2.73229 25.8359 2.60888C25.7769 2.48222 25.6555 2.27762 25.567 2.15421C25.4785 2.02755 25.2784 1.79697 25.1275 1.63783C24.9767 1.4787 24.711 1.23188 24.5405 1.09223C24.37 0.94933 24.0519 0.7155 23.8354 0.569356C23.619 0.42646 23.3008 0.244592 23.1303 0.163401C22.9368 0.0724669 22.7564 0.0140094 22.6548 0.00426646C22.5138 -0.00872411 22.4678 0.00426645 22.3268 0.0952004Z" fill="#9CDA62"/>
</svg>