<svg width="201" height="77" viewBox="0 0 201 77" fill="none" xmlns="http://www.w3.org/2000/svg">
<g opacity="0.6">
<path d="M3.68567 9.3147L5.79888 8.88561L3.89726 8.83862L3.68567 9.3147Z" fill="#32428B"/>
<path d="M42.9672 73.2225L38.3947 72.8281C37.0254 73.5862 35.6202 74.6119 34.167 75.8113L41.5353 76.4529L51.3947 75.5395C49.8803 74.4668 48.4205 73.5412 47.0751 72.8424L42.9672 73.2225Z" fill="#32428B"/>
<path d="M122.251 68.7458L138.916 67.1071L148.911 67.6282C145.004 66.6719 140.875 66.0079 136.587 65.8301C131.023 65.5992 126.289 66.7945 122.251 68.7458Z" fill="#32428B"/>
<path d="M9.96189 70.3565L1.43054 64.4004L5.19919 37.0778L3.03807 21.6756L3.66618 9.35469L2.2383 12.5463L1.60753 24.904L3.76998 40.3041L0 67.6308L8.53002 73.5889L34.1667 75.812C35.6198 74.6126 37.0264 73.5869 38.3944 72.8268L9.96189 70.3565Z" fill="#32428B"/>
<path d="M195.396 66.2627L195.92 63.3245L195.166 66.7449L140.346 63.8721L83.4063 69.4768L47.0759 72.842C48.4212 73.5429 49.8797 74.4664 51.3941 75.5371L81.9771 72.7072L122.251 68.7453C126.289 66.796 131.024 65.6007 136.587 65.8316C140.874 66.0073 145.003 66.6734 148.91 67.6297L193.739 69.9692L195.396 66.2627Z" fill="#32428B"/>
<path d="M42.2993 71.4618C41.0298 71.5926 39.731 72.083 38.395 72.8268L42.9674 73.2231L47.0767 72.8411C45.2043 71.8685 43.5502 71.327 42.2993 71.4618Z" fill="#32428B"/>
<path d="M140.346 63.8721L195.165 66.7449L195.919 63.3245L198.993 46.0568L194.678 3.70601L181.314 5.56129L149.928 7.06923L121.594 4.98306L106.347 11.027L81.565 11.9179L38.7286 9.65805L5.79947 8.8857L3.68626 9.31478L3.6663 9.35565L3.03686 21.6745L5.19931 37.0767L1.43066 64.4013L9.96202 70.3554L38.3945 72.8257C39.7306 72.0819 41.0307 71.5936 42.2989 71.4628C43.5498 71.328 45.2039 71.8674 47.0763 72.842L83.4067 69.4747L140.346 63.8721Z" fill="#32428B"/>
<path d="M67.1712 6.44448L82.9977 8.68799L89.6314 7.97693L83.2225 8.20782L67.1712 6.44448Z" fill="#315597"/>
<path d="M182.971 1.85324L151.587 3.36321L123.877 2.62764L123.844 2.6399L151.36 3.84338L182.745 2.33749L196.111 0.480164L200.424 42.831L195.275 66.255L195.396 66.2632L200.651 42.3529L196.337 -4.87694e-06L182.971 1.85324Z" fill="#315597"/>
<path d="M3.875 9.27466L6.35815 8.77406L3.89762 8.8374L3.875 9.27466Z" fill="#315597"/>
<path d="M42.2993 71.4623C41.2933 71.5665 40.2673 71.8995 39.22 72.4001L43.1962 72.7434L46.2995 72.4594C44.7479 71.7299 43.3759 71.3438 42.2993 71.4623Z" fill="#315597"/>
<path d="M140.575 63.3964L195.274 66.2549L200.423 42.8308L196.11 0.480007L182.745 2.33734L151.358 3.84323L123.843 2.63974L108.008 7.32088L89.6321 7.97677L82.9971 8.68782L67.1706 6.44431L35.7439 2.99323L22.7373 8.31595L6.35862 8.77364L3.87414 9.27424L3.26333 21.2008L5.42977 36.5989L1.65979 63.9296L10.1925 69.8837L39.2198 72.399C40.2671 71.8984 41.2931 71.5653 42.2992 71.4632C43.3757 71.3426 44.7477 71.7308 46.2993 72.4583L83.6358 68.997L140.575 63.3964Z" fill="#2A4474"/>
<path d="M131.076 58.8798C121.911 60.1957 118.258 59.4009 117.035 58.9554C118.038 57.9113 121.663 55.253 134.642 51.1931C145.173 47.8993 147.953 45.7927 148.056 43.8598C148.068 43.6228 148.042 43.3919 147.991 43.163C146.447 36.7941 117.083 40.5497 108.379 42.5603C99.0301 44.7241 96.0226 43.0322 91.8681 40.6845C87.2903 38.108 81.5894 34.8919 66.6812 34.6671C48.7043 34.3994 42.2263 38.0283 34.0289 42.6318C28.8537 45.5291 22.9878 48.8249 12.8822 51.7836C8.85937 52.9625 5.56048 53.6777 2.85376 54.0843L2.31348 57.9992C5.48063 57.5108 9.24662 56.6077 13.7804 55.2837C24.1801 52.2351 30.1884 48.8658 35.4954 45.8846C43.3401 41.4814 49.5373 38.0078 66.793 38.2714C80.976 38.486 86.3162 41.4916 90.6092 43.9027C95.1563 46.4752 98.744 48.5 109.132 46.091C122.852 42.9117 138.439 43.0629 142.479 44.1826C141.414 44.8589 139.021 46.0481 133.693 47.7154C128.342 49.3848 110.858 55.253 110.584 60.3837L110.629 61.0355C111.399 64.7093 118.702 64.3844 130.233 62.6578L131.6 62.4556C140.441 61.1928 153.357 60.8843 167.033 60.5574C177.369 60.3163 187.926 60.0649 196.789 59.3641L197.6 55.676C188.591 56.4422 177.583 56.6997 166.832 56.9592C153.062 57.28 140.059 57.6028 131.076 58.8798Z" fill="#32428B"/>
<path d="M167.401 25.9637C157.944 28.2317 152.087 26.2068 151.775 25.0912C151.827 24.6294 153.414 22.5391 159.928 20.2813C168.136 17.4146 174.376 11.4319 174.85 7.85417C175.096 5.93963 174.569 4.13747 173.392 2.78482L156.271 3.60417C155.59 3.90249 154.919 4.22124 154.274 4.54612C144.22 9.66451 134.935 9.20069 124.182 8.67352C116.936 8.32004 109.46 7.94816 100.851 9.20068C79.0765 12.3575 70.8525 12.4985 52.9102 12.1205C40.1112 11.8528 35.9926 12.9787 26.9688 15.4694C22.8569 16.5994 17.7202 17.8907 10.2827 19.697C7.55205 20.3549 5.16737 20.8351 3.06215 21.1783L3.03687 21.6748L3.66896 26.17C5.68104 25.9371 7.95128 25.5509 10.5169 24.9686C15.2198 23.9 19.2798 22.3512 22.5455 21.0905L27.8791 19.2086C36.6273 16.8037 40.6195 15.7105 53.0074 15.9639L64.1097 16.3337C75.3717 16.7996 84.2703 17.1633 101.268 14.7073L104.467 14.2312C111.457 13.1973 118.054 12.2104 124.195 12.5169C134.898 13.0441 144.999 13.5447 155.73 8.07689C162.369 4.69732 166.571 5.1591 168.149 6.5853C168.684 7.06751 168.9 7.67641 168.797 8.44263C168.561 10.2611 166.196 14.0248 158.83 16.5912C148.753 20.0995 147.07 24.9277 147.656 27.2325C149.077 32.7555 161.253 31.4028 168.224 29.7335C179.904 26.9363 191.546 26.6665 198.832 27.2346L198.621 25.1177C191.216 23.9245 179.608 23.0418 167.401 25.9637Z" fill="#32428B"/>
<path d="M161.781 3.34058L171.016 2.90127C168.851 2.06558 165.413 2.35163 161.781 3.34058Z" fill="#315597"/>
<path d="M167.598 27.5841C158.22 29.8317 151.412 28.0949 150.853 25.9209C150.579 24.8686 152.122 22.4003 159.59 19.8013C167.476 17.0572 173.479 11.3626 173.894 8.20163C174.124 6.41172 173.556 4.79346 172.288 3.65331C171.939 3.33865 171.509 3.09141 171.015 2.90139L161.781 3.34069C159.385 3.99658 156.907 4.95283 154.655 6.09706C144.409 11.3094 135.022 10.8477 124.156 10.3144C116.962 9.9568 109.522 9.59309 100.983 10.8293C79.1413 13.9943 70.8934 14.1373 52.9072 13.7614C40.2213 13.4978 36.1399 14.6216 27.1933 17.0755C23.0774 18.2075 17.9554 19.6215 10.47 21.3112C7.72733 21.9324 5.30538 22.3533 3.16821 22.6189L3.58607 25.5858C5.57419 25.3835 7.7872 25.03 10.265 24.4681C17.777 22.766 23.4659 19.8585 27.5939 18.7183C36.422 16.2868 40.4475 15.1835 52.9471 15.4491C71.0172 15.823 79.1333 17.3636 101.073 14.1925C109.493 12.9686 117.027 11.6507 124.161 11.998C134.753 12.517 144.747 13.0115 155.29 7.64995C162.299 4.07831 166.798 4.61365 168.672 6.30343C169.493 7.04105 169.846 8.04634 169.693 9.21305C169.359 11.7712 166.386 15.6596 159.111 18.1891C150.195 21.2888 148.004 25.5285 148.521 27.5269C149.504 31.3355 158.737 31.4438 167.963 29.231C179.294 26.5195 191.135 26.5338 198.832 27.2285L198.66 25.5142C190.846 24.8154 179.093 24.8298 167.598 27.5841Z" fill="#315597"/>
<path d="M163.637 50.5155C158.623 51.1122 153.715 52.048 149.381 52.8653C143.402 53.9973 135.96 55.4071 134.671 54.2098C134.844 52.9246 142.074 51.482 144.794 50.9365L149.495 50.1723C156.464 49.1466 161.093 48.2761 161.963 45.6587C162.282 44.6943 162.414 43.1455 161.227 41.2207C155.316 31.5969 120.753 31.7359 111.428 36.4374C105.267 39.5452 103.035 38.4868 94.7274 34.5678C93.5963 34.0243 91.9981 32.876 90.3001 31.6684C87.7105 29.8111 84.7735 27.7045 81.9071 26.5276C64.0753 19.1984 46.8861 28.5606 34.3386 35.4097L33.8077 35.6998C26.7388 39.5452 19.6167 43.0535 13.7135 45.1887C10.4758 46.3554 7.13437 47.5712 3.54006 49.1077L3.06897 52.5323C3.8408 52.2687 4.65654 51.956 5.52684 51.5719C9.36468 49.9087 12.9351 48.6133 16.383 47.3669C22.1331 45.295 28.0735 43.1475 35.3407 39.1897C47.4743 32.5777 65.4952 26.1577 82.4328 33.1171L93.5697 38.0966C101.984 42.0768 105.456 43.7176 112.873 39.9682C122.495 35.1216 150.051 36.0778 154.179 42.7961C154.507 43.3273 154.488 43.5562 154.485 43.5623C153.951 45.1847 147.769 46.4086 144.076 47.1523C137.143 48.5356 131.158 49.7289 131.407 54.3671C131.469 55.4746 131.911 56.4594 132.659 57.1541C135.158 59.4875 141.081 58.3658 150.053 56.6597C154.391 55.8423 159.243 54.9229 164.129 54.3344C170.389 53.5927 177.498 54.4672 184.384 55.3111C188.914 55.8669 193.334 56.4063 197.422 56.4839L198.265 52.6528C194.076 52.6487 189.396 52.0786 184.58 51.4902C177.527 50.6198 170.239 49.7228 163.637 50.5155Z" fill="#32428B"/>
<path d="M122.364 65.6426L110.031 66.8584C111.027 67.1792 112.077 67.5265 113.203 67.9066C113.332 67.9536 124.05 66.5233 123.696 66.3333C123.245 66.0942 122.804 65.8715 122.364 65.6426Z" fill="#32428B"/>
<path d="M87.2778 63.3135L87.2618 63.3217C85.6064 64.3739 83.8871 65.465 81.9376 66.1781C74.6717 68.8528 66.36 70.798 63.0651 70.9431C63.8648 70.1891 65.2954 69.0183 67.861 67.2938L68.6169 66.7911C72.7994 63.9959 74.7795 62.5105 74.8647 60.9433L74.7862 60.3017C73.8653 57.3655 68.1977 58.0316 54.5124 59.6417L47.3996 60.459C36.0298 61.732 22.801 62.6065 18.6264 61.7463C11.3513 60.2445 5.81678 60.8575 1.73275 62.2183L1.43066 64.4005L1.95365 64.7662C6.81882 63.2297 12.5609 62.345 16.8206 64.5619C21.5075 67.0036 34.896 65.5059 47.8481 64.045C53.9761 63.3584 64.7378 62.1509 68.2044 62.6351C67.7945 63.009 67.2076 63.481 66.2016 64.1594C60.3237 68.105 59.0609 69.9439 58.9824 71.4866L59.0249 71.7358L83.3548 69.4801C85.4321 68.6668 87.1833 67.5614 88.876 66.4826C94.1191 63.1521 96.6302 62.5044 110.031 66.8565L122.364 65.6428C100.669 54.4723 89.6811 61.7831 87.2778 63.3135Z" fill="#32428B"/>
<path d="M61.2451 72.342C61.2478 72.3257 61.2517 72.293 61.2726 72.2358C61.2425 72.2154 61.2085 72.197 61.1875 72.1745C61.2176 72.2092 61.2517 72.293 61.2451 72.342Z" fill="#315597"/>
<path d="M47.4923 61.9704C35.4265 63.3231 21.7585 64.8576 17.6439 62.7244C12.8998 60.252 6.82365 61.051 1.67902 62.6038L1.43018 64.3999L1.50603 64.455C6.54686 62.8449 12.5778 61.901 17.0996 64.2487C21.5775 66.5862 34.8569 65.0885 47.6986 63.652C56.4694 62.6692 68.4354 61.3227 69.7143 62.7673C69.7276 62.7305 69.7302 62.7101 69.7316 62.706C69.7302 62.7305 69.7422 62.7816 69.7542 62.8061C69.7462 62.7939 69.7276 62.7796 69.7143 62.7673C69.6384 62.9839 69.2033 63.8114 66.6136 65.5523C62.0253 68.6315 60.278 70.401 59.8735 71.6555L61.7844 71.4798C62.4578 70.6952 63.9721 69.316 67.3881 67.0193C70.4488 64.9679 74.3918 62.4772 73.9793 61.147C73.1635 58.5541 63.9868 60.1213 47.4923 61.9704Z" fill="#315597"/>
<path d="M87.6734 64.7124C85.9741 65.7913 84.2228 66.9069 82.1881 67.6547C79.52 68.6375 76.5019 69.5876 73.5982 70.3845L81.6079 69.6428C82.268 69.4119 82.6632 69.2689 82.6911 69.2607C84.8536 68.4679 86.6634 67.3176 88.4226 66.1999C93.353 63.0574 97.3026 61.5433 109.133 66.9457L120.443 65.8321C105.129 59.5715 92.8273 61.433 87.6734 64.7124Z" fill="#315597"/>
<path d="M69.7142 62.7674C69.7271 62.7818 69.745 62.792 69.7527 62.8064C69.7412 62.7838 69.7283 62.7325 69.7309 62.7058C69.7296 62.7099 69.7271 62.7325 69.7142 62.7674Z" fill="#315597"/>
<path d="M132.47 59.1485C121.184 60.7566 117.262 59.2588 117.112 58.5314C117.105 58.5049 117.016 55.4114 135.644 49.584C146.002 46.3372 148.817 44.2245 148.446 42.6961C147.317 38.0334 121.476 40.1236 109.834 42.8187C100.208 45.0418 97.0964 43.2866 92.7915 40.8613C88.2869 38.3215 82.6805 35.1605 67.9626 34.9358C50.18 34.6763 43.7791 38.2663 35.6776 42.8064C30.4651 45.7344 24.5606 49.0466 14.3818 52.0298C9.60845 53.4294 5.80386 54.2671 2.76579 54.7146L2.52759 56.4514C5.96887 55.9794 10.0556 55.0599 14.801 53.6685C25.1222 50.6485 31.0879 47.2935 36.3616 44.3348C44.2994 39.8825 50.5659 36.3681 68.0172 36.6215C82.3971 36.8401 87.8345 39.9009 92.2033 42.3712C96.604 44.8497 100.076 46.8092 110.184 44.4717C125.065 41.0247 143.945 41.18 145.294 43.3193C145.306 43.2948 145.312 43.2764 145.314 43.2662C145.306 43.2825 145.312 43.3356 145.326 43.354C145.318 43.3438 145.304 43.3316 145.294 43.3193C145.157 43.6462 144.057 45.1787 135.203 47.9575C121.635 52.1973 112.071 57.1767 112.695 60.1701C113.496 64.0156 127.864 61.5126 132.716 60.8219C141.587 59.5449 154.534 59.2466 168.232 58.9237C178.234 58.6826 188.458 58.4395 197.135 57.7897L197.514 56.0652C188.76 56.7395 178.333 56.9908 168.131 57.234C154.395 57.5609 141.414 57.8674 132.47 59.1485Z" fill="#315597"/>
<path d="M145.314 43.266C145.312 43.2762 145.305 43.2965 145.295 43.3188C145.303 43.331 145.318 43.3431 145.326 43.3533C145.312 43.335 145.305 43.2843 145.314 43.266Z" fill="#315597"/>
<path d="M163.26 52.0917C158.286 52.6822 153.383 53.6078 149.057 54.4292C141.943 55.7818 135.22 57.0466 133.591 55.5346C133.39 55.3507 133.297 55.1341 133.278 54.8256C133.157 52.5555 139.208 51.3438 144.076 50.3794C149.803 49.227 159.582 48.706 160.57 45.7351C160.916 44.6869 160.712 43.5426 159.961 42.3126C154.372 33.2201 120.357 33.3692 111.321 37.9318C104.805 41.2154 102.272 40.016 93.8939 36.0561C90.9716 34.6687 85.8243 29.9753 81.1188 28.0404C63.4014 20.7622 46.2522 30.3493 33.722 37.1799C26.5999 41.0601 20.9922 43.0809 15.0544 45.2283C11.5732 46.4849 7.97623 47.7886 4.07718 49.4906C3.86426 49.5846 3.65933 49.6663 3.45174 49.7501L3.18958 51.6544C3.65933 51.4767 4.14371 51.2866 4.64673 51.066C8.5072 49.3864 12.0895 48.0807 15.5508 46.8364C21.2703 44.7686 27.1814 42.6354 34.3927 38.7062C46.686 32.0104 64.9531 25.5169 82.1901 32.603C86.8729 34.5318 90.4899 36.242 93.3962 37.6131C101.757 41.5627 104.883 43.0461 111.951 39.4745C121.155 34.8404 149.694 35.0181 154.417 42.6967C155.083 43.7797 154.896 44.3273 154.836 44.5173C154.13 46.6423 148.624 47.7436 143.761 48.7101C137.249 50.0096 131.624 51.1375 131.829 54.844C131.869 55.6449 132.174 56.3274 132.706 56.8198C134.871 58.8385 140.949 57.6902 149.362 56.0944C153.664 55.2751 158.544 54.3515 163.477 53.7631C169.828 53.0091 176.99 53.8877 183.921 54.7377C188.742 55.3282 193.348 55.9351 197.532 55.9923L197.916 54.231C193.646 54.2412 188.893 53.6609 184.003 53.0622C177.005 52.2 169.759 51.3152 163.26 52.0917Z" fill="#315597"/>
</g>
</svg>