<svg width="757" height="359" viewBox="0 0 757 359" fill="none" xmlns="http://www.w3.org/2000/svg">
<g filter="url(#filter0_d_3557_12164)">
<path d="M17.3979 107.958L24.8139 105.716L18.0019 106.128L17.3979 107.958Z" fill="#32428B"/>
<path d="M178.25 332.79L161.781 332.738C157.129 335.971 152.434 340.208 147.623 345.103L174.166 345.209L209.115 338.782C203.359 335.272 197.844 332.29 192.812 330.114L178.25 332.79Z" fill="#32428B"/>
<path d="M460.207 291.739L519.249 280.524L555.142 279.373C540.871 277.032 525.899 275.844 510.516 276.507C490.555 277.367 474.014 283.259 460.207 291.739Z" fill="#32428B"/>
<path d="M59.3602 332.343L26.9605 312.891L31.6898 210.426L19.0377 153.987L17.341 108.111L13.2583 120.385L14.9572 166.397L27.6135 222.829L22.8807 325.309L55.2763 344.769L147.622 345.105C152.433 340.209 157.132 335.973 161.779 332.732L59.3602 332.343Z" fill="#32428B"/>
<path d="M720.86 259.973L721.794 248.917L720.191 261.831L523.326 268.088L321.596 306.429L192.815 330.112C197.848 332.295 203.356 335.27 209.112 338.772L317.521 318.847L460.206 291.737C474.018 283.264 490.56 277.372 510.516 276.512C525.898 275.841 540.87 277.038 555.142 279.378L716.124 274.226L720.86 259.973Z" fill="#32428B"/>
<path d="M175.3 326.469C170.804 327.345 166.318 329.564 161.78 332.734L178.251 332.793L192.818 330.109C185.814 327.08 179.728 325.583 175.3 326.469Z" fill="#32428B"/>
<path d="M523.329 268.088L720.189 261.832L721.791 248.918L727.255 183.947L698.28 28.2562L651.108 39.2565L539.403 54.5278L437.459 55.5319L384.897 82.6432L296.601 93.5896L142.765 98.4227L24.8171 105.715L17.401 107.958L17.3427 108.116L19.034 153.984L31.6909 210.422L26.9622 312.895L59.3613 332.339L161.78 332.729C166.318 329.559 170.808 327.348 175.3 326.472C179.728 325.586 185.813 327.076 192.817 330.112L321.598 306.422L523.329 268.088Z" fill="#32428B"/>
<path d="M243.4 77.7356L300.687 81.1725L324.171 76.4901L301.337 79.3228L243.4 77.7356Z" fill="#315597"/>
<path d="M655.844 24.9983L544.149 40.2763L444.868 46.0955L444.753 46.1512L543.489 42.1268L655.19 26.8635L702.371 15.8548L731.336 171.546L720.427 259.982L720.862 259.975L731.996 169.704L703.026 14.0047L655.844 24.9983Z" fill="#315597"/>
<path d="M18.062 107.751L26.7774 105.13L18.003 106.123L18.062 107.751Z" fill="#315597"/>
<path d="M175.3 326.469C171.737 327.166 168.176 328.717 164.593 330.896L178.916 330.943L189.917 328.933C184.138 326.707 179.11 325.698 175.3 326.469Z" fill="#315597"/>
<path d="M523.994 266.254L720.422 259.982L731.331 171.546L702.366 15.8541L655.19 26.8624L543.484 42.1261L444.748 46.1505L389.648 68.3902L324.174 76.4897L300.686 81.1724L243.398 77.7355L129.964 74.6329L85.1761 98.3792L26.779 105.128L18.0587 107.75L19.691 152.158L32.3609 208.58L27.6294 311.076L60.0332 330.52L164.592 330.893C168.176 328.714 171.736 327.163 175.3 326.473C179.109 325.694 184.137 326.711 189.916 328.929L322.263 304.58L523.994 266.254Z" fill="#2A4474"/>
<path d="M488.593 252.437C456.256 260.143 442.945 258.322 438.431 257.048C441.683 252.867 453.79 241.893 498.881 222.837C535.471 207.377 544.733 198.709 544.481 191.511C544.448 190.629 544.284 189.78 544.025 188.948C536.47 165.81 432.714 188.791 402.244 198.93C369.522 209.836 358.231 204.491 342.63 197.068C325.443 188.927 304.037 178.761 250.678 182.526C186.336 187.078 164.342 202.53 136.515 222.127C118.943 234.465 99.0308 248.494 63.8562 262.58C49.8543 268.192 38.2916 271.861 28.7469 274.204L28.0682 288.885C39.2326 286.098 52.4047 281.588 68.1866 275.281C104.384 260.77 124.782 246.425 142.797 233.735C169.428 214.99 190.468 200.2 252.23 195.855C302.994 192.276 323.044 201.773 339.16 209.388C356.236 217.523 369.707 223.924 406.066 211.789C454.089 195.769 509.851 191.523 524.65 194.428C521.061 197.264 512.889 202.411 494.377 210.236C475.785 218.076 415.167 245.226 415.828 264.333L416.198 266.736C420.128 280.119 446.128 276.662 486.791 266.705L491.611 265.533C522.81 258.124 568.878 252.997 617.656 247.567C654.523 243.485 692.177 239.297 723.631 233.965L725.353 220.041C693.396 225.66 654.132 230.01 615.787 234.288C566.669 239.724 520.296 244.932 488.593 252.437Z" fill="#32428B"/>
<path d="M607.905 119.193C574.826 130.519 553.245 124.818 551.77 120.778C551.808 119.05 556.814 110.81 579.375 100.43C607.796 87.2694 628.185 63.1632 628.734 49.752C629.002 42.5776 626.541 36.0583 621.904 31.406L560.968 39.7245C558.628 41.0407 556.333 42.4294 554.13 43.833C519.832 65.911 486.497 67.0549 447.891 68.417C421.878 69.3412 395.037 70.2682 364.668 77.5672C287.846 95.9876 258.496 99.0468 194.243 103.179C148.408 106.134 134.047 111.579 102.59 123.597C88.2537 129.054 70.3065 135.426 44.3001 144.417C34.7501 147.699 26.38 150.215 18.965 152.137L19.0335 153.985L22.7309 170.457C29.8483 168.973 37.8394 166.841 46.8238 163.89C63.2915 158.478 77.3082 151.483 88.5775 145.802L107.04 137.18C137.54 125.565 151.46 120.28 195.819 117.399L235.622 115.346C276.025 113.6 307.949 112.204 367.918 97.8553L379.201 95.1035C403.856 89.1142 427.118 83.4206 449.168 82.6628C487.594 81.3163 523.856 80.0572 560.463 56.4748C583.112 41.8969 598.281 42.3129 604.379 47.114C606.445 48.7369 607.411 50.9279 607.29 53.8004C607.025 60.6159 599.776 75.2997 574.27 87.0865C539.371 103.202 534.903 121.622 537.734 129.987C544.581 150.026 587.67 141.256 612.051 132.916C652.904 118.943 694.433 114.352 720.657 114.211L719.223 106.428C692.376 104.287 650.602 104.595 607.905 119.193Z" fill="#32428B"/>
<path d="M580.578 37.0486L613.448 32.5713C605.442 30.1405 593.242 32.2617 580.578 37.0486Z" fill="#315597"/>
<path d="M609.126 125.14C576.326 136.366 551.436 132.026 548.743 124.138C547.426 120.321 552.149 110.694 578.012 98.754C605.321 86.1476 624.956 63.1826 625.429 51.3349C625.679 44.6276 623.13 38.8029 618.232 34.9667C616.886 33.9076 615.27 33.1235 613.445 32.5712L580.579 37.048C572.223 40.219 563.672 44.5287 555.99 49.4655C521.032 71.9515 487.332 73.1346 448.324 74.5085C422.496 75.4015 395.786 76.3478 365.658 83.5648C288.602 102.036 259.166 105.11 194.757 109.264C149.328 112.199 135.099 117.624 103.906 129.482C89.5563 134.949 71.7008 141.771 45.4858 150.345C35.8813 153.493 27.359 155.801 19.805 157.445L22.2477 168.316C29.2893 166.953 37.0863 164.96 45.7632 162.112C72.0694 153.485 91.4734 140.95 105.863 135.45C136.641 123.712 150.676 118.379 195.439 115.509C260.148 111.322 289.651 114.531 367.058 96.0065C396.761 88.8719 423.271 81.6617 448.882 80.7492C486.905 79.4068 522.785 78.1578 558.756 55.0273C582.666 39.6232 598.919 40.2204 606.157 45.9076C609.327 48.3892 610.91 52.0077 610.736 56.3806C610.36 65.9684 600.978 81.3019 575.783 92.9245C544.906 107.167 538.433 123.562 540.918 130.812C545.652 144.63 578.687 142.184 610.957 131.133C650.591 117.586 692.919 113.987 720.653 114.189L719.491 107.885C691.337 107.705 649.332 111.383 609.126 125.14Z" fill="#315597"/>
<path d="M602.305 211.383C584.573 215.141 567.33 220.125 552.1 224.492C531.091 230.533 504.943 238.055 499.951 234.013C500.158 229.195 525.539 221.617 535.087 218.755L551.647 214.472C576.229 208.519 592.494 203.864 594.767 193.891C595.6 190.217 595.576 184.434 590.717 177.664C566.51 143.805 443.012 154.981 411.187 175.288C390.159 188.711 381.844 185.475 350.895 173.507C346.678 171.841 340.598 168.077 334.142 164.123C324.292 158.035 313.12 151.131 302.498 147.651C236.415 125.977 177.97 165.99 135.312 195.254L133.507 196.494C109.47 212.931 85.1358 228.135 64.7188 237.873C53.5194 243.197 41.9647 248.735 29.6088 255.541L29.0206 268.383C31.6951 267.168 34.5108 265.757 37.4987 264.064C50.6845 256.714 63.0319 250.81 74.9573 245.125C94.8475 235.67 115.394 225.876 140.103 208.96C181.358 180.703 243.717 151.342 306.485 171.921L347.885 186.948C379.234 199.11 392.169 204.123 417.483 187.933C450.322 166.996 549.126 162.043 566.03 185.678C567.37 187.547 567.377 188.401 567.37 188.425C565.976 194.605 544.274 201.049 531.312 204.946C506.973 212.213 485.96 218.483 488.334 235.603C488.911 239.69 490.806 243.205 493.701 245.551C503.38 253.431 524.193 247.445 555.716 238.352C570.961 233.984 588.009 229.079 605.287 225.39C627.424 220.709 653.113 221.759 677.998 222.764C694.367 223.427 710.337 224.064 724.973 223.091L726.763 208.627C711.788 209.903 694.877 209.233 677.475 208.537C651.987 207.485 625.648 206.407 602.305 211.383Z" fill="#32428B"/>
<path d="M459.618 280.198L415.924 288.51C419.589 289.392 423.453 290.356 427.599 291.418C428.075 291.552 465.927 282.944 464.601 282.348C462.912 281.601 461.266 280.911 459.618 280.198Z" fill="#32428B"/>
<path d="M333.463 282.384L333.409 282.42C327.828 286.832 322.032 291.407 315.292 294.653C290.176 306.81 261.089 316.586 249.359 318.14C251.976 315.098 256.715 310.316 265.334 303.131L267.875 301.034C281.93 289.38 288.533 283.262 288.336 277.425L287.85 275.071C283.619 264.468 263.574 268.686 215.173 278.876L190.01 284.101C149.778 292.327 102.773 299.649 87.5763 297.748C61.0918 294.423 41.5054 298.403 27.343 304.708L26.9614 312.892L28.9477 314.087C45.8461 306.889 66.0875 301.838 82.0224 308.744C99.5562 316.351 146.933 306.669 192.761 297.258C214.445 292.822 252.525 285.026 265.07 285.752C263.725 287.265 261.778 289.196 258.4 292.021C238.652 308.463 234.726 315.67 234.939 321.414L235.171 322.325L321.414 306.458C328.578 302.802 334.484 298.163 340.19 293.641C357.865 279.676 366.633 276.5 415.924 288.503L459.619 280.199C378.5 245.474 341.564 275.969 333.463 282.384Z" fill="#32428B"/>
<path d="M243.303 323.889C243.307 323.828 243.311 323.705 243.369 323.486C243.253 323.419 243.124 323.362 243.04 323.285C243.161 323.404 243.311 323.705 243.303 323.889Z" fill="#315597"/>
<path d="M190.825 289.676C148.13 298.412 99.7664 308.317 84.3767 301.677C66.6287 293.974 45.1659 298.81 27.2739 306.154L26.959 312.89L27.2478 313.071C44.7505 305.547 66.0051 300.187 82.9189 307.496C99.6725 314.782 146.659 305.133 192.1 295.847C223.136 289.498 265.476 280.815 270.509 285.776C270.545 285.636 270.548 285.559 270.551 285.544C270.555 285.635 270.614 285.821 270.664 285.908C270.632 285.865 270.561 285.818 270.509 285.776C270.307 286.603 269.017 289.805 260.317 297.058C244.902 309.89 239.223 316.99 238.178 321.766L244.952 320.525C247.108 317.408 252.08 311.828 263.555 302.259C273.839 293.709 287.136 283.258 285.236 278.453C281.49 269.091 249.191 277.732 190.825 289.676Z" fill="#315597"/>
<path d="M335.324 287.449C329.595 291.973 323.692 296.65 316.659 300.05C307.436 304.517 296.952 308.97 286.829 312.821L315.221 307.6C317.506 306.541 318.873 305.888 318.971 305.849C326.446 302.243 332.547 297.42 338.478 292.733C355.095 279.561 368.728 272.729 412.742 289.111L452.812 281.494C396.071 263.005 352.697 273.701 335.324 287.449Z" fill="#315597"/>
<path d="M270.51 285.777C270.562 285.826 270.632 285.858 270.665 285.909C270.615 285.829 270.551 285.643 270.552 285.544C270.548 285.559 270.546 285.644 270.51 285.777Z" fill="#315597"/>
<path d="M493.664 253.004C453.838 262.447 439.341 258.103 438.571 255.453C438.539 255.356 437.231 243.914 501.948 216.563C537.935 201.33 547.319 192.629 545.503 187.077C539.977 170.137 448.279 185.857 407.531 199.44C373.833 210.652 362.151 205.104 345.987 197.439C329.074 189.412 308.023 179.421 255.344 183.127C191.699 187.65 169.969 202.935 142.464 222.266C124.769 234.73 104.724 248.831 69.2954 263.031C52.6814 269.693 39.3505 273.972 28.6344 276.569L28.3386 283.081C40.4881 280.27 54.8012 275.601 71.3179 268.978C107.244 254.598 127.494 240.318 145.397 227.722C172.346 208.766 193.62 193.803 256.078 189.36C307.548 185.736 327.962 195.407 344.368 203.219C360.891 211.051 373.928 217.245 409.311 205.461C461.396 188.091 528.931 182.844 534.439 190.36C534.474 190.265 534.487 190.195 534.493 190.156C534.47 190.219 534.506 190.415 534.564 190.478C534.532 190.443 534.476 190.402 534.439 190.36C534.053 191.614 530.61 197.635 499.854 210.669C452.712 230.573 420.12 251.985 423.309 262.891C427.402 276.901 477.958 263.19 495.079 259.133C526.378 251.662 572.559 246.563 621.419 241.141C657.093 237.162 693.559 233.107 724.364 228.022L725.168 221.511C694.095 226.711 656.903 230.859 620.517 234.907C571.525 240.355 525.223 245.495 493.664 253.004Z" fill="#315597"/>
<path d="M534.494 190.153C534.488 190.192 534.47 190.27 534.44 190.356C534.472 190.399 534.533 190.44 534.565 190.475C534.507 190.412 534.467 190.224 534.494 190.153Z" fill="#315597"/>
<path d="M601.46 217.343C583.869 221.066 566.642 226.01 551.441 230.39C526.446 237.599 502.82 244.362 496.514 239.258C495.737 238.639 495.335 237.864 495.17 236.726C494.011 228.347 515.251 221.988 532.342 216.911C552.445 210.872 587.23 205.924 589.814 194.604C590.715 190.611 589.616 186.432 586.54 182.103C563.654 150.115 442.119 161.159 411.282 180.862C389.04 195.046 379.604 191.38 348.39 179.283C337.501 175.04 317.601 159.226 300.163 153.503C234.506 131.983 176.276 172.817 133.673 202.008C109.458 218.591 90.06 227.813 69.5234 237.606C57.4823 243.339 45.0424 249.281 31.6502 256.795C30.9192 257.209 30.2129 257.575 29.4977 257.95L29.1699 265.091C30.7921 264.287 32.4626 263.433 34.19 262.46C47.4514 255.042 59.8383 249.096 71.812 243.415C91.5941 233.984 112.04 224.252 136.559 207.46C178.358 178.843 241.573 149.133 305.452 170.089C322.807 175.797 336.283 181.022 347.11 185.209C378.258 197.274 389.906 201.81 414.026 186.388C445.444 166.367 547.51 158.224 566.847 185.237C569.572 189.047 569.081 191.135 568.928 191.858C567.082 199.954 547.757 205.736 530.681 210.819C507.823 217.645 488.078 223.562 489.996 237.241C490.395 240.199 491.702 242.635 493.763 244.296C502.147 251.113 523.503 244.981 553.063 236.47C568.179 232.105 585.326 227.176 602.77 223.473C625.232 218.718 651.113 219.767 676.157 220.781C693.579 221.483 710.235 222.313 725.208 221.235L726.019 214.586C710.759 215.941 693.583 215.255 675.916 214.543C650.625 213.505 624.443 212.459 601.46 217.343Z" fill="#315597"/>
<path d="M695.719 125.018C695.154 125.404 693.922 126.111 690.693 127.215C685.454 128.905 680.158 130 674.424 130.635C671.46 130.966 669.746 131.012 668.709 130.924C668.182 129.544 667.457 127.617 667.457 127.617L666.146 124.134C666.123 123.976 666.001 123.216 666.001 123.216C666.001 123.216 665.972 122.785 665.989 122.641C667.598 122.18 670.361 121.575 675.352 121.032L690.52 120.495C693.395 120.683 694.757 120.894 695.665 121.019C695.806 122.723 695.85 124.051 695.719 125.018ZM752.322 126.124C751.679 120.67 746.032 104.3 746.032 104.3C740.965 89.6306 736.613 81.2382 728.327 78.8575C719.418 76.2646 706.538 76.1109 686.553 78.3093C662.369 80.9181 648.905 86.4028 644.03 95.5231C642.269 98.798 639.874 105.348 639.464 123.947C639.193 135.828 639.841 148.112 641.408 161.561C644.432 187.267 648.55 194.845 651.846 198.549C658.673 206.083 673.842 207.954 702.49 204.828L729.622 201.087L746.367 198.324L751.384 151.325L747.972 147.431C745.323 146.484 739.308 148.305 733.901 148.938C733.318 148.96 705.349 153.984 705.349 153.984C701.786 154.338 697.723 157.854 698.39 163.456C698.39 163.456 698.725 164.111 698.852 164.372C694.659 164.638 685.65 165.189 679.7 165.545C678.725 162.477 677.737 158.1 677.015 154.379C678.606 154.254 711.276 148.981 727.039 143.769C744.493 137.955 748.976 135.486 751.031 132.094C751.05 132.017 751.104 131.973 751.167 131.871C751.263 131.663 751.546 131.465 751.611 131.224C751.611 131.224 751.385 131.487 751.315 131.494C752.102 130.177 752.593 128.478 752.322 126.124Z" fill="#A8AC06"/>
<path d="M708.386 122.382L708.378 122.243C707.862 124.47 704.41 126.678 698.259 128.741C692.576 130.559 686.609 131.823 680.309 132.527C673.572 133.279 670.065 132.217 667.998 131.474C661.731 128.983 662.72 113.979 663.178 112.823C664.086 110.568 669.52 108.87 679.483 107.805C685.387 107.143 690.84 107.027 695.903 107.265C701.425 107.551 707.964 108.645 708.472 112.922C708.952 117.061 709.185 119.041 708.386 122.382ZM741.331 101.592C736.594 88.0326 733.165 82.3546 728.879 81.0977C720.745 78.7473 709.936 78.353 692.449 80.2491C671.681 82.5072 659.607 86.9169 656.183 93.3014C653.992 97.4151 652.754 105.868 652.432 118.451C652.18 130.26 652.859 142.356 654.334 155.035C656.443 172.914 659.386 183.893 662.967 187.989C667.62 193.061 682.136 194.24 706.596 191.611C714.401 190.745 723.289 189.473 733.361 187.892C737.01 187.321 740.51 186.667 744.149 186.134L747.831 150.87C746.418 150.396 711.419 155.623 711.505 156.355C711.58 156.809 712.994 158.544 713.618 160.205C714.242 161.683 714.381 163.709 714.446 164.168C714.538 164.939 714.404 165.268 713.972 165.305C712.421 165.655 710.485 165.864 708.268 166.112C701.114 166.888 691.507 167.441 679.519 167.83C676.556 163.979 673.713 148.423 673.235 144.629C673.17 143.695 673.054 142.758 673.072 141.702C676.761 141.6 680.752 141.319 684.855 140.877C699.237 139.32 714.13 135.973 729.403 130.925C743.258 126.314 747.841 124.054 747.234 122.705C747.403 122.869 747.375 122.711 747.273 121.922C746.596 116.109 744.927 112.326 741.331 101.592Z" fill="#FFF64D"/>
<path d="M586.901 118.047C586.901 118.047 585.783 117.72 584.604 117.405C583.168 114.414 581.587 110.246 580.308 103.045C577.876 89.3933 578.906 84.5848 579.432 83.1012C580.267 82.6518 582.043 82.0002 585.297 81.3029C585.644 84.6098 586.655 92.6988 588.102 100.707C589.167 106.862 590.484 112.781 591.856 116.061C591.856 116.047 592.278 117.218 592.812 118.694C590.798 118.554 588.778 118.376 586.901 118.047ZM640.833 119.579C640.462 117.985 640.076 116.157 639.751 114.111C637.373 100.808 635.162 79.5692 635.372 74.4903C635.766 61.5704 635.315 52.1409 633.992 44.7826L633.123 39.5732L627.666 38.5617C619.781 37.0598 608.269 37.8987 591.484 41.1084C588.943 41.522 584.867 43.7092 584.381 50.9139C581.212 51.3409 577.032 51.7077 570.539 51.8789C558.893 52.2794 552.417 52.7429 548.714 53.3442C534.183 55.7243 529.898 62.7889 528.925 68.3109C524.578 91.9192 523.43 108.644 525.363 119.424C527.407 130.944 533.145 140.261 542.442 147.139C547.613 151.044 556.713 151.939 573.881 150.208C573.881 150.208 589.728 148.007 599.432 146.597C601.392 157.927 601.784 166.931 600.964 174.033C597.768 175.261 592.153 176.781 587.251 177.743C590.578 166.521 590.689 165.8 590.324 163.798L589.202 157.562L582.066 157.493L555.718 156.723C546.685 156.339 542.39 156.286 540.308 161.28C538.189 165.436 537.816 171.074 539.223 179.088C540.383 185.677 542.746 193.479 546.54 203.797C552.044 217.973 553.498 221.793 560.548 220.661C564.263 219.915 572.526 217.898 603.238 207.99C642.595 195.352 645.392 192.333 647.023 188.86C649.992 184.231 651.799 175.574 647.097 148.963L640.833 119.579Z" fill="#A8AC06"/>
<path d="M608.163 120.188C601.565 120.827 595.569 120.686 589.975 119.615C587.617 119.128 585.386 118.479 583.466 117.829C580.795 113.248 578.601 106.757 577.107 98.4435C574.73 84.978 574.952 76.2392 577.837 72.154C580.775 69.4201 586.879 67.7223 596.275 66.7461C597.017 66.6248 597.411 68.8611 597.75 73.2138C598.001 76.5179 601.109 100.505 603.938 107.314C606.65 114.033 608.118 118.041 608.356 119.321C608.458 119.851 608.293 120.152 608.163 120.188ZM637.731 115.369C635.025 103.7 631.817 75.254 632.063 68.3326C632.394 56.6946 631.724 48.5695 630.465 41.3634C623.514 40.0432 612.774 39.7913 597.751 42.6663C597.019 42.7969 596.772 51.5457 596 51.6532C591.722 52.6361 584.809 53.3486 575.402 53.6248C565.148 53.9718 558.158 54.4126 554.701 54.9751C546.719 56.2715 542.235 59.158 541.437 63.7362C537.327 86.1836 536.162 102.372 537.925 112.243C539.621 121.795 544.249 129.481 551.997 135.188C555.273 137.67 563.88 138.097 577.688 136.739C584.365 136.046 595.16 134.589 610.116 132.128C610.612 132.05 611.117 134.279 611.927 138.828C614.412 152.862 614.878 163.917 613.361 172.3C612.889 174.948 596.867 178.823 590.664 179.851C588.479 180.204 585.922 180.503 583.427 180.465C580.891 180.61 579.851 180.637 580.262 180.575C580.717 180.494 581.905 176.996 584.122 170.095C586.177 163.169 587.207 159.569 587.143 159.158C586.692 159.225 575.406 159.076 570.43 158.898C558.489 158.456 552.31 158.007 552.205 158.277C550.744 160.985 550.63 165.544 551.781 171.932C552.93 178.435 555.352 186.207 558.743 195.329C561.838 203.259 563.421 207.297 563.857 207.197C569.055 206.199 582.839 202.085 605.378 194.882C630.417 186.807 643.611 181.625 644.581 179.465C647.597 175.425 647.292 163.619 643.861 144.334C642.538 136.74 640.493 127.062 637.731 115.369Z" fill="#FFF64D"/>
<path d="M534.935 139.118C530.159 119.684 524.294 109.39 515.86 105.727C512.554 104.162 506.243 102.478 488.071 103.588C478.495 104.203 470.268 105.327 462.713 106.826C462.339 104.862 458.519 90.214 458.519 90.214L450.566 93.5914L416.724 107.868L418.716 115.26L420.253 119.937C422.681 129.853 424.463 148.707 425.555 176.018L427.354 222.667C427.354 222.667 425.903 230.329 437.628 227.514C445.457 225.621 464.126 220.194 475.688 216.764C481.884 215.391 482.751 203.885 482.751 203.885L480.307 194.843L473.895 164.926C472.593 157.562 471.977 153.201 471.684 150.517C475.707 149.343 478.121 148.663 482.819 147.326C484.879 153.441 487.309 161.576 489.904 171.066L494.107 188.589L496.907 199.484C499.773 208.023 509.381 205.882 514.004 204.81C523.697 202.624 530.465 200.533 535.195 198.298C541.265 195.512 541.388 188.982 540.256 173.576C539.278 161.103 537.479 149.524 534.935 139.118Z" fill="#A8AC06"/>
<path d="M531.878 137.41C527.872 121.121 522.872 112.234 516.44 108.864C512.678 107.145 504.705 104.806 492.657 105.512C480.527 106.307 461.193 110.045 461.151 110.411C460.585 106.255 456.668 95.3255 456.957 94.504C445.907 99.5729 437.781 103.299 430.347 106.037C431.053 107.562 431.659 109.588 432.254 112.007C434.858 122.412 436.708 141.611 437.813 169.526C439.091 199.25 439.492 214.115 439.492 214.115C455.103 209.318 468.708 205.504 480.227 202.426C479.695 201.511 478.569 197.497 476.845 190.411C474.295 180.172 472.142 170.16 470.319 160.093C468.164 148.066 467.339 140.942 468.05 138.673L492.111 131.687C494.562 137.708 497.874 148.06 501.901 162.991C505.597 176.755 507.192 186.304 508.764 190.942C509.127 191.966 509.701 192.726 516.417 191.226C525.064 189.273 531.614 187.326 535.895 185.302C537.215 184.708 537.363 178.854 536.588 167.949C535.685 156.428 534.485 147.94 531.878 137.41Z" fill="#FFF64D"/>
<path d="M238.309 189.867C235.739 178.483 230.823 164.52 222.234 153.339C213.184 141.473 195.386 133.251 170.868 127.944L135.98 121.12L114.55 117.056C100.174 114.138 97.77 113.877 94.5658 109.782C91.3668 105.691 94.1106 98.0357 107.712 95.2388C123.946 91.8729 147.669 93.8016 178.416 100.967C182.18 101.828 186.042 102.787 190.021 103.82L203.473 84.7188L191.952 13.7527L182.094 13.1225C170.237 12.3427 158.37 12.3257 146.528 12.951C127.588 13.933 108.724 16.5633 90.1164 20.4063C69.9323 24.585 54.1431 30.2101 43.22 37.2093L42.5113 37.6944L41.8339 38.2315C29.6743 48.5712 16.7238 68.0836 24.3775 102.047C27.3917 115.441 32.8927 128.025 40.6746 139.577C41.9672 141.497 43.2995 143.388 44.7116 145.247C53.689 156.75 69.6462 164.978 92.2895 169.831C92.2895 169.831 106.999 173.04 122.087 175.363C137.17 177.69 160.359 176.028 160.532 184.202C160.618 188.282 151.891 191.882 133.382 195.637C115.522 199.383 94.5526 200.446 71.0807 198.953L53.4274 216.019L54.937 223.9L68.2607 293.356L120.559 280.453L188.118 263.773C205.332 259.638 219.224 250.633 229.227 236.972C239.063 223.55 242.212 207.248 238.309 189.867Z" fill="#A8AC06"/>
<path d="M295.592 96.8124C291.215 98.8093 286.715 100.478 282.017 101.331C278.069 102.023 275.115 101.88 273.565 101.112C272.977 99.9299 271.688 97.0219 271.688 97.0219L268.409 85.3358C267.573 81.0129 267.638 79.3472 267.687 78.55C269.604 77.4254 273.639 75.6659 281.853 74.168C287.469 73.2143 290.265 73.4524 291.658 73.7202C292.231 75.1134 293.111 77.9677 294.273 83.9624C295.705 91.4574 295.716 95.0591 295.592 96.8124ZM314.733 43.1966C275.909 35.2427 211.276 56.1773 208.826 59.1646L199.587 71.1593L212.493 129.458C220.629 171.684 222.333 187.073 222.309 192.575L222.326 202.618L264.85 196.133L275.356 179.421C275.087 179.777 258.511 134.3 258.511 134.3C271.124 134.656 281.467 134.672 296.233 132.047C311.826 129.27 322.771 126.131 329.632 122.475C336.023 119.169 336.627 111.367 336.734 104.329C336.689 96.9721 336.19 89.3326 334.708 81.5557C330.664 60.629 324.757 45.2479 314.733 43.1966Z" fill="#A8AC06"/>
<path d="M511.125 126.236C510.101 125.596 509.074 125.306 508.034 125.361C504.404 125.582 501.939 130.248 502.645 135.571C503.136 139.282 505.026 142.561 507.542 144.115C508.566 144.745 509.598 145.03 510.622 144.98C514.253 144.778 516.728 140.097 516.022 134.779C515.526 131.073 513.657 127.803 511.125 126.236Z" fill="#A8AC06"/>
<path d="M452.759 113.264C452.265 112.963 451.764 112.83 451.272 112.859C449.519 112.954 448.31 115.205 448.666 117.782C448.905 119.571 449.809 121.159 451.031 121.91C451.526 122.216 452.037 122.363 452.523 122.329C454.271 122.229 455.46 119.974 455.129 117.41C454.895 115.602 453.986 114.025 452.759 113.264Z" fill="#A8AC06"/>
<path d="M458.022 174.557C456.677 173.707 455.296 173.324 453.93 173.401C449.105 173.695 445.822 179.889 446.766 186.948C447.419 191.884 449.91 196.253 453.267 198.311C454.627 199.17 456.003 199.544 457.364 199.462C462.184 199.173 465.482 192.988 464.533 185.929C463.88 180.993 461.39 176.639 458.022 174.557Z" fill="#A8AC06"/>
<path d="M388.189 101.953C386.982 105.763 383.442 114.27 373.266 133.239C371.96 135.684 370.611 137.29 365.229 135.736C362.113 134.852 359.197 133.221 356.441 131.303C356.295 130.112 356.086 127.579 356.622 122.301C357.321 115.159 359.012 107.44 361.533 99.4773C363.338 93.7842 364.808 90.7554 365.832 89.0262C366.291 89.1172 366.872 89.2152 366.872 89.2152L378.386 93.5131C378.528 93.5388 385.61 96.0698 389.207 97.3508C389.176 98.2532 388.949 99.6154 388.189 101.953ZM429.47 79.9979C426.271 74.0128 377.511 47.2763 342.077 60.2007C335.135 63.1345 329.824 71.5687 324.703 87.5961C321.348 98.1855 318.461 111.192 316.124 126.187C314.036 140.116 313.086 150.285 313.288 157.245C313.52 163.168 317.231 168.644 324.806 174.032C331.05 178.5 338.16 181.826 346.598 184.247C363.256 189.026 377.39 188.083 388.624 181.514C396.728 176.742 404.716 168.117 413.038 155.12C420.5 143.542 426.395 131.047 430.479 118.088C436.346 99.5695 436.044 87.451 429.495 79.9782L429.47 79.9979Z" fill="#A8AC06"/>
<path d="M403.228 101.862C401.323 107.845 396.164 118.722 387.768 134.397C384.377 140.724 378.735 142.819 370.727 140.529C366.433 139.296 362.282 137.288 358.377 134.301C356.488 132.921 355.859 127.927 356.705 119.454C357.496 111.48 359.344 103.292 361.928 95.2081C364.401 87.3713 366.942 82.243 369.454 79.7724C370.331 78.9096 372.81 78.9146 376.801 80.053C379.219 80.7452 383.248 82.2281 389.09 84.5743C394.766 86.7034 398.83 88.1952 401.254 88.916C404.957 89.979 405.597 94.3348 403.228 101.862ZM395.168 66.3059C375.909 60.7717 362.63 59.0916 352.874 64.68C348.379 66.5931 343.949 74.1644 339.727 87.5012C336.386 98.0615 333.647 110.671 331.392 125.055C329.409 138.22 328.468 148.144 328.671 154.864C328.782 158.421 331.645 162.096 337.138 166.009C342.59 169.903 348.949 172.914 356.512 175.08C370.919 179.192 382.939 178.635 392.295 173.132C399.203 169.077 406.542 161.161 414.246 149.15C421.561 137.734 424.923 125.777 428.764 113.681C433.726 98.0023 433.875 87.7255 429.211 82.3614C425.694 78.7141 411.314 70.8653 395.168 66.3059Z" fill="#FFF64D"/>
<path d="M345.055 142.096C341.74 141.039 337.803 144.369 336.451 149.357C335.504 152.826 335.951 156.384 337.618 158.641C338.291 159.558 339.108 160.169 340.05 160.46C343.355 161.503 347.306 158.167 348.659 153.194C349.596 149.716 349.154 146.172 347.482 143.915C346.804 142.994 345.991 142.388 345.055 142.096Z" fill="#A8AC06"/>
<path d="M404.784 122.264C403.135 121.579 400.95 123.103 400.018 125.612C399.352 127.367 399.406 129.222 400.161 130.448C400.458 130.955 400.863 131.296 401.319 131.488C402.963 132.182 405.158 130.639 406.1 128.13C406.747 126.38 406.697 124.54 405.947 123.299C405.645 122.797 405.251 122.455 404.784 122.264Z" fill="#A8AC06"/>
<path d="M732.227 101.298C731.315 100.703 730.374 100.426 729.44 100.494C726.162 100.731 723.954 105.214 724.6 110.304C725.063 113.857 726.768 116.967 729.061 118.449C729.984 119.033 730.93 119.301 731.854 119.238C735.127 119.006 737.354 114.513 736.693 109.428C736.226 105.88 734.516 102.774 732.227 101.298Z" fill="#A8AC06"/>
<path d="M704.043 84.4411C703.493 84.0883 702.931 83.9228 702.379 83.9585C700.416 84.1008 699.101 86.7857 699.482 89.8183C699.768 91.9273 700.783 93.7954 702.144 94.6826C702.699 95.0353 703.261 95.2056 703.818 95.1555C705.766 95.0182 707.097 92.3378 706.705 89.3006C706.429 87.177 705.415 85.3281 704.043 84.4411Z" fill="#A8AC06"/>
<path d="M688.375 171.851C687.579 171.317 686.75 171.085 685.937 171.145C683.075 171.345 681.137 175.271 681.699 179.734C682.102 182.818 683.603 185.564 685.596 186.84C686.416 187.36 687.231 187.592 688.044 187.546C690.9 187.332 692.853 183.411 692.276 178.958C691.873 175.849 690.388 173.123 688.375 171.851Z" fill="#A8AC06"/>
<path d="M623.059 121.805C622.068 121.064 620.998 120.621 619.915 120.524C616.051 120.179 612.789 124.268 612.819 129.476C612.846 133.086 614.391 136.492 616.869 138.363C617.856 139.119 618.921 139.552 620.024 139.653C623.887 139.994 627.149 135.905 627.114 130.698C627.083 127.087 625.547 123.681 623.059 121.805Z" fill="#A8AC06"/>
<path d="M554.384 67.4036C551.094 67.2816 548.373 71.5022 548.411 76.6236C548.446 80.1959 549.778 83.4769 551.881 85.1925C552.725 85.8844 553.623 86.2538 554.554 86.2916C557.824 86.4093 560.58 82.1975 560.517 77.0671C560.471 73.4902 559.17 70.199 557.052 68.5029C556.218 67.7964 555.31 67.432 554.384 67.4036Z" fill="#A8AC06"/>
<path d="M633.258 154.741C631.351 154.657 629.744 157.122 629.768 160.134C629.787 162.215 630.567 164.141 631.8 165.136C632.286 165.543 632.818 165.767 633.367 165.784C635.269 165.849 636.876 163.383 636.852 160.377C636.823 158.291 636.063 156.374 634.825 155.379C634.339 154.962 633.812 154.748 633.258 154.741Z" fill="#A8AC06"/>
<path d="M232.921 182.789C230.698 173.009 225.64 163.092 218.209 153.34C211.468 144.409 197.159 136.851 175.016 132.112C156.592 128.032 137.844 124.996 118.873 121.197C100.245 117.385 90.1574 112.592 88.8035 106.596C88.5364 105.384 88.3255 104.208 88.1552 103.056C85.8918 87.3676 93.689 77.5905 111.965 73.7928C113.342 73.5142 114.77 73.2729 116.229 73.0597C136.423 70.0798 164.506 73.2638 200.313 82.6246L188.135 16.4784C173.221 15.4805 158.349 15.4985 143.563 16.5123C128.823 17.5251 114.173 19.5289 99.6811 22.5269C80.7288 26.4636 66.6474 31.5345 57.1563 37.5393C43.0556 49.522 38.4938 67.0005 43.6248 89.8802C46.1444 101.05 50.5321 111.403 56.5818 120.94C58.205 123.509 59.9224 126.015 61.7844 128.465C68.5251 137.152 81.947 144.138 101.964 148.419C118.539 151.9 135.415 154.391 152.216 157.579C168.984 160.907 177.871 165.74 179.008 171.961C181.144 183.743 169.095 192.44 142.964 197.839C122.604 202.055 98.955 203.103 72.1461 200.976L80.9786 247.135L85.1348 268.86L108.088 263.208L191.924 242.552C206.365 239.042 217.787 231.38 225.805 220.389C233.687 209.661 236.123 196.952 232.921 182.789Z" fill="#FFF64D"/>
<path d="M183.794 70.4213C182.858 69.6882 181.849 69.2875 180.818 69.2566C177.2 69.0984 174.221 73.4876 174.335 78.8471C174.414 82.5959 175.935 86.0456 178.271 87.8521C179.222 88.5802 180.221 88.9715 181.252 89.0263C184.881 89.1748 187.849 84.7714 187.735 79.4119C187.656 75.6726 186.145 72.2179 183.794 70.4213Z" fill="#A8AC06"/>
<path d="M75.3591 115.306C74.4588 114.812 73.5497 114.62 72.6824 114.739C69.6034 115.116 67.795 119.222 68.73 123.72C69.3746 126.847 71.1861 129.528 73.4336 130.723C74.3438 131.202 75.2478 131.394 76.1151 131.275C79.1791 130.903 81.0072 126.778 80.0722 122.28C79.4229 119.167 77.6163 116.476 75.3591 115.306Z" fill="#A8AC06"/>
<path d="M213.224 178.058C211.832 177.171 210.411 176.76 208.994 176.828C204.002 177.059 200.542 183.459 201.442 190.792C202.073 195.887 204.598 200.428 208.073 202.594C209.464 203.491 210.901 203.916 212.302 203.833C217.295 203.593 220.765 197.208 219.855 189.865C219.214 184.761 216.694 180.224 213.224 178.058Z" fill="#A8AC06"/>
<path d="M72.4648 78.5718C72.8563 78.7745 73.2318 78.9344 73.6121 79.0894C75.5146 79.8885 77.3971 80.2179 79.2122 79.9779C86.9653 79.0221 91.5172 68.6565 89.1609 57.3629C87.5307 49.4882 82.9781 42.7451 77.3131 39.7427C75.0248 38.5298 72.7672 38.0597 70.5707 38.3317C65.3704 38.984 61.6274 43.8645 60.4185 50.4037C59.8233 53.6299 59.8394 57.2365 60.607 60.9518C62.2524 68.831 66.8054 75.5933 72.4648 78.5718Z" fill="#A8AC06"/>
<path d="M104.225 222.494C102.817 221.521 101.349 221.063 99.8914 221.094C94.68 221.214 90.9018 227.75 91.6217 235.38C92.1214 240.688 94.6264 245.479 98.1556 247.832C99.5837 248.789 101.042 249.262 102.509 249.231C107.69 249.102 111.473 242.561 110.764 234.936C110.253 229.599 107.769 224.836 104.225 222.494Z" fill="#A8AC06"/>
<path d="M197.167 216.72C196.45 216.323 195.718 216.18 195.006 216.272C192.533 216.574 191.075 219.89 191.825 223.5C192.357 226.021 193.805 228.178 195.615 229.127C196.342 229.519 197.069 229.667 197.782 229.585C200.254 229.278 201.717 225.971 200.962 222.357C200.435 219.826 198.992 217.675 197.167 216.72Z" fill="#A8AC06"/>
<path d="M306.724 97.0161C301.177 99.8148 295.136 101.852 288.65 103.001C281.105 104.317 275.861 103.594 272.427 101.01C271.415 100.211 270.098 97.6153 268.453 93.3335C266.824 89.037 265.643 84.7838 264.784 80.3319C263.349 72.8849 263.622 68.2315 265.736 66.4504C269.288 63.4686 275.914 61.0306 285.266 59.3599C293.44 57.9155 299.115 58.3036 302.651 60.4781C304.358 61.5786 306.156 66.6964 307.934 75.8484C310.327 88.3879 309.909 95.4809 306.724 97.0161ZM316.136 46.2541C306.416 42.1724 251.14 44.1263 213.635 60.6534C217.089 76.0673 226.151 120.72 226.144 121.354C226.165 121.401 237.44 185.969 237.09 186.312L272.926 180.253C272.926 180.253 254.72 129.985 251.684 120.059C266.302 121.787 280.692 120.609 299.687 117.257C314.343 114.649 324.678 111.691 330.464 108.561C332.121 107.71 332.909 104.101 332.993 97.6485C332.918 91.2614 332.196 84.2598 330.726 76.5498C327.338 59.0385 322.396 48.8792 316.136 46.2541Z" fill="#FFF64D"/>
<path d="M319.918 64.0409C319.196 63.6534 318.469 63.5105 317.777 63.6019C315.316 63.9419 313.907 67.2379 314.692 70.8182C315.238 73.3054 316.716 75.4515 318.515 76.3677C319.252 76.7406 319.974 76.8787 320.671 76.792C323.127 76.4474 324.531 73.1515 323.741 69.5808C323.195 67.0937 321.727 64.9522 319.918 64.0409Z" fill="#A8AC06"/>
<path d="M245.765 163.598C244.966 163.169 244.164 163.013 243.396 163.101C240.679 163.475 239.118 167.139 239.991 171.092C240.597 173.846 242.226 176.195 244.229 177.222C245.037 177.632 245.84 177.802 246.592 177.695C249.324 177.325 250.875 173.676 250.002 169.724C249.401 166.959 247.772 164.605 245.765 163.598Z" fill="#A8AC06"/>
<path d="M249.618 81.6729C248.435 80.897 247.184 80.4536 245.914 80.3414C241.411 79.9381 237.861 83.9461 238.151 89.0957C238.358 92.6932 240.326 96.1142 243.283 98.0083C244.47 98.7792 245.727 99.237 247.001 99.3442C251.485 99.7527 255.045 95.7445 254.739 90.5808C254.532 86.9786 252.574 83.5718 249.618 81.6729Z" fill="#A8AC06"/>
</g>
<g filter="url(#filter1_d_3557_12164)">
<path d="M236.188 263.923L232.479 282.333L243.223 301.239L225.489 304.698L218.318 285.463L209.407 286.284L210.876 302.429L201.927 303.253L196.869 247.648L207.584 246.662C224.279 245.125 232.952 247.94 233.604 255.107L236.188 263.923ZM213.452 251.562L215.734 276.647L228.255 275.495L226.46 255.765L220.596 250.904L213.452 251.562Z" fill="#FFCEF3"/>
<path d="M272.156 242.544L280.94 239.909L288.084 239.251L292.816 291.272C293.087 294.252 286.75 297.245 273.803 300.25C258.312 301.676 250.077 297.007 249.098 286.243L245.673 248.595L247.64 250.202L258.356 249.215L261.784 286.902C261.966 288.906 265.7 290.362 272.987 291.271L276.071 285.586L272.156 242.544Z" fill="#FFCEF3"/>
<path d="M330.113 264.486L328.651 248.417L325.749 236.094L341.765 234.62L345.028 290.079L340.015 294.154L332.872 294.812C330.823 295.001 323.651 281.867 311.356 255.41L309.589 255.573L313.322 296.612L302.645 297.595L300.391 252.806L296.819 253.135L295.522 238.877L309.733 237.569C311.628 237.394 317.832 246.421 328.346 264.648L330.113 264.486Z" fill="#FFCEF3"/>
<path d="M383.036 259.614L381.574 243.545L378.672 231.222L394.688 229.748L397.951 285.207L392.939 289.282L385.795 289.94C383.746 290.129 376.574 276.995 364.279 250.538L362.512 250.701L366.245 291.74L355.568 292.723L353.314 247.934L349.742 248.263L348.445 234.005L362.656 232.697C364.551 232.522 370.755 241.549 381.269 259.776L383.036 259.614Z" fill="#FFCEF3"/>
<path d="M440.055 225.26L440.728 232.659L411.231 235.375L411.904 242.773L430.34 241.076L433.024 250.154L418.276 251.512L419.622 266.309L423.645 269.669L442.081 267.972L443.595 284.619L408.567 287.844L407.894 280.445L401.508 230.674L403.184 228.655L440.055 225.26Z" fill="#FFCEF3"/>
<path d="M486.131 240.913L482.422 259.323L493.166 278.229L475.433 281.688L468.261 262.453L459.35 263.274L460.819 279.42L451.87 280.243L446.812 224.638L457.528 223.652C474.222 222.115 482.896 224.93 483.548 232.098L486.131 240.913ZM463.395 228.552L465.677 253.638L478.198 252.485L476.404 232.755L470.539 227.894L463.395 228.552Z" fill="#FFCEF3"/>
<path d="M522.177 219.565L544.131 215.679L557.036 214.491L558.719 232.988L551.345 233.666L550.672 226.268L541.454 227.116L538.103 231.155L541.131 264.449L545.155 267.809L556.217 266.79L555.375 257.542L549.845 258.051L548.835 246.953L565.427 245.426L568.953 263.753L569.795 273.001L547.672 275.038L525.212 273.375L522.513 223.265L522.177 219.565Z" fill="white"/>
<path d="M575.085 212.83L608.269 209.775L622.871 268.115L606.279 269.642L603.258 256.864L588.509 258.222L589.687 271.17L576.782 272.358L576.614 270.508L583.805 226.948L576.431 227.627L575.085 212.83ZM594.53 222.23L594.706 244.596L594.874 246.445L600.405 245.936L609.454 243.238L601.905 221.551L594.53 222.23Z" fill="white"/>
<path d="M644.374 208.627L654.553 239.203C657.472 238.934 659.528 227.619 660.721 205.257L675.393 203.906L675.726 207.567L682.592 262.617L667.921 263.967L667.255 236.207L663.567 236.547C664.57 247.567 662.347 257.046 656.898 264.982L655.092 265.148L642.064 223.683L638.377 224.022L645.745 264.144L629.229 265.664L630.235 256.285L628.731 239.754L624.375 212.294L626.053 210.313L644.374 208.627Z" fill="white"/>
<path d="M722.872 199.224L723.545 206.623L694.048 209.338L694.721 216.737L713.157 215.04L715.842 224.118L701.093 225.476L702.439 240.273L706.463 243.633L724.899 241.936L726.413 258.583L691.385 261.807L690.712 254.409L684.326 204.638L686.001 202.619L722.872 199.224Z" fill="white"/>
</g>
<path d="M334.111 285.163C333.34 284.839 332.535 284.669 331.724 284.668C328.879 284.665 326.82 286.779 327.211 289.292C327.494 291.048 328.867 292.631 330.804 293.439C331.583 293.759 332.393 293.924 333.195 293.927C336.036 293.932 338.112 291.815 337.708 289.303C337.421 287.55 336.043 285.969 334.111 285.163Z" fill="#DA2CAF"/>
<path d="M374.255 261.562C374.542 260.777 374.674 259.965 374.636 259.155C374.505 256.312 372.296 254.356 369.804 254.865C368.064 255.231 366.547 256.677 365.831 258.65C365.549 259.444 365.422 260.261 365.457 261.062C365.587 263.9 367.8 265.874 370.29 265.351C372.027 264.981 373.542 263.53 374.255 261.562Z" fill="#DA2CAF"/>
<path d="M409.761 241.281C409.957 240.746 410.047 240.192 410.021 239.639C409.931 237.7 408.425 236.366 406.725 236.713C405.538 236.963 404.504 237.949 404.016 239.295C403.823 239.836 403.736 240.393 403.76 240.94C403.849 242.876 405.358 244.222 407.056 243.866C408.242 243.613 409.275 242.624 409.761 241.281Z" fill="#DA2CAF"/>
<path d="M418.333 278.613C418.741 278.675 419.147 278.659 419.536 278.561C420.899 278.218 421.629 276.957 421.138 275.8C420.79 274.993 419.941 274.401 418.915 274.248C418.503 274.19 418.095 274.208 417.711 274.304C416.349 274.645 415.611 275.911 416.108 277.065C416.458 277.87 417.309 278.461 418.333 278.613Z" fill="#DA2CAF"/>
<path d="M305.282 249.035C305.69 249.097 306.096 249.081 306.485 248.983C307.848 248.64 308.579 247.379 308.087 246.222C307.739 245.416 306.89 244.823 305.864 244.67C305.452 244.612 305.044 244.63 304.66 244.726C303.299 245.067 302.56 246.333 303.058 247.487C303.407 248.292 304.259 248.883 305.282 249.035Z" fill="#DA2CAF"/>
<path d="M282.075 282.002C282.924 282.131 283.769 282.097 284.576 281.894C287.411 281.181 288.93 278.558 287.908 276.153C287.185 274.476 285.419 273.244 283.286 272.927C282.43 272.804 281.581 272.844 280.782 273.042C277.951 273.752 276.416 276.384 277.45 278.784C278.178 280.457 279.948 281.686 282.075 282.002Z" fill="#DA2CAF"/>
<path d="M245.373 259.128C244.899 259.844 244.574 260.625 244.419 261.443C243.875 264.315 245.617 266.796 248.229 266.879C250.055 266.927 251.915 265.842 253.099 264.04C253.57 263.315 253.891 262.528 254.046 261.72C254.592 258.852 252.849 256.353 250.236 256.284C248.412 256.24 246.553 257.33 245.373 259.128Z" fill="#DA2CAF"/>
<path d="M219.255 290.56C218.781 291.276 218.457 292.057 218.302 292.875C217.758 295.747 219.5 298.228 222.111 298.311C223.937 298.359 225.797 297.274 226.981 295.472C227.452 294.747 227.773 293.96 227.928 293.152C228.474 290.284 226.731 287.785 224.119 287.716C222.294 287.672 220.436 288.762 219.255 290.56Z" fill="#DA2CAF"/>
<path d="M201.058 273.139C200.755 273.596 200.548 274.095 200.449 274.617C200.101 276.452 201.214 278.036 202.882 278.089C204.048 278.12 205.236 277.427 205.993 276.276C206.293 275.813 206.498 275.311 206.598 274.794C206.946 272.963 205.833 271.366 204.164 271.322C202.999 271.294 201.812 271.99 201.058 273.139Z" fill="#DA2CAF"/>
<path d="M474.142 256.139C473.839 256.596 473.632 257.095 473.533 257.618C473.185 259.452 474.298 261.036 475.966 261.09C477.133 261.12 478.321 260.427 479.077 259.277C479.378 258.813 479.583 258.311 479.682 257.794C480.03 255.963 478.917 254.366 477.248 254.322C476.083 254.294 474.896 254.991 474.142 256.139Z" fill="#DA2CAF"/>
<path d="M456.892 231.978C456.301 231.158 455.577 230.475 454.741 229.964C451.805 228.167 448.347 229.051 447.167 231.892C446.352 233.883 446.772 236.383 448.262 238.438C448.865 239.259 449.597 239.941 450.423 240.449C453.352 242.245 456.831 241.368 457.997 238.52C458.805 236.529 458.38 234.028 456.892 231.978Z" fill="#DA2CAF"/>
<path d="M386.511 279.444C386.197 279.377 385.905 279.254 385.649 279.076C384.75 278.452 384.564 277.332 385.24 276.624C385.715 276.132 386.496 275.934 387.286 276.104C387.602 276.174 387.894 276.3 388.148 276.475C389.046 277.098 389.236 278.223 388.557 278.927C388.081 279.418 387.298 279.615 386.511 279.444Z" fill="#DA2CAF"/>
<defs>
<filter id="filter0_d_3557_12164" x="13.2583" y="12.5076" width="740.139" height="337.702" filterUnits="userSpaceOnUse" color-interpolation-filters="sRGB">
<feFlood flood-opacity="0" result="BackgroundImageFix"/>
<feColorMatrix in="SourceAlpha" type="matrix" values="0 0 0 0 0 0 0 0 0 0 0 0 0 0 0 0 0 0 127 0" result="hardAlpha"/>
<feOffset dx="1" dy="5"/>
<feComposite in2="hardAlpha" operator="out"/>
<feColorMatrix type="matrix" values="0 0 0 0 0.772005 0 0 0 0 0.760087 0 0 0 0 0.628988 0 0 0 1 0"/>
<feBlend mode="normal" in2="BackgroundImageFix" result="effect1_dropShadow_3557_12164"/>
<feBlend mode="normal" in="SourceGraphic" in2="effect1_dropShadow_3557_12164" result="shape"/>
</filter>
<filter id="filter1_d_3557_12164" x="192.869" y="199.224" width="533.544" height="109.474" filterUnits="userSpaceOnUse" color-interpolation-filters="sRGB">
<feFlood flood-opacity="0" result="BackgroundImageFix"/>
<feColorMatrix in="SourceAlpha" type="matrix" values="0 0 0 0 0 0 0 0 0 0 0 0 0 0 0 0 0 0 127 0" result="hardAlpha"/>
<feOffset dx="-4" dy="4"/>
<feComposite in2="hardAlpha" operator="out"/>
<feColorMatrix type="matrix" values="0 0 0 0 0.854902 0 0 0 0 0.172549 0 0 0 0 0.686275 0 0 0 1 0"/>
<feBlend mode="normal" in2="BackgroundImageFix" result="effect1_dropShadow_3557_12164"/>
<feBlend mode="normal" in="SourceGraphic" in2="effect1_dropShadow_3557_12164" result="shape"/>
</filter>
</defs>
</svg>