<svg width="307" height="302" viewBox="0 0 307 302" fill="none" xmlns="http://www.w3.org/2000/svg">
<path d="M260.225 217.582C260.225 217.582 249.282 85.4866 242.89 35.6901C236.498 -14.1064 159.61 17.2976 169.134 46.0001C177.955 72.5804 236.555 230.149 236.555 230.149L260.225 217.582Z" fill="#E261A5"/>
<g style="mix-blend-mode:screen" opacity="0.5">
<path d="M174.572 61.5495C176.78 67.7409 179.456 75.1563 182.454 83.3555C184.447 82.4931 186.444 81.457 188.51 80.1678C206.228 69.0594 216.627 50.4671 237.771 44.4853C239.683 43.9369 241.723 43.4036 243.781 42.9219C243.481 40.3493 243.169 37.9244 242.89 35.6899C242.585 33.3778 242.1 31.2687 241.503 29.2833C235.242 30.183 229.02 31.3858 222.76 33.0321C212.142 35.8372 204.037 41.9458 195.135 47.9739C189.784 51.617 181.226 58.6804 174.572 61.5495ZM241.74 170.506C233.814 173.164 226.3 177.899 218.622 181.768C221.094 188.476 223.42 194.743 225.53 200.45C227.205 199.003 228.919 197.487 230.781 195.949C239.019 189.222 247.254 184.248 257.072 180.703C256.678 176.266 256.281 171.542 255.842 166.602C250.89 167.642 246.095 169.06 241.74 170.506ZM194.297 101.319C192.559 101.465 190.849 101.601 189.122 101.686C191.144 107.221 193.262 112.954 195.378 118.774C205.344 117.162 213.264 114.763 221.401 108.472C227.454 103.791 232.123 97.4437 237.845 92.4132C241.141 89.5382 244.577 87.3637 248.332 85.6867C248.019 82.5153 247.695 79.4048 247.388 76.3461C238.793 79.3994 231.811 84.1586 223.727 90.1452C214.737 96.8348 205.6 100.298 194.297 101.319ZM204.599 143.871C206.985 150.319 209.326 156.725 211.635 162.941C225.873 156.751 236.167 142.762 252.018 138.651C252.443 138.539 252.885 138.478 253.31 138.366C252.941 134.38 252.575 130.306 252.218 126.259C243.056 127.977 234.033 130.856 225.674 134.435C218.445 137.523 211.934 141.753 204.635 143.887L204.599 143.871Z" fill="#E561C4"/>
</g>
<path d="M204.646 37.3767C217.025 33.2687 225.638 25.651 223.883 20.3623C222.128 15.0735 210.67 14.1164 198.29 18.2244C185.91 22.3325 177.297 29.9501 179.052 35.2388C180.807 40.5276 192.266 41.4847 204.646 37.3767Z" fill="#AA497D"/>
<path d="M221.15 241.639C221.15 241.639 157.609 70.9424 146.664 49.0034C135.719 27.0644 88.0748 47.3852 80.9529 70.3777C73.8309 93.3701 206.567 248.921 206.567 248.921L221.15 241.639Z" fill="#E261A5"/>
<path d="M90.8115 72.7086C93.6666 77.5075 105.204 76.2649 116.554 69.9127C127.904 63.5604 134.8 54.5492 131.944 49.7503C129.089 44.9514 117.552 46.194 106.202 52.5462C94.8518 58.8985 87.9564 67.9098 90.8115 72.7086Z" fill="#AA497D"/>
<g style="mix-blend-mode:screen" opacity="0.5">
<path d="M170 142.624C155.719 147.104 141.012 144.917 126.722 149.371C130.988 155.081 135.363 160.841 139.785 166.556C139.923 166.51 140.09 166.455 140.237 166.435C150.593 163.86 161.07 164.808 171.419 161.748C178.146 159.745 183.541 157.352 188.094 153.715C185.834 147.742 183.539 141.751 181.251 135.787C178.103 138.642 174.595 141.157 169.964 142.607L170 142.624ZM87.7409 91.4837C88.0633 91.4342 88.3579 91.3938 88.6888 91.3702C103.047 89.5361 117.611 92.4034 131.647 87.8321C143.268 84.0617 149.258 78.1668 155.525 69.7663C153.127 63.839 151.057 58.8082 149.391 54.9939C147.096 57.824 144.874 60.6875 142.625 63.5601C136.632 71.2087 127.626 74.1396 117.827 74.8631C105.61 75.7278 93.2615 74.3379 81.1037 75.8439C82.0036 79.855 84.3323 85.202 87.7219 91.5187L87.7409 91.4837ZM97.8997 108.454C101.215 113.618 104.908 119.087 108.881 124.75C117.09 121.739 127.596 123.05 136.756 122.999C149.754 122.909 162.528 121.314 172.953 114.119C170.743 108.388 168.576 102.786 166.495 97.4432C165.148 98.5798 163.665 99.5888 162.003 100.428C153.526 104.764 144.965 104.674 135.864 104.533C122.433 104.336 110.241 103.325 97.9274 108.445L97.8997 108.454ZM183.367 195.249C177.67 197.197 170.725 197.059 164.261 197.624C169.759 204.448 174.98 210.903 179.802 216.802C189.046 215.516 197.985 213.498 204.652 206.028C205.462 205.127 206.135 204.185 206.772 203.227C204.09 196.072 201.129 188.263 198.03 180.04C193.671 186.485 189.545 193.17 183.32 195.293L183.367 195.249ZM203.124 217.941C197.873 220.402 193.152 223.807 188.833 227.683C193.263 233.051 197.078 237.588 200.027 241.092C204.592 236.101 210.157 231.898 216.32 228.474C214.859 224.534 213.093 219.862 211.121 214.569C208.298 215.621 205.628 216.765 203.143 217.906L203.124 217.941Z" fill="#E561C4"/>
</g>
<path d="M182.117 257.838C182.117 257.838 117.63 161.324 88.9859 120.664C60.3502 80.03 20.2985 125.643 23.1921 146.893C27.3929 177.649 168.807 270.07 168.807 270.07L182.081 257.822L182.117 257.838Z" fill="#E261A5"/>
<path d="M30.7759 143.945C34.8252 147.888 45.7806 143.965 55.2304 135.227C64.6802 126.488 69.0622 116.214 65.0129 112.271C60.9636 108.328 50.0082 112.251 40.5584 120.989C31.1086 129.727 26.7266 140.002 30.7759 143.945Z" fill="#AA497D"/>
<g style="mix-blend-mode:screen" opacity="0.5">
<path d="M117.476 234.64C123.101 238.692 128.502 242.531 133.597 246.098C139.974 242.948 148.916 241.589 154.338 240.853C159.383 240.185 164.535 240.027 169.512 239.064C166.708 234.881 163.539 230.158 160.085 225.04C155.339 225.121 150.545 224.873 145.867 225.535C136.099 226.909 125.603 228.783 117.448 234.649L117.476 234.64ZM26.1506 154.415C28.3761 158.245 31.7193 162.566 35.945 167.226C40.4133 163.243 46.5238 161.704 52.2855 159.764C65.4907 155.382 79.8826 156.525 91.6734 148.159C96.5611 144.698 98.6277 140.995 99.7226 136.035C96.1151 130.825 92.8009 126.035 89.7952 121.803C88.8468 123.957 87.9863 126.282 87.0835 128.851C83.8209 138.324 76.7447 139.551 67.7357 140.616C60.4389 141.457 53.436 143.091 46.3849 145.23C38.9923 147.453 31.9465 150.165 26.1142 154.399L26.1506 154.415ZM111.341 198.52C103.22 201.703 95.3188 206.94 88.912 213.433C93.6205 217.042 98.3481 220.617 103.05 224.113C104.37 222.986 105.687 221.945 106.965 221.061C112.028 217.571 119.285 215.22 125.323 213.648C131.5 212.029 136.805 213.63 142.999 213.643C145.927 213.649 148.854 213.281 151.741 212.61C147.684 206.601 143.432 200.283 139.072 193.829C135.619 193.538 132.142 193.083 128.914 193.378C122.761 193.955 117.045 196.311 111.322 198.555L111.341 198.52ZM79.0351 168.356C68.8063 172.612 62.3599 179.635 58.1032 188.432C63.8541 193.419 70.043 198.52 76.424 203.642C78.2368 196.576 81.1804 190.227 89.0921 186.969C100.663 182.21 116.919 184.516 126.483 175.194C122.087 168.723 117.745 162.32 113.508 156.141C112.855 158.627 111.666 160.889 109.129 162.248C107.141 163.31 102.465 163.138 100.321 163.361C92.8981 164.1 85.9566 165.456 79.0265 168.33L79.0351 168.356Z" fill="#E561C4"/>
</g>
</svg>