<svg width="361" height="400" viewBox="0 0 361 400" fill="none" xmlns="http://www.w3.org/2000/svg">
<path d="M109.805 337.993C121.573 336.769 127.452 323.326 125.328 312.131C123.205 300.937 115.7 291.215 110.032 281.01C104.364 270.806 100.492 258.358 105.862 248.519C110.817 239.457 122.066 235.477 129.499 228.162C139.834 217.991 141.862 202.162 139.395 187.76C136.918 173.381 130.587 159.714 126.097 145.697C121.582 131.669 118.933 116.441 123.897 102.98C128.861 89.5195 143.469 78.8516 158.514 81.8463C135.774 79.4488 111.862 82.4294 93.6306 94.5775C75.4233 106.735 64.3 129.336 70.391 150.437C73.1271 159.916 78.9573 168.413 82.9879 177.511C87.0185 186.609 89.1398 197.307 84.343 205.676C76.7081 219.034 55.7175 220.183 46.5954 232.623C38.5026 243.641 42.8042 259.721 51.2894 271.232C59.7746 282.742 71.8116 291.52 81.0553 302.518C90.3078 313.494 96.724 328.522 91.1354 340.932" fill="url(#paint0_linear_1639_1720)"/>
<path d="M138.535 348.403C113.978 326.777 108.84 288.231 127.166 263.356C135.946 251.433 149.559 241.888 152.327 227.39C157.011 202.88 128.452 175.241 142.265 154.417C150.93 141.356 171.285 140.688 183.23 130.259C192.509 122.152 195.402 109.343 196.665 97.2017C197.929 85.0605 198.111 72.394 203.614 61.5657C209.118 50.7374 222.005 42.2643 234.487 45.954C223.336 58.7241 230.2 78.4854 237.733 94.2352C245.241 109.975 252.771 129.319 242.461 142.729C229.682 159.319 198.112 154.55 186.715 172.043C177.675 185.922 187.159 204.412 196.691 218.831C206.224 233.249 216.244 251.296 208.025 265.651C200.958 277.981 184.1 280.792 169.869 284.964C155.639 289.137 140.183 299.97 143.78 314.057C145.683 321.44 152.493 327.062 155.104 334.279C157.716 341.495 151.149 351.753 144.194 347.794" fill="url(#paint1_linear_1639_1720)"/>
<path d="M139.153 340.647C129.053 326.033 139.717 306.405 154.965 298.044C170.221 289.66 188.829 288.312 205.492 282.56C222.154 276.807 238.332 263.547 236.741 246.464C235.116 229.109 215.616 214.376 218.707 197.399C220.897 185.462 233.664 178.374 246.056 175.621C258.448 172.868 271.761 172.844 283.243 167.835C305.032 158.323 314.162 129.788 302.023 109.145C318.139 117.714 329.622 134.013 331.694 151.152C333.766 168.291 326.301 185.805 312.476 196.257C299.477 206.094 280.333 211.4 275.71 226.713C269.975 245.813 291.713 266.21 286.675 285.529C283.16 298.929 267.915 306.067 253.449 308.116C238.983 310.166 223.794 308.834 209.941 312.972C196.087 317.109 183.467 329.489 186.68 343.27C168.023 337.279 146.934 339.9 131.315 350.149" fill="url(#paint2_linear_1639_1720)"/>
<path d="M114.609 95.6116C114.609 95.6116 83.5824 114.992 93.0292 145.345C102.476 175.698 121.738 209.197 95.807 230.563C69.8764 251.928 64.2613 268.209 102.287 313.81" stroke="#62883F" stroke-width="0.79" stroke-linecap="round" stroke-linejoin="round"/>
<path d="M218.213 60.0368C218.213 60.0368 204.206 92.1943 213.305 112.175C222.413 132.133 193.964 142.958 178.811 155.524C163.635 168.081 148.658 189.597 163.214 214.439C177.779 239.257 169.618 262.074 154.736 272.01C139.853 281.947 120.106 296.838 131.239 320.997" stroke="#62883F" stroke-width="0.79" stroke-linecap="round" stroke-linejoin="round"/>
<path d="M317.064 136.832C317.064 136.832 319.859 167.328 301.101 177.813C282.344 188.298 253.031 184.407 248.114 206.43C243.197 228.453 277.347 274.602 254.764 283.571C232.173 292.562 198.396 294.461 180.467 306.623C162.513 318.775 160.102 336.303 160.102 336.303" stroke="#62883F" stroke-width="0.79" stroke-linecap="round" stroke-linejoin="round"/>
<defs>
<linearGradient id="paint0_linear_1639_1720" x1="123.344" y1="104.041" x2="66.2328" y2="339.712" gradientUnits="userSpaceOnUse">
<stop stop-color="#83B554"/>
<stop offset="1" stop-color="#52B554"/>
</linearGradient>
<linearGradient id="paint1_linear_1639_1720" x1="222.685" y1="88.4518" x2="117.104" y2="357.95" gradientUnits="userSpaceOnUse">
<stop stop-color="#83B554"/>
<stop offset="1" stop-color="#52B554"/>
</linearGradient>
<linearGradient id="paint2_linear_1639_1720" x1="308.117" y1="165.542" x2="178.783" y2="354.696" gradientUnits="userSpaceOnUse">
<stop stop-color="#83B554"/>
<stop offset="1" stop-color="#52B554"/>
</linearGradient>
</defs>
</svg>