<svg width="272" height="93" viewBox="0 0 272 93" fill="none" xmlns="http://www.w3.org/2000/svg">
<rect x="2.83203" y="2.93103" width="267" height="88" rx="44" fill="white" fill-opacity="0.8"/>
<rect x="2.83203" y="2.93103" width="267" height="88" rx="44" stroke="#2A4474" stroke-width="4"/>
<path fill-rule="evenodd" clip-rule="evenodd" d="M75.619 20.7778C75.8027 20.4014 76.4458 19.931 76.4458 19.931H87.2871C97.6684 19.931 98.1811 19.931 98.3955 20.1839C98.4066 20.1971 98.4169 20.2109 98.4278 20.2254L98.4278 20.2254C98.4466 20.2505 98.467 20.2778 98.4958 20.3074C98.5326 20.3826 98.5987 20.4579 98.6649 20.5331C98.7641 20.646 98.8633 20.7589 98.8633 20.8718L99.0471 21.1541V24.8233V28.7747C98.9552 29.0569 98.6796 29.5273 98.404 29.7155L98.3878 29.7279C98.0378 29.9977 98.0378 29.9977 92.0646 29.9977H86.4602V63.961H92.1565L97.8527 64.0551H98.1283C98.4958 64.2433 98.8633 64.6196 98.9552 64.9959V69.0414C98.9552 71.8656 98.8947 72.5843 98.8719 72.8554V72.8555C98.8666 72.9185 98.8633 72.9573 98.8633 72.9928C98.7715 73.2751 98.1283 73.9336 98.1283 73.9336H87.1033L76.354 73.8396H76.1702C75.8946 73.6514 75.4352 73.181 75.4352 72.8987V46.8383V21.06L75.619 20.7778ZM120.087 20.7778C120.271 20.4014 120.914 19.931 120.914 19.931H131.755C142.117 19.931 142.636 19.931 142.927 20.1884C142.942 20.2018 142.956 20.2159 142.972 20.2307L142.972 20.2311L142.972 20.2313L142.972 20.2313L142.972 20.2314V20.2314C142.996 20.2548 143.022 20.2801 143.056 20.3074C143.148 20.4955 143.423 20.8718 143.423 20.8718L143.607 21.1541V46.9323C143.607 72.1461 143.607 72.7106 143.515 72.9928C143.423 73.2751 143.056 73.6514 142.78 73.8396L142.596 73.9336H131.847L121.098 73.8396H120.822C120.546 73.6514 120.087 73.181 119.995 72.8987V68.8533C119.995 68.146 119.992 67.5647 119.99 67.085V67.0826V67.0806V67.0789V67.0775V67.0774V67.0774V67.0773V67.0772V67.0771V67.0771V67.077C119.982 65.2635 119.981 64.9046 120.149 64.6644C120.19 64.6052 120.242 64.5531 120.306 64.4883L120.345 64.4489L120.363 64.4314C120.546 64.3374 120.822 63.961 120.822 63.961H121.006H126.794H132.582V29.9036H126.978C121.181 29.9036 121.011 29.815 120.67 29.6378L120.638 29.6214C120.363 29.4332 120.087 29.151 119.995 28.8687C119.988 28.8473 119.982 28.8275 119.976 28.8075C119.903 28.5647 119.903 28.3004 119.903 24.8233V21.06L120.087 20.7778ZM37.6748 30.9383L36.4805 31.3147V42.8867V54.4586L37.3073 54.835C38.5936 55.4935 39.9717 55.8699 41.3498 56.058C41.9338 56.1245 42.9302 56.0971 43.7241 56.0752C44.0543 56.0661 44.3495 56.058 44.5655 56.058C47.3217 55.4935 49.4348 53.9882 50.5373 51.7303C51.8236 49.096 51.6398 45.3328 50.1698 42.7926C49.4348 41.4754 48.4242 40.5346 47.0461 39.8761C45.7598 39.2175 44.6573 39.0293 43.0955 39.1234C41.5336 39.1234 40.523 39.4997 39.3286 40.2524L38.8692 40.5346V35.5483V30.562C38.8692 30.562 38.318 30.7502 37.6748 30.9383ZM44.933 41.4754C46.1273 41.8518 47.2298 42.6044 47.873 43.6393C48.608 44.7683 48.8836 45.9913 48.8836 47.6848C48.8836 49.6605 48.4242 51.0717 47.4136 52.1066C46.7705 52.7652 46.1273 53.1415 45.1167 53.5178C43.5548 54.0823 40.9823 53.8942 39.3286 53.2356L38.9611 53.0474V47.967V42.8867L39.3286 42.6044C39.9717 42.0399 40.8905 41.6636 41.8092 41.4754C42.5442 41.2873 42.728 41.2873 43.6467 41.3814C44.2898 41.3814 44.5655 41.3814 44.933 41.4754ZM208.378 41.0997C208.378 40.9116 208.746 40.4411 210.859 37.995L211.042 38.1832C212.972 35.9253 213.615 35.2667 213.615 35.2667H213.707V39.3122H218.852V41.382H213.707V46.3683V51.7309C213.891 52.6717 214.258 52.8599 215.452 52.8599C216.279 52.8599 217.198 52.6717 218.117 52.2954C218.484 52.1072 218.852 52.0131 218.852 52.0131V53.048V54.2711H218.576C217.198 54.8356 216.004 55.1178 214.717 55.1178C213.523 55.1178 212.696 54.8356 212.145 54.2711C211.686 53.8007 211.502 53.4244 211.318 52.7658C211.042 52.0131 211.042 51.5427 211.042 46.2742V41.2879H208.378V41.0997ZM91.2381 37.9945C91.2381 37.9945 91.0543 38.0886 90.9625 38.1826L90.7787 38.3708V40.5347C90.7787 42.6045 90.7787 42.6985 90.8706 42.7926L90.8979 42.8208C90.9351 42.8593 90.9666 42.892 91.002 42.9198C91.2002 43.0749 91.5197 43.0749 93.6268 43.0749H95.9237V50.3191H93.535H91.1462L90.9625 50.5073L90.7787 50.6954V52.8593C90.7787 54.9291 90.7787 55.0232 90.8706 55.1173C90.8779 55.1247 90.8846 55.132 90.8909 55.139C90.8988 55.148 90.9062 55.1566 90.9133 55.1649L90.9134 55.1651C90.9238 55.1772 90.9336 55.1888 90.9441 55.1997C91.1351 55.3995 91.535 55.3995 99.2312 55.3995C106.806 55.3995 107.384 55.3995 107.535 55.1455C107.548 55.1246 107.557 55.1019 107.568 55.0774C107.575 55.0602 107.583 55.0422 107.592 55.0232C107.684 54.835 107.684 54.6469 107.592 52.7652C107.592 50.8836 107.592 50.6954 107.5 50.6014C107.316 50.3191 107.224 50.3191 104.744 50.3191H102.447V43.0749H104.744C107.316 43.0749 107.316 43.0749 107.5 42.6985C107.592 42.5104 107.592 42.3222 107.5 40.4406C107.5 38.559 107.5 38.3708 107.408 38.2767L107.399 38.263C107.394 38.2537 107.389 38.2447 107.384 38.2361L107.379 38.2278L107.372 38.2147C107.368 38.2088 107.365 38.2031 107.361 38.1975C107.222 37.9945 106.786 37.9945 99.0475 37.9945H91.2381ZM111.267 38.0885C111.267 38.0885 111.23 38.0412 111.179 38.2675L111.267 38.0885ZM111.178 38.2752L111.175 38.2766L111.179 38.2675L111.178 38.2752ZM111.178 38.2752C111.359 38.1825 111.461 38.1825 113.563 38.1825C115.952 38.1825 116.044 38.1825 116.32 38.4648C116.412 38.5589 117.698 40.3464 119.168 42.4162L121.924 46.1794V42.3221C121.924 38.5589 121.924 38.4648 122.016 38.3707C122.292 38.0885 122.292 38.0885 124.864 38.0885C127.161 38.0885 127.253 38.0885 127.437 38.1825C127.461 38.1952 127.484 38.204 127.506 38.2123C127.527 38.2204 127.547 38.228 127.565 38.2381C127.804 38.3698 127.804 38.9343 127.804 46.838V46.84C127.804 54.929 127.804 55.1172 127.712 55.3053L127.684 55.3442L127.684 55.3443C127.638 55.4074 127.601 55.4588 127.555 55.5005C127.356 55.6816 126.992 55.6816 125.048 55.6816L122.843 55.4935H122.567C122.383 55.3994 121.74 54.6468 119.535 51.7302L116.779 48.1551V51.6362C116.692 55.3114 116.687 55.3141 116.449 55.4689L116.449 55.469L116.427 55.4832L116.412 55.4935C116.32 55.5876 116.136 55.5876 113.839 55.5876C111.676 55.5876 111.269 55.5876 111.094 55.3861C111.054 55.3395 111.026 55.282 110.991 55.2112C110.899 55.0231 110.899 54.8349 110.899 46.7459V46.7439C110.899 40.5441 111.069 38.7734 111.178 38.2752ZM156.193 38.5591C155.091 38.6532 153.896 38.9354 152.886 39.4999C151.324 40.2526 149.946 41.6638 149.303 43.1691C148.659 44.5803 148.384 46.2737 148.568 48.0613C148.935 52.0127 151.691 54.8351 155.734 55.3996C156.469 55.4937 158.031 55.4937 158.858 55.3996C159.396 55.3996 159.786 55.2988 160.281 55.1709C160.462 55.1241 160.657 55.0737 160.879 55.0233L161.43 54.8351V53.6121V52.389C161.43 52.389 161.154 52.389 160.879 52.5772C160.236 52.8594 159.225 53.0476 158.398 53.1417C157.479 53.2358 156.193 53.1417 155.458 53.0476C154.815 52.8594 154.264 52.6713 153.713 52.2949C153.069 51.9186 152.794 51.6364 152.334 51.0719C151.416 49.9429 150.956 48.6258 150.956 47.0264C150.956 44.1099 152.61 41.8519 155.366 41.0993C155.624 41.0239 155.778 40.9787 155.936 40.9516C156.172 40.9111 156.414 40.9111 157.02 40.9111C157.847 40.9111 158.214 40.9111 158.674 41.0052C158.839 41.0428 159.008 41.0805 159.177 41.1181C159.853 41.2686 160.53 41.4192 160.971 41.5697L161.338 41.7579V40.5348V39.3117L160.879 39.1236C160.328 38.9354 159.317 38.7473 158.674 38.6532C158.444 38.6532 158.16 38.644 157.858 38.6342C157.197 38.6127 156.451 38.5885 156.009 38.6532L156.193 38.5591ZM194.781 40.6291C195.884 39.5001 197.446 38.7475 199.008 38.5593C199.467 38.3711 200.57 38.4652 201.121 38.5593C203.969 39.2179 206.082 41.5699 206.633 44.7687C206.633 45.0638 206.642 45.4236 206.652 45.8048C206.673 46.6388 206.696 47.5744 206.633 48.1556C206.45 49.6609 205.898 51.0721 205.071 52.2011C204.612 52.8597 203.877 53.6123 203.326 53.9886C202.499 54.6472 201.488 55.1176 200.478 55.3058C199.375 55.588 197.63 55.4939 196.251 55.1176C195.884 55.0235 194.873 54.5531 194.598 54.365C194.506 54.2709 194.414 54.2709 194.414 54.2709V57.846V61.421H191.933V39.1238H194.414V41.0054L194.781 40.6291ZM202.499 42.0403C202.04 41.5699 201.121 41.0995 200.478 41.0054L200.386 40.9113C200.219 40.9113 200.002 40.9027 199.764 40.8933L199.764 40.8933C199.217 40.8716 198.565 40.8457 198.181 40.9113C197.707 40.9923 197.368 41.1428 196.874 41.3629C196.793 41.3987 196.709 41.4364 196.619 41.4758C195.884 41.7581 195.333 42.2285 194.781 42.793L194.414 43.1693V51.9188H194.598C195.057 52.2952 195.792 52.6715 196.527 52.8597C197.446 53.236 197.813 53.236 198.824 53.236C199.651 53.236 199.835 53.236 200.202 53.1419C201.121 52.8597 201.856 52.4833 202.499 51.8248C203.326 50.978 203.877 49.9431 204.153 48.4378C204.245 47.7793 204.245 45.9917 204.153 45.3332C203.877 43.9219 203.326 42.793 202.499 42.0403ZM228.224 38.5591C228.224 38.5591 227.397 38.6532 227.122 38.7473C223.079 39.6881 220.598 43.075 220.874 47.4968C220.966 49.7548 221.701 51.4482 222.987 52.8594C224.09 53.9884 225.284 54.647 226.846 55.1174C227.765 55.3996 228.408 55.3996 229.51 55.3996C230.888 55.3996 231.899 55.1174 233.093 54.5529C234.747 53.7062 235.85 52.6713 236.677 50.9778C237.044 50.2252 237.228 49.4725 237.412 48.6258C237.503 47.8731 237.503 46.1797 237.412 45.3329C237.136 43.5454 236.401 42.0401 235.207 40.9111C233.828 39.4999 232.083 38.7473 229.97 38.5591H228.224ZM230.429 40.817C231.991 41.0993 233.185 42.0401 234.012 43.2631C234.747 44.3921 235.023 45.427 235.023 47.0264C235.023 48.0613 235.023 48.4376 234.747 49.2843C233.92 51.9186 231.623 53.518 228.867 53.3298C226.019 53.1417 223.906 51.2601 223.447 48.3435C223.355 47.5909 223.355 46.2737 223.447 45.6152C223.538 45.0507 223.814 44.298 223.998 43.8276C224.825 42.2283 226.295 41.0993 228.04 40.817C228.683 40.723 229.878 40.723 230.429 40.817ZM167.586 42.5109C168.688 40.0647 170.066 39.1239 172.915 38.6535L173.006 38.7476H173.282H173.466V41.57H173.006C171.261 41.6641 170.158 42.1345 169.148 43.1694C168.413 43.9221 168.045 44.5806 167.678 45.8037C167.31 46.8386 167.31 47.0268 167.31 51.1663V54.9296H166.116H164.921V39.218H166.116H167.31V41.1937V43.1694L167.586 42.5109ZM61.103 39.0295H60.5517C59.1736 39.2176 57.8873 39.7821 56.8767 40.5348C56.3255 40.9111 55.4986 41.8519 55.1311 42.4164C54.5798 43.3572 54.2123 44.204 53.9367 45.427C53.8448 46.0856 53.8448 46.1797 53.8448 47.4027C53.8448 48.8139 53.8448 49.1903 54.1205 50.1311C54.9473 53.4239 57.428 55.5878 61.0111 56.0582H63.9511C65.1455 55.9641 66.7992 55.4937 67.9936 55.0233H68.2692V53.6121V52.389L67.6261 52.7653C65.9723 53.6121 64.043 53.9884 62.1136 53.8943C61.2867 53.8943 60.8273 53.8002 60.0923 53.518C58.3467 52.8594 57.0605 51.5423 56.6011 49.5666C56.5643 49.3408 56.5276 49.0849 56.4908 48.829L56.4908 48.829C56.4357 48.4451 56.3806 48.0613 56.3255 47.779V47.5909H69.5555V47.2146C69.5555 46.6501 69.4636 45.6152 69.2798 44.9566C68.453 41.6638 66.248 39.4058 63.2161 38.9354H61.1948L61.103 39.0295ZM62.9405 41.1934C63.9511 41.3815 64.8698 41.7578 65.513 42.4164C66.248 43.1691 66.7992 44.298 66.8911 45.427V45.8033H61.6542H56.3255C56.3255 45.6152 56.5092 44.8625 56.693 44.4862C57.0605 43.6395 57.7036 42.7927 58.4386 42.3223C59.633 41.4756 61.3786 41.0993 62.8486 41.2874L62.9405 41.1934ZM174.187 39.4057C174.136 39.2827 174.109 39.2176 174.109 39.2176V39.4057H174.187ZM177.325 47.0263C175.815 43.364 174.511 40.1945 174.187 39.4057H175.396H176.682L179.163 45.521C180.541 48.9079 181.735 51.7304 181.735 51.7304C181.748 51.7431 181.755 51.7593 181.765 51.7614C181.831 51.7751 182.016 51.2157 184.399 45.521C184.709 44.7592 185.019 43.9868 185.305 43.2758C185.865 41.8795 186.33 40.7206 186.513 40.3465L186.972 39.3117H188.166H189.361C189.302 39.3117 188.459 41.3403 187.188 44.3965C186.466 46.1318 185.607 48.1985 184.675 50.4132L180.081 61.4207H178.887H177.693C177.726 61.3519 178.043 60.6024 178.445 59.652C179.14 58.006 180.09 55.7574 180.265 55.3995L180.541 54.741L177.325 47.0263Z" fill="#2A4474"/>
</svg>