<svg width="283" height="93" viewBox="0 0 283 93" fill="none" xmlns="http://www.w3.org/2000/svg">
<rect x="2.32092" y="2.93103" width="277.84" height="88" rx="44" fill="white" fill-opacity="0.8"/>
<rect x="2.32092" y="2.93103" width="277.84" height="88" rx="44" stroke="#2A4474" stroke-width="4"/>
<path fill-rule="evenodd" clip-rule="evenodd" d="M120.672 57.4549C113.466 57.4549 108.225 52.5025 108.225 45.6929C108.225 38.8834 113.466 33.931 120.766 33.931C124.697 33.931 128.066 35.346 130.218 37.9991L130.405 38.2644L126.568 41.8018L126.288 41.5365C124.884 39.8562 123.012 39.0603 120.953 39.0603C116.929 39.0603 114.121 41.8018 114.121 45.7814C114.121 49.761 116.929 52.5025 120.953 52.5025C123.106 52.5025 124.884 51.7066 126.288 50.0263L126.568 49.761L130.405 53.2984L130.218 53.5637C128.066 56.2168 124.697 57.6317 120.672 57.6317V57.4549ZM65.4558 57.1012H53.5703V34.2849H64.8943C70.4159 34.2849 73.6915 36.5842 73.6915 40.3869C73.6915 42.4209 72.7556 44.1012 71.1646 45.1624C73.5043 46.1352 74.8145 48.1692 74.8145 50.7339C74.8145 54.8019 71.539 57.1012 65.5494 57.1012H65.4558ZM59.3727 52.591H65.0815C68.4506 52.591 68.8249 51.2645 68.8249 50.2032C68.8249 48.6114 67.6083 47.8155 65.0815 47.8155H59.3727V52.591ZM59.3727 43.3937H64.1456C66.4853 43.3937 67.7019 42.5978 67.7019 41.0944C67.7019 40.5638 67.7019 38.8835 64.1456 38.8835H59.3727V43.3937ZM83.986 57.1012H78.0901V34.2849H83.986V57.1012ZM94.2808 57.1012H100.083V39.1488H107.289V34.2849H87.0746V39.1488H94.2808V57.1012ZM131.248 45.6929C131.248 52.5025 136.582 57.4549 143.882 57.4549C151.182 57.4549 156.516 52.5025 156.516 45.6929C156.516 38.8834 151.182 33.931 143.882 33.931C136.582 33.931 131.248 38.8834 131.248 45.6929ZM137.237 45.6929C137.237 41.8018 140.045 38.9719 143.882 38.9719C147.719 38.9719 150.527 41.8018 150.527 45.6929C150.527 49.5841 147.719 52.414 143.882 52.414C140.045 52.414 137.237 49.5841 137.237 45.6929ZM165.219 57.1012H159.323V34.2849H165.219V57.1012ZM185.341 57.1012H190.114V34.2849H184.311V47.0196L173.736 34.2849H168.963V57.1012H174.765V44.3665L185.341 57.1012ZM199.285 57.1012H193.389V34.2849H199.285V57.1012ZM202.374 54.8018C204.526 56.3936 208.176 57.4549 211.732 57.4549V57.5433C218.938 57.5433 221.559 53.6521 221.559 50.38C221.559 45.471 216.961 44.3853 213.235 43.5053L213.136 43.4821C210.703 42.9514 208.55 42.4208 208.55 41.0059C208.55 39.5909 209.954 38.795 212.481 38.795C214.446 38.795 216.505 39.414 218.471 40.4753L218.845 40.6521L220.717 36.1419L220.436 35.965C218.377 34.6385 215.476 33.931 212.481 33.931C206.491 33.931 202.654 36.761 202.748 41.0943C202.748 46.0918 207.347 47.1778 211.074 48.0578L211.171 48.0807C213.604 48.6113 215.757 49.1419 215.757 50.5569C215.757 52.3256 213.323 52.5909 211.826 52.5909C209.299 52.5909 206.491 51.795 204.62 50.38L204.245 50.1147L202.186 54.6249L202.374 54.8018ZM235.971 57.1012H230.169V39.1488H222.962V34.2849H243.177V39.1488H235.971V57.1012ZM245.797 38.6178C245.797 39.06 246.64 39.4137 246.64 39.4137C247.108 39.4137 247.482 39.06 247.482 38.6178C247.482 38.1756 247.108 37.8219 246.64 37.8219C246.172 37.8219 245.797 38.1756 245.797 38.6178ZM251.32 39.4141C249.635 39.4141 248.512 38.3529 248.512 36.8495C248.512 35.3461 249.729 34.2849 251.32 34.2849C252.255 34.2849 253.004 34.6386 253.472 35.1692L252.536 36.0536C252.536 36.0536 251.787 35.4345 251.413 35.4345C250.571 35.4345 249.916 36.0536 249.916 36.8495C249.916 37.6454 250.571 38.2645 251.413 38.2645C251.881 38.2645 252.255 38.0876 252.536 37.7338L253.472 38.4413C253.004 39.0604 252.255 39.4141 251.32 39.4141ZM253.94 36.8495C253.94 38.3529 255.156 39.4141 256.841 39.4141C258.525 39.4141 259.742 38.3529 259.742 36.8495C259.742 35.3461 258.525 34.2849 256.841 34.2849C255.156 34.2849 253.94 35.3461 253.94 36.8495ZM255.437 36.8495C255.437 36.0536 255.999 35.4345 256.841 35.4345C257.777 35.4345 258.338 36.0536 258.338 36.8495C258.338 37.6454 257.683 38.2645 256.841 38.2645C255.999 38.2645 255.437 37.6454 255.437 36.8495ZM260.678 39.1487V34.4617V34.3732H261.801L263.579 37.2031L265.358 34.3732H266.481V39.3255H265.264V36.7609L263.954 38.7949H263.299L261.988 36.8493V39.3255H260.678V39.1487ZM52.9155 63.9989C52.9155 63.9687 52.9159 63.9388 52.9168 63.9089C52.9643 65.5448 54.3501 66.7404 56.0975 66.7404C57.0333 66.7404 57.782 66.4751 58.3435 65.9444L57.9692 65.5907C57.5013 66.1213 56.8462 66.2982 56.1911 66.2982C54.7872 66.2982 53.6642 65.3254 53.6642 63.9104C53.6642 62.4955 54.6937 61.5227 56.1911 61.5227C56.8462 61.5227 57.5013 61.788 57.9692 62.2302L58.3435 61.8764C57.782 61.3458 56.9397 61.0805 56.0975 61.0805C54.2593 61.0805 52.9627 62.2746 52.9168 63.9089C52.9159 63.8801 52.9155 63.8511 52.9155 63.822V63.9989ZM62.3677 64.9717L63.7715 66.8288V66.7404H64.4266L62.9292 64.7948C63.8651 64.5295 64.333 63.9104 64.333 63.0261C64.333 61.788 63.3972 61.0805 61.8998 61.0805H59.6537V66.7404H60.3088V64.9717H61.8998H62.3677ZM61.8998 61.6995C63.1164 61.6995 63.7715 62.2302 63.7715 63.1145C63.7715 63.9989 63.1164 64.5295 61.8998 64.5295H60.3088V61.6995H61.8998ZM67.8892 64.8833V66.8289H67.2341V64.8833L64.8009 61.169H65.456L67.5149 64.3527L69.5738 61.169H70.2289L67.7956 64.8833H67.8892ZM71.9132 65.0602H73.5042C75.0016 65.0602 75.9374 64.3527 75.9374 63.1146C75.9374 61.8765 75.0016 61.169 73.5042 61.169H71.2581V66.8289H71.9132V65.0602ZM73.4106 61.6996C74.6272 61.6996 75.2823 62.2302 75.2823 63.1146C75.2823 63.9989 74.6272 64.5296 73.4106 64.5296H71.8196V61.6996H73.4106ZM78.1838 61.6996H76.1249V61.169H80.9914V61.6996H78.8389V66.8289H78.1838V61.6996ZM84.6412 61.0805C82.7694 61.0805 81.4592 62.3186 81.4592 63.9989C81.4592 65.6791 82.7694 66.9172 84.6412 66.9172C86.5129 66.9172 87.8231 65.6791 87.8231 63.9989C87.8231 62.3186 86.5129 61.0805 84.6412 61.0805ZM84.6412 61.6111C86.1385 61.6111 87.168 62.6723 87.168 63.9989C87.168 65.4138 86.045 66.3866 84.6412 66.3866C83.2374 66.3866 82.1143 65.4138 82.1143 63.9989C82.1143 62.5839 83.1438 61.6111 84.6412 61.6111ZM88.7589 63.9989C88.7589 63.9687 88.7593 63.9388 88.7601 63.9089C88.8076 65.5448 90.1935 66.7404 91.9408 66.7404C92.8767 66.7404 93.6254 66.4751 94.1869 65.9444L93.8125 65.5907C93.3446 66.1213 92.6895 66.2982 92.0344 66.2982C90.6306 66.2982 89.5075 65.3254 89.5075 63.9104C89.5075 62.4955 90.537 61.5227 92.0344 61.5227C92.6895 61.5227 93.3446 61.788 93.8125 62.2302L94.1869 61.8764C93.6254 61.3458 92.7831 61.0805 91.9408 61.0805C90.1026 61.0805 88.806 62.2746 88.7601 63.9089C88.7593 63.8801 88.7589 63.8511 88.7589 63.822V63.9989ZM95.4036 61.169V64.4411H95.5908C95.5908 66.033 96.5267 66.9173 98.024 66.9173C99.5214 66.9173 100.457 66.033 100.457 64.4411V61.169H99.8022V64.4411C99.8022 65.7676 99.1471 66.3867 97.9305 66.3867C96.7138 66.3867 96.0587 65.7676 96.0587 64.4411V61.169H95.4036ZM106.447 66.8288L105.043 64.9717H104.575H102.984V66.7404H102.329V61.0805H104.575C106.073 61.0805 107.008 61.788 107.008 63.0261C107.008 63.9104 106.541 64.5295 105.605 64.7948L107.102 66.7404H106.447V66.8288ZM106.447 63.1145C106.447 62.2302 105.792 61.6995 104.575 61.6995H102.984V64.5295H104.575C105.792 64.5295 106.447 63.9989 106.447 63.1145ZM111.314 64.9717L112.718 66.8288V66.7404H113.373L111.875 64.7948C112.811 64.5295 113.279 63.9104 113.279 63.0261C113.279 61.788 112.343 61.0805 110.846 61.0805H108.6V66.7404H109.255V64.9717H110.846H111.314ZM110.846 61.6995C112.062 61.6995 112.718 62.2302 112.718 63.1145C112.718 63.9989 112.062 64.5295 110.846 64.5295H109.255V61.6995H110.846ZM119.081 66.2983V66.3867H115.525V64.2642H118.613V63.7336H115.525V61.6996H118.988V61.169H114.87V66.8289H119.081V66.3867H119.175L119.081 66.2983ZM125.632 66.8289V61.169H124.977V65.7676L121.14 61.169H120.578V66.8289H121.233V62.2302L125.071 66.8289H125.632ZM127.13 63.9989C127.13 63.9687 127.13 63.9388 127.131 63.9089C127.179 65.5448 128.565 66.7404 130.312 66.7404C131.248 66.7404 131.997 66.4751 132.558 65.9444L132.184 65.5907C131.716 66.1213 131.061 66.2982 130.406 66.2982C129.002 66.2982 127.879 65.3254 127.879 63.9104C127.879 62.4955 128.908 61.5227 130.406 61.5227C131.061 61.5227 131.716 61.788 132.184 62.2302L132.558 61.8764C131.997 61.3458 131.154 61.0805 130.312 61.0805C128.474 61.0805 127.177 62.2746 127.131 63.9089C127.13 63.8801 127.13 63.8511 127.13 63.822V63.9989ZM135.833 66.8289V64.8833H135.74L138.173 61.169H137.518L135.459 64.3527L133.4 61.169H132.745L135.178 64.8833V66.8289H135.833ZM147.157 61.169V66.8289H146.596L142.759 62.2302V66.8289H142.104V61.169H142.665L146.502 65.7676V61.169H147.157ZM153.428 66.3867V66.2983L153.521 66.3867H153.428ZM149.872 66.3867H153.428V66.8289H149.216V61.169H153.334V61.6996H149.872V63.7336H152.96V64.2642H149.872V66.3867ZM163.161 61.169L161.102 66.8289H160.447L158.669 61.9649L156.891 66.8289H156.235L154.177 61.169H154.832L156.61 66.033L158.388 61.169H158.949L160.728 66.1214L162.506 61.169H163.161ZM164.003 65.6791L163.723 66.1213V66.2097C164.191 66.6519 165.033 66.9172 165.969 66.9172C167.466 66.9172 168.215 66.1213 168.215 65.3254C168.215 64.2461 167.161 64.0134 166.171 63.7949C165.296 63.6017 164.471 63.4195 164.471 62.6723C164.471 62.0533 164.939 61.6111 166.062 61.6111C166.624 61.6111 167.185 61.6995 167.747 62.0533L167.934 61.6111C167.466 61.2574 166.717 61.0805 166.062 61.0805C164.471 61.0805 163.816 61.8764 163.816 62.6723C163.816 63.8097 164.891 64.0583 165.889 64.2889C166.753 64.4887 167.56 64.6751 167.56 65.4138C167.56 65.9444 167.092 66.3866 165.969 66.3866C165.22 66.3866 164.003 65.6791 164.003 65.6791ZM176.918 66.9173L176.075 66.1214C175.607 66.652 174.859 66.9173 174.11 66.9173C172.893 66.9173 172.051 66.2983 172.051 65.5023C172.051 64.7949 172.425 64.3527 173.549 63.7336C172.987 63.203 172.8 62.8493 172.8 62.4071C172.8 61.6996 173.361 61.169 174.297 61.169C175.139 61.169 175.701 61.6112 175.701 62.3187C175.701 62.8493 175.327 63.2915 174.391 63.8221L176.075 65.4139C176.075 65.4139 176.356 64.7064 176.45 64.3527L176.918 64.5296C176.824 65.0602 176.637 65.5023 176.356 65.8561L177.198 66.652L176.918 66.9173ZM175.701 65.7676L173.923 63.9989C172.987 64.5296 172.706 64.8833 172.706 65.4139C172.706 66.033 173.268 66.4751 174.204 66.4751C174.859 66.4751 175.42 66.2983 175.795 65.8561L175.701 65.7676ZM173.361 62.3187C173.361 62.3187 173.455 62.8493 174.016 63.3799C174.859 62.9377 175.139 62.584 175.139 62.2302C175.139 61.8765 174.859 61.5227 174.297 61.5227C173.736 61.5227 173.361 61.8765 173.361 62.3187ZM180.287 61.6996H182.346V66.8289H183.001V61.6996H185.154V61.169H180.287V61.6996ZM190.488 66.2983V66.3867H186.932V64.2642H190.02V63.7336H186.932V61.6996H190.394V61.169H186.276V66.8289H190.488V66.3867H190.581L190.488 66.2983ZM191.425 63.9089C191.425 63.9254 191.424 63.942 191.424 63.9587L191.424 63.9989V63.822C191.424 63.8511 191.424 63.88 191.425 63.9089ZM191.425 63.9089C191.471 62.2746 192.768 61.0805 194.606 61.0805C195.448 61.0805 196.29 61.3458 196.852 61.8764L196.478 62.2302C196.01 61.788 195.355 61.5227 194.699 61.5227C193.202 61.5227 192.173 62.4955 192.173 63.9104C192.173 65.3254 193.296 66.2982 194.699 66.2982C195.355 66.2982 196.01 66.1213 196.478 65.5907L196.852 65.9444C196.29 66.4751 195.542 66.7404 194.606 66.7404C192.858 66.7404 191.473 65.5447 191.425 63.9089ZM203.216 66.8289H202.561V64.1758H198.817V66.8289H198.162V61.169H198.817V63.7336H202.561V61.169H203.216V66.8289ZM209.673 66.8289H210.235V61.169H209.58V65.7676L205.743 61.169H205.181V66.8289H205.836V62.2302L209.673 66.8289ZM211.732 63.9989C211.732 62.3186 213.042 61.0805 214.914 61.0805C216.786 61.0805 218.096 62.3186 218.096 63.9989C218.096 65.6791 216.786 66.9172 214.914 66.9172C213.042 66.9172 211.732 65.6791 211.732 63.9989ZM217.441 63.9989C217.441 62.6723 216.412 61.6111 214.914 61.6111C213.417 61.6111 212.387 62.5839 212.387 63.9989C212.387 65.4138 213.51 66.3866 214.914 66.3866C216.318 66.3866 217.441 65.4138 217.441 63.9989ZM220.155 61.169H219.5V66.8289H223.524V66.2983H220.155V61.169ZM223.992 63.9989C223.992 62.3186 225.303 61.0805 227.174 61.0805C229.046 61.0805 230.356 62.3186 230.356 63.9989C230.356 65.6791 229.046 66.9172 227.174 66.9172C225.303 66.9172 223.992 65.6791 223.992 63.9989ZM229.701 63.9989C229.701 62.6723 228.672 61.6111 227.174 61.6111C225.677 61.6111 224.648 62.5839 224.648 63.9989C224.648 65.4138 225.771 66.3866 227.174 66.3866C228.578 66.3866 229.701 65.4138 229.701 63.9989ZM236.626 63.9989H235.971V65.856C235.503 66.2097 234.942 66.2982 234.38 66.2982C232.977 66.2982 231.853 65.3254 231.853 63.9104C231.853 62.4955 232.977 61.5227 234.474 61.5227C235.129 61.5227 235.784 61.788 236.252 62.2302L236.626 61.8764C236.065 61.3458 235.316 61.0805 234.38 61.0805C232.509 61.0805 231.198 62.3186 231.198 63.9989C231.198 65.6791 232.509 66.9172 234.38 66.9172C235.223 66.9172 236.065 66.6519 236.626 66.2097V63.9989ZM240.463 66.8289H239.808V64.8833L237.375 61.169H238.03L240.089 64.3527L242.148 61.169H242.803L240.37 64.8833H240.463V66.8289ZM15.4806 59.7543L23.5291 67.0944H50.2013V34.2849H15.4806V59.7543ZM41.4977 48.4345C41.8721 46.0468 39.9068 44.8087 37.2863 43.9243H37.3799L38.2222 40.6522L36.1633 40.1216L35.321 43.3053C35.087 43.2611 34.8765 43.2168 34.6659 43.1726C34.4553 43.1284 34.2448 43.0842 34.0108 43.04H33.6364L34.4787 39.8563L32.4198 39.3257L31.5775 42.5978H31.2968C30.9224 42.5094 30.2673 42.3325 30.2673 42.3325L27.3661 41.625L26.8046 43.7475L28.302 44.1012C29.1443 44.2781 29.2379 45.2509 29.2379 45.2509L28.302 48.9651L26.8982 54.0944C26.8046 54.2713 26.5238 54.7134 25.9623 54.5366L24.4649 54.1828L23.4355 56.3937L26.1495 57.0128C26.3501 57.0128 26.5238 57.0636 26.6851 57.1107C26.8248 57.1515 26.9551 57.1896 27.0854 57.1896C27.2725 57.2781 27.6469 57.3665 27.6469 57.3665L26.8046 60.6386L28.8635 61.1692L29.7058 57.8971C30.2673 58.074 30.8288 58.2509 31.3904 58.3393L30.5481 61.523L32.607 62.0536L33.4493 58.7815C37.0056 59.4005 39.626 59.1352 40.749 56.1284C41.6849 53.6522 40.749 52.2373 38.8773 51.3529C40.1875 50.9992 41.217 50.2032 41.4977 48.4345ZM36.7248 54.7134C36.1633 56.9243 32.4198 56.04 30.7352 55.5978H30.6417C30.5481 55.5094 30.2673 55.5094 30.2673 55.5094L31.3904 51.176C31.5775 51.2645 31.7647 51.2645 31.9519 51.2645C32.0594 51.2912 32.1733 51.3189 32.2925 51.3479C34.1449 51.798 37.2524 52.5531 36.7248 54.7134ZM32.3599 49.3274L32.3262 49.3189V49.2305H31.9519L32.9813 45.3393C33.1685 45.4277 33.2621 45.4277 33.4493 45.4277C34.9467 45.693 37.9414 46.3121 37.3799 48.4345C36.8228 50.4524 33.7788 49.6851 32.3599 49.3274Z" fill="#2A4474"/>
</svg>