<svg width="279" height="93" viewBox="0 0 279 93" fill="none" xmlns="http://www.w3.org/2000/svg">
<rect x="2.83203" y="2.93103" width="273.776" height="88" rx="44" fill="white" fill-opacity="0.8"/>
<rect x="2.83203" y="2.93103" width="273.776" height="88" rx="44" stroke="#2A4474" stroke-width="4"/>
<path fill-rule="evenodd" clip-rule="evenodd" d="M57.5183 23.9474C60.5827 24.1685 63.0398 26.6554 63.2607 29.7226C63.5091 33.3978 60.638 36.4374 57.0489 36.4097C55.3096 36.4097 53.736 35.7189 52.6041 34.5584C51.6378 33.5636 50.3402 32.9833 48.9598 32.9833H48.5181C47.1377 32.9833 45.8402 33.5636 44.8739 34.5584C43.742 35.6913 42.1683 36.4097 40.4291 36.4097C38.6897 36.4097 37.1161 35.7189 35.9842 34.5584C35.0179 33.5636 33.7204 32.9833 32.3399 32.9833H31.843C30.4626 32.9833 29.1651 33.5636 28.1988 34.5307L28.1436 34.586L28.0884 34.6412C27.1221 35.6083 26.5423 36.9071 26.5423 38.2888V38.7861C26.5423 40.1678 27.1221 41.4665 28.116 42.4336C29.2479 43.5666 29.9657 45.1417 29.9657 46.8825C29.9657 48.6233 29.2755 50.1984 28.116 51.3314C27.1221 52.2985 26.5423 53.5972 26.5423 54.9789V55.5315C26.5423 56.9132 27.1221 58.2119 28.116 59.179L28.1712 59.2343C29.1375 60.2291 30.4626 60.7541 31.8154 60.7541H32.3952C33.748 60.7541 35.0455 60.1738 36.0118 59.2067C37.1437 58.0737 38.7173 57.3829 40.4291 57.3829C44.0457 57.3829 46.9169 60.4225 46.6684 64.0977C46.4475 67.1925 43.9628 69.6794 40.8984 69.9005C38.9382 70.0386 37.1437 69.2926 35.9014 67.9939C34.9627 66.9991 33.6928 66.4188 32.3399 66.4188H31.8154C30.4626 66.4188 29.1927 67.0267 28.254 67.9939C27.0669 69.2373 25.3828 69.9834 23.5055 69.9282C20.2754 69.8176 17.625 67.1925 17.487 63.9318C17.4041 62.0805 18.1496 60.3949 19.3643 59.2067C20.3306 58.2672 20.9103 56.9961 20.9103 55.6421V55.0065C20.9103 53.6249 20.3306 52.3262 19.3367 51.359C18.2048 50.2261 17.487 48.651 17.487 46.9101C17.487 45.1692 18.1772 43.5942 19.3367 42.4613C20.3306 41.4941 20.9103 40.1954 20.9103 38.8138V38.344C20.9103 36.99 20.3858 35.6636 19.3919 34.7241L19.3091 34.6412C16.7692 32.099 16.8796 27.8989 19.6128 25.4948C21.8766 23.4776 25.3276 23.4224 27.6742 25.329C27.8675 25.4948 28.0608 25.6883 28.254 25.8817C29.1927 26.8488 30.4903 27.3738 31.843 27.3738H32.3123C33.6928 27.3738 34.9903 26.7936 35.9566 25.7988C37.0885 24.6658 38.6621 23.9474 40.4014 23.9474C42.1407 23.9474 43.7144 24.6382 44.8463 25.7988C45.8125 26.7936 47.1101 27.3738 48.4905 27.3738H48.9874C50.3402 27.3738 51.6102 26.7936 52.5488 25.8264C53.7912 24.5553 55.5581 23.8092 57.5183 23.9474ZM134.428 32.0591C135.905 33.5375 135.905 35.9344 134.428 37.4128C132.95 38.8912 130.556 38.8912 129.079 37.4128C127.602 35.9344 127.602 33.5375 129.079 32.0591C130.556 30.5807 132.95 30.5807 134.428 32.0591ZM85.734 56.5814C81.2341 56.5814 78.4455 52.547 78.4455 46.9652C78.4455 41.4387 80.7923 37.3214 85.7063 37.3214C88.9362 37.3214 91.062 39.3939 91.449 42.1295H98.9583C98.5713 38.7307 97.0531 35.7464 94.4029 33.7568C92.2494 32.0988 89.2677 31.0765 85.734 31.0765C76.6786 31.0765 70.7982 37.9293 70.7982 46.9652C70.7982 56.0564 76.8719 62.7158 85.7894 62.7158C90.0681 62.7158 93.1878 61.5276 95.5071 59.2617C97.5774 57.2722 98.9583 54.5089 99.1511 51.497H91.6419C91.311 54.4537 89.102 56.5814 85.734 56.5814ZM113.01 39.7251C106.053 39.7251 101.387 44.699 101.387 51.248C101.387 57.7969 106.053 62.7708 113.01 62.7708C120.022 62.7708 124.605 57.7969 124.605 51.248C124.605 44.699 120.022 39.7251 113.01 39.7251ZM112.982 57.8245C109.973 57.8245 108.399 55.1994 108.399 51.248C108.399 47.2965 109.973 44.6161 112.982 44.6161C115.992 44.6161 117.62 47.2965 117.62 51.248C117.593 55.1994 115.992 57.8245 112.982 57.8245ZM125.737 45.1972H128.635V62.0808H135.537V40.3062H125.737V45.1972ZM145.808 43.2898C147.409 40.941 149.507 39.6699 152.516 39.6699C157.265 39.6699 160.081 43.0688 160.081 47.9045V62.0524H153.152V49.3137C153.152 47.0202 152.02 45.4452 149.756 45.4452C147.464 45.4452 145.946 47.3518 145.946 50.0322V62.0524H139.017V40.3055H145.67V43.2898H145.808ZM176.315 31.6844H163.367V62.0527H175.846C179.656 62.0527 182.72 61.0855 185.095 59.2894C188.491 56.6919 190.368 52.4089 190.368 47.0481C190.368 37.7635 184.708 31.6844 176.315 31.6844ZM175.294 55.7524H170.877V37.9846H175.377C180.098 37.9846 182.776 41.5492 182.776 47.0758C182.748 52.6299 180.208 55.7524 175.294 55.7524ZM203.453 39.8358C206.545 39.8358 209.002 40.8582 210.879 42.5437C213.474 44.9202 214.744 48.6782 214.716 53.1271H199.09C199.532 56.0561 201.134 57.8799 203.977 57.8799C205.799 57.8799 206.987 57.0785 207.593 55.7246H214.33C213.861 57.6864 212.591 59.5379 210.686 60.8642C208.863 62.1353 206.655 62.8538 203.895 62.8538C196.716 62.8538 192.299 57.8799 192.299 51.3033C192.299 44.8096 196.826 39.8358 203.453 39.8358ZM203.563 44.7268C200.94 44.7268 199.588 46.3847 199.118 48.9822H207.677C207.428 46.3847 205.799 44.7268 203.563 44.7268ZM227.414 48.2935L227.413 48.2934C225.058 47.8913 223.136 47.5631 223.136 46.2188C223.136 44.8648 224.461 44.2292 226.145 44.2292C228.05 44.2292 229.376 44.8372 229.624 46.7715H236.001C235.67 42.4884 232.357 39.808 226.2 39.808C221.065 39.808 216.814 42.1845 216.814 46.7715C216.814 51.8835 220.845 52.8783 224.627 53.5138C224.906 53.5617 225.182 53.6069 225.453 53.6515C228.006 54.0698 230.148 54.421 230.148 56.1942C230.148 57.6034 228.823 58.3495 226.753 58.3495C224.461 58.3495 223.025 57.2995 222.749 55.1165H216.207C216.427 59.9246 220.403 62.8536 226.78 62.8536C232.467 62.8536 236.664 60.3944 236.664 55.6416C236.691 50.0874 232.191 49.0926 228.354 48.4571C228.035 48.3997 227.721 48.346 227.414 48.2935ZM260.601 40.3057L252.954 48.485L261.485 62.0803H253.478L248.26 53.1826L246.162 55.3932V62.0803H239.343V31.6844H246.162V47.6561L252.622 40.3057H260.601ZM40.3743 48.9826C41.5332 48.9826 42.4725 48.0423 42.4725 46.8825C42.4725 45.7226 41.5332 44.7824 40.3743 44.7824C39.2155 44.7824 38.2761 45.7226 38.2761 46.8825C38.2761 48.0423 39.2155 48.9826 40.3743 48.9826ZM59.2028 46.8825C59.2028 48.0423 58.2634 48.9826 57.1046 48.9826C55.9457 48.9826 55.0064 48.0423 55.0064 46.8825C55.0064 45.7226 55.9457 44.7824 57.1046 44.7824C58.2634 44.7824 59.2028 45.7226 59.2028 46.8825ZM57.1046 65.7554C58.2634 65.7554 59.2028 64.8152 59.2028 63.6553C59.2028 62.4955 58.2634 61.5553 57.1046 61.5553C55.9457 61.5553 55.0064 62.4955 55.0064 63.6553C55.0064 64.8152 55.9457 65.7554 57.1046 65.7554Z" fill="#2A4474"/>
</svg>