<svg width="272" height="93" viewBox="0 0 272 93" fill="none" xmlns="http://www.w3.org/2000/svg">
<rect x="1.99658" y="2.93103" width="267.835" height="88" rx="44" fill="white" fill-opacity="0.8"/>
<rect x="1.99658" y="2.93103" width="267.835" height="88" rx="44" stroke="#2A4474" stroke-width="4"/>
<path fill-rule="evenodd" clip-rule="evenodd" d="M34.9214 18.931H61.7086L75.1496 32.6324H48.3623L48.2677 32.7296V32.6324L34.9225 18.9322L48.2677 32.7296H21.4805L34.9214 18.931ZM48.2676 60.2297H75.0548L61.7086 73.931L34.8268 73.931L21.4805 60.2295V32.7296L48.173 32.7296L34.8739 46.3825L34.9214 46.4309V46.5283L48.2676 60.2297ZM61.7086 46.4311L61.6139 46.4309L48.2677 32.7296L75.0548 32.7296L61.7086 46.4311ZM61.7086 46.4311H61.8033L75.1496 60.1325H48.3623L61.7086 46.4311ZM92.1881 50.9008C91.8095 51.2895 91.2416 51.4838 90.579 51.4838L90.4843 51.581C89.5378 51.581 88.7805 51.1923 88.4019 50.4149C88.0233 49.5404 87.834 48.3743 87.834 46.9167V46.528C87.7393 45.3619 87.9286 44.1958 88.4019 43.1269C88.7805 42.2524 89.4431 41.8637 90.4843 41.8637C91.2416 41.8637 91.7148 42.1552 92.0935 42.6411C92.4721 43.2241 92.6614 44.0015 92.6614 44.6817L97.5834 44.5845C97.6781 42.7383 97.0155 40.7948 95.6903 39.5315C94.3652 38.2683 92.6614 37.6853 90.4843 37.6853C87.9286 37.6853 85.9409 38.4626 84.5211 40.1146C83.1013 41.7665 82.4387 43.9043 82.4387 46.528V46.9167C82.2494 49.2488 83.1013 51.4838 84.5211 53.3301C85.9409 54.8849 87.9286 55.7594 90.579 55.7594C92.4721 55.7594 94.2705 55.1764 95.6903 53.9131C97.0155 52.7471 97.7727 50.9979 97.6781 49.1517H92.756C92.756 49.929 92.5667 50.5121 92.1881 50.9008ZM107.522 42.6411H109.51L110.078 37.6853C109.51 37.4909 109.037 37.4909 108.563 37.4909C107.806 37.4909 107.049 37.7824 106.481 38.2683C105.818 38.8513 105.345 39.5315 105.061 40.4061L104.872 37.7824H99.8551V55.3707H105.156V43.8072C105.345 43.4185 105.629 43.1269 106.008 42.9326C106.386 42.7383 106.954 42.6411 107.522 42.6411ZM119.733 47.6941L119.638 47.5969L119.449 47.4997L116.798 37.6853H111.119L117.082 55.4679L116.704 56.634C116.514 57.1198 116.23 57.5085 115.852 57.8001C115.473 58.0916 114.905 58.1887 114.053 58.1887L113.769 58.0916H113.485L112.823 61.9785C113.485 62.1728 113.959 62.27 114.243 62.27C114.527 62.3672 114.905 62.3672 115.379 62.3672C117.177 62.3672 118.502 61.9785 119.354 61.1039C120.206 60.2294 120.868 59.1605 121.436 57.8972L128.252 37.7824H122.572L119.733 47.6941ZM139.515 43.0298C139.989 43.9043 140.178 45.1676 140.178 46.6252L140.083 46.7223V47.0139C140.178 48.1799 139.989 49.2488 139.515 50.3177C139.137 51.0951 138.474 51.4838 137.528 51.4838C137.054 51.4838 136.486 51.3866 136.013 51.1923C135.635 50.9979 135.067 50.3177 135.067 50.3177V42.9326C135.256 42.5439 135.635 42.1552 136.013 41.9609C136.392 41.7665 136.96 41.6693 137.528 41.6693C138.38 41.6693 139.137 42.1552 139.515 43.0298ZM143.775 53.2329C144.911 51.6782 145.479 49.5404 145.479 46.9167V46.7223C145.573 44.3902 145.005 42.058 143.775 40.1146C142.639 38.4626 140.935 37.5881 138.853 37.5881C137.244 37.4909 135.729 38.3655 134.877 39.8231L134.688 37.8796H129.671V62.0757H134.972V53.816C135.919 54.982 137.338 55.6622 138.853 55.6622C140.841 55.6622 142.639 54.7877 143.775 53.2329ZM154.187 37.7824V33.4097L154.092 33.5068H148.697V37.8796H146.331V41.6693H148.697V49.7347C148.697 51.8725 149.17 53.3301 150.117 54.3018C150.969 55.2736 152.294 55.7594 154.092 55.7594C155.228 55.7594 156.364 55.6622 157.405 55.3707L157.027 51.2895C156.553 51.3866 156.08 51.3866 155.512 51.3866C155.228 51.3866 154.85 51.2895 154.566 50.9979C154.282 50.7064 154.187 50.2206 154.187 49.6375V41.5722H157.121V37.7824H154.187ZM164.41 50.2206C163.936 49.346 163.747 48.1799 163.747 46.7223V46.3336C163.747 44.9732 163.936 43.8072 164.41 42.9326C164.883 42.058 165.64 41.6693 166.681 41.6693C167.723 41.6693 168.48 42.058 168.953 42.9326C169.426 44.0015 169.616 45.1676 169.616 46.3336V46.7223C169.616 48.1799 169.426 49.346 168.953 50.2206C168.48 51.0951 167.723 51.4838 166.681 51.4838C165.64 51.4838 164.883 51.0951 164.41 50.2206ZM160.623 40.0174C159.109 41.7665 158.352 44.0987 158.446 46.4308H158.352V46.8195C158.257 49.1517 159.014 51.4838 160.529 53.2329C162.043 54.7877 164.126 55.6622 166.681 55.6622C169.237 55.6622 171.319 54.8849 172.739 53.2329C174.159 51.581 174.916 49.4432 174.916 46.8195V46.4308C175.011 44.0987 174.254 41.7665 172.739 40.0174C171.319 38.3655 169.237 37.4909 166.681 37.4909C164.126 37.4909 162.043 38.3655 160.623 40.0174ZM182.307 37.8796L182.299 37.7824L182.489 37.8796H182.307ZM182.307 37.8796H177.472V55.4679H182.773V42.8354C183.341 42.1552 184.192 41.7665 185.044 41.7665C185.896 41.7665 186.464 41.9609 186.843 42.3496C187.221 42.7383 187.411 43.5156 187.411 44.4874V55.3707H192.711V44.4874C192.711 42.058 192.238 40.3089 191.292 39.1429C190.345 38.074 189.02 37.4909 187.316 37.4909C186.37 37.3937 185.423 37.6853 184.571 38.1711C183.719 38.657 183.057 39.3372 182.489 40.2118L182.307 37.8796ZM201.325 42.5439C201.704 41.9609 202.271 41.6693 203.029 41.6693C203.881 41.6693 204.354 41.8637 204.733 42.3496C205.111 42.8354 205.3 43.5156 205.3 44.3902V44.7789H200.662C200.757 43.8072 200.946 43.1269 201.325 42.5439ZM197.349 53.2329C198.864 54.8849 200.852 55.6622 203.407 55.6622V55.7594C204.733 55.7594 205.963 55.5651 207.194 55.1764C208.235 54.7877 209.276 54.3018 210.128 53.7188L208.897 50.4149C207.383 51.1923 205.774 51.4838 204.165 51.4838C203.218 51.4838 202.366 51.1923 201.798 50.6093C201.136 50.0262 200.852 49.2488 200.662 48.2771H210.506V45.3619C210.601 43.3213 209.939 41.1835 208.519 39.6287C207.194 38.1711 205.395 37.4909 203.029 37.4909C200.473 37.4909 198.58 38.3655 197.16 40.0174C195.74 41.6693 195.078 43.8072 195.078 46.528V47.111C194.983 49.346 195.835 51.581 197.349 53.2329ZM227.544 47.9856H227.45H227.355L224.421 37.7824H221.013L218.173 47.9856H218.079L216.186 37.7824H211.264L215.334 55.3707H219.877L222.717 46.0421H222.812L225.651 55.3707H230.195L234.265 37.7824H229.343L227.544 47.9856ZM244.487 49.2488C244.866 49.6375 245.15 50.4149 245.15 50.4149V50.5121C245.15 51.0951 244.961 51.4838 244.582 51.6782C244.204 51.9697 243.636 52.0668 242.973 52.0668C242.121 52.0668 241.459 51.8725 240.985 51.4838C240.512 51.1923 240.228 50.6093 240.228 49.7347L235.401 49.8319C235.401 51.2895 236.063 52.7471 237.388 53.9131C238.714 55.1764 240.512 55.7594 242.878 55.7594C244.771 55.8566 246.665 55.2736 248.274 54.2047C249.693 53.2329 250.356 51.8725 250.356 50.3177C250.451 48.8601 249.883 47.5969 248.842 46.7223C247.422 45.7506 245.907 45.1676 244.204 44.8761C243.257 44.7789 242.405 44.4874 241.553 44.0015C241.175 43.71 240.891 43.3213 240.891 42.8354C240.891 42.3496 241.08 41.9609 241.459 41.6693C241.837 41.2807 242.31 41.1835 242.878 41.1835C243.636 41.1835 244.109 41.3778 244.487 41.7665C244.866 42.1552 245.055 42.6411 245.055 43.3213L250.261 43.2241C250.261 41.5722 249.504 40.0174 248.274 39.1429C246.854 38.074 245.055 37.5881 242.784 37.5881C240.701 37.5881 238.903 38.074 237.672 39.1429C236.442 40.0174 235.779 41.475 235.779 43.0298C235.779 44.3902 236.253 45.6534 237.294 46.528C238.619 47.4997 240.228 48.0828 241.837 48.3743C242.784 48.4715 243.636 48.763 244.487 49.2488Z" fill="#2A4474"/>
</svg>