<svg width="272" height="93" viewBox="0 0 272 93" fill="none" xmlns="http://www.w3.org/2000/svg">
<rect x="2.16125" y="2.93103" width="267.835" height="88" rx="44" fill="white" fill-opacity="0.8"/>
<rect x="2.16125" y="2.93103" width="267.835" height="88" rx="44" stroke="#2A4474" stroke-width="4"/>
<path fill-rule="evenodd" clip-rule="evenodd" d="M27.5789 57.9347C27.6281 58.6126 27.6772 59.2905 27.6772 59.92V60.0168H28.4637C28.7095 59.6779 28.9061 59.3631 29.1028 59.0484C29.2994 58.7337 29.496 58.4189 29.7418 58.08C33.203 53.1998 36.7579 48.2735 40.2771 43.3966L40.2786 43.3945C41.8569 41.2073 43.4281 39.03 44.9804 36.8713C45.2753 36.5807 45.9635 36.0965 45.9635 36.0965H55.0084C48.2247 45.4903 41.5394 54.7873 34.9524 63.9874C34.9524 64.0843 35.149 64.278 35.149 64.278C36.9551 65.2547 38.7739 66.2565 40.6055 67.2654C43.8587 69.0574 47.1522 70.8716 50.4859 72.6065C50.9775 72.897 51.9606 72.897 52.4522 72.6065C56.6584 70.1797 60.9014 67.789 65.1586 65.3904L65.1599 65.3897C67.8676 63.864 70.5812 62.3351 73.2947 60.7916C74.0812 60.3074 74.5728 59.5326 74.5728 58.5642C74.6033 57.7818 74.6433 56.9808 74.684 56.1668L74.684 56.1666C74.7743 54.361 74.8677 52.492 74.8677 50.623C74.8348 49.0665 74.8129 47.4991 74.7909 45.9282C74.7473 42.8075 74.7035 39.6727 74.5728 36.5807C74.5728 35.6123 74.4744 34.8376 74.2778 33.6754C73.8846 34.1597 73.7862 34.2565 73.5896 34.4502C69.756 39.8968 65.7565 45.5067 61.757 51.1167L61.7565 51.1175L61.7557 51.1185L61.7549 51.1197L61.7537 51.1214L61.746 51.1322C60.4156 52.9982 59.0853 54.8642 57.7611 56.7242C57.2696 57.4021 56.778 57.6926 55.9915 57.6926H48.7163C48.5688 57.6926 48.3968 57.6442 48.2247 57.5958C48.0527 57.5473 47.8806 57.4989 47.7332 57.4989C53.3508 49.4875 59.04 41.5465 64.6787 33.676L64.6794 33.6751L64.7353 33.597L64.7447 33.5839C65.6956 32.2566 66.6451 30.9313 67.5925 29.608C67.4725 29.4898 67.4013 29.3876 67.3459 29.308L67.3458 29.308C67.265 29.1919 67.2175 29.1238 67.1009 29.1238C65.4296 28.2199 63.7583 27.2946 62.087 26.3692C58.7443 24.5184 55.4016 22.6676 52.059 20.989C51.3708 20.8921 50.4859 20.8921 49.7978 21.1826C46.8907 22.7597 43.9837 24.39 41.0767 26.0204L41.0766 26.0205L41.0764 26.0206L41.0763 26.0206L41.0762 26.0207L41.0761 26.0208L41.0759 26.0209C37.1996 28.1949 33.3232 30.3689 29.4469 32.4165C27.9722 33.2881 27.4806 34.3533 27.4806 35.806V55.9494C27.4806 56.5789 27.5297 57.2568 27.5789 57.9347ZM206.903 52.2696C207.001 49.3643 205.919 47.3305 203.167 46.1684C203.219 46.1425 203.265 46.1235 203.307 46.1058C203.423 46.0577 203.514 46.0197 203.658 45.8779C205.821 44.7158 206.608 42.6821 206.116 40.4547C205.624 38.3241 203.953 37.0651 201.889 36.7746C200.385 36.4661 198.762 36.4328 197.12 36.3991C196.186 36.3799 195.246 36.3607 194.318 36.2904H189.304C189.108 36.6778 189.108 36.9683 189.108 36.9683V56.2401C189.108 57.2086 189.599 57.2086 190.288 57.2086H198.841C200.119 57.2086 201.2 57.2086 202.38 56.918C204.838 56.2401 206.706 54.3033 206.903 52.2696ZM196.179 53.088C195.502 53.0663 194.817 53.0443 194.122 53.0443C194.122 51.6239 194.126 50.2014 194.318 48.6864C196.285 48.6864 198.349 48.7832 200.316 48.9769C201.397 49.0737 202.085 49.8485 202.085 51.0106C201.889 52.0759 201.102 52.8506 200.119 53.0443C198.815 53.1727 197.511 53.1308 196.179 53.088H196.179ZM195.891 44.662C195.302 44.6405 194.712 44.6189 194.122 44.6189H194.023V40.4547C194.617 40.4547 195.222 40.4329 195.822 40.4112C197.013 40.3683 198.189 40.3259 199.234 40.4547C200.217 40.6484 201.2 41.1326 201.2 42.3915C201.2 43.6505 200.709 44.4252 199.431 44.6189C198.251 44.7481 197.071 44.705 195.891 44.662ZM148.8 36.484C149.685 39.2926 150.545 42.077 151.405 44.8614L151.405 44.8617L151.406 44.8623L151.406 44.8629L151.406 44.8637L151.406 44.8649C152.266 47.6478 153.126 50.4308 154.01 53.2379H154.305C155.19 50.4295 156.05 47.6452 156.911 44.861C157.771 42.0767 158.631 39.2925 159.516 36.484H162.564C161.882 38.4083 161.243 40.3325 160.607 42.2472L160.606 42.2475L160.606 42.2478L160.606 42.2484L160.606 42.25C159.865 44.4779 159.129 46.693 158.336 48.88C158.048 49.7681 157.733 50.6433 157.416 51.5245C156.868 53.0454 156.314 54.5845 155.878 56.2401C155.625 57.4865 154.721 57.4496 153.848 57.414C153.704 57.4081 153.56 57.4022 153.421 57.4022C152.634 57.4022 152.143 57.1117 151.946 56.2401C150.471 51.1074 148.898 46.1684 147.129 40.6483C146.44 42.3915 145.949 44.0378 145.555 45.3936C144.966 47.2338 144.4 49.0256 143.835 50.8174L143.835 50.8181L143.834 50.8194C143.269 52.6102 142.704 54.4009 142.115 56.2401C141.918 57.0148 141.426 57.4022 140.64 57.4022C140.396 57.3421 140.114 57.3659 139.832 57.3898C139.206 57.4427 138.582 57.4956 138.379 56.6275C137.248 53.2864 136.167 49.9695 135.085 46.6526C134.004 43.3357 132.922 40.0188 131.792 36.6777C131.907 36.6777 131.954 36.6112 131.994 36.5562C132.022 36.5173 132.046 36.484 132.087 36.484C134.839 36.2903 135.036 36.2903 135.822 38.9051C135.998 39.4595 136.174 40.0126 136.35 40.5646C137.646 44.6407 138.924 48.6597 140.05 52.7537C140.05 52.8461 140.095 52.9165 140.152 53.0068C140.215 53.1059 140.293 53.229 140.345 53.4316C141.16 50.7006 142.006 48.0288 142.848 45.367L142.848 45.3664L142.848 45.3659L142.849 45.3657L142.849 45.3654L142.849 45.3649L142.849 45.3642L142.849 45.3637L142.849 45.3632C143.53 43.2126 144.208 41.0685 144.867 38.9051C145.044 38.4256 145.175 38.0354 145.281 37.7187L145.281 37.718L145.281 37.7178L145.281 37.7176C145.518 37.0102 145.632 36.6689 145.868 36.5151C146.088 36.3717 146.414 36.391 147.044 36.4283C147.452 36.4524 147.986 36.484 148.702 36.484H148.8ZM245.048 52.0762C244.606 51.5919 244.164 51.1077 243.672 50.6235C238.953 53.8193 236.004 53.8193 233.447 50.8172C231.481 48.4929 231.678 44.6192 233.742 42.3918C234.725 41.2297 236.004 40.6486 237.478 40.4549C239.936 40.0676 241.902 41.2297 243.672 42.9729C243.898 42.706 244.124 42.4442 244.347 42.1851C245.096 41.3163 245.819 40.4786 246.425 39.5834C242.296 34.9349 234.529 34.838 230.203 39.0991C225.976 43.4571 225.976 50.8172 231.186 55.0783C235.709 58.7583 242.591 58.1773 246.425 53.5288C245.933 53.0446 245.491 52.5604 245.048 52.0762ZM94.1372 41.7136V57.2085H91.1878V36.5809C93.154 36.0967 94.4321 36.5809 95.5136 38.1304C97.5692 41.1351 99.8038 44.1399 102.127 47.2635L102.127 47.2635L102.127 47.2636L102.128 47.2645C103.248 48.7716 104.39 50.3064 105.542 51.8822V36.3872H108.491V56.918C106.426 57.5959 105.935 57.2085 104.755 55.659C104.212 54.9252 103.671 54.1962 103.133 53.4705C100.261 49.5992 97.4592 45.8219 94.7271 41.9073C94.6333 41.9073 94.5618 41.8632 94.4701 41.8066C94.3695 41.7445 94.2445 41.6674 94.0389 41.6168L94.1372 41.7136ZM117.241 48.1053H127.269L127.17 48.0084V48.0083C127.17 47.0399 127.17 46.1684 127.367 45.0063H117.339V38.8083H128.645V36.2904H114.291V57.0149H128.842V54.3033H117.241V48.1053ZM226.172 36.2901L226.369 36.5806C226.565 39.2276 225.32 40.5512 222.633 40.5512H220.175V57.0145H215.357V40.5512H210.344C209.164 40.5512 208.869 40.2606 208.869 39.0985C208.869 37.1616 209.852 36.1932 211.818 36.1932H226.172V36.2901ZM164.545 53.0598C164.382 53.3593 164.21 53.6742 164.038 54.0128H163.841C166.791 56.7244 170.232 57.7897 174.066 57.4992C176.426 57.2086 178.588 56.0465 179.375 53.8191C180.555 50.6233 179.867 47.9117 175.836 46.3622C174.853 45.9748 173.894 45.6116 172.935 45.2485C171.977 44.8853 171.018 44.5221 170.035 44.1348C168.855 43.6506 168.266 42.779 168.561 41.6168C168.855 40.8421 169.642 40.1642 170.33 39.68C170.822 39.3894 171.608 39.1958 172.296 39.3894C173.549 39.5746 174.802 39.917 176.081 40.2663C176.808 40.4653 177.544 40.6664 178.294 40.8421C178.518 40.4554 178.71 40.0372 178.925 39.5694C179.087 39.2173 179.262 38.837 179.473 38.421C176.426 36.6778 173.181 35.9031 169.642 36.8715C167.086 37.4526 165.513 39.1958 165.316 41.1326C165.021 44.5221 166.299 46.0716 169.052 47.2338C169.717 47.465 170.398 47.6809 171.088 47.8998C172.132 48.2309 173.197 48.5688 174.263 48.9769C175.344 49.4612 176.327 50.0422 176.524 51.4949C176.721 53.0444 175.344 54.3033 173.28 54.497C170.134 54.6907 167.577 53.5286 165.316 51.4949C165.124 51.9988 164.849 52.5027 164.545 53.0598Z" fill="#2A4474"/>
</svg>