<svg width="192" height="185" viewBox="0 0 192 185" fill="none" xmlns="http://www.w3.org/2000/svg">
<path d="M158.753 168.281C158.753 168.281 183.135 67.7702 190.646 29.3234C198.157 -9.12348 133.435 -4.76176 133.435 18.834C133.435 40.6851 138.115 171.77 138.115 171.77L158.753 168.281Z" fill="#6196E2"/>
<g style="mix-blend-mode:screen" opacity="0.5">
<path d="M152.224 26.685C160.283 24.4084 167.816 21.8765 176.378 22.3872C181.423 22.7063 186.309 23.3233 191.194 24.2169C191.149 25.834 191.012 27.4936 190.646 29.3021C190.304 31.0468 189.939 32.8978 189.528 34.8765C187.861 34.7489 186.24 34.6425 184.688 34.5574C167.542 33.7914 155.26 45.0042 139.393 48.8765C137.544 49.3233 135.809 49.6 134.119 49.7489C133.937 42.9404 133.777 36.7914 133.64 31.6638C139.279 31.1744 147.361 28.0467 152.224 26.6637V26.685ZM168.045 129.451C167.154 133.217 166.287 136.813 165.488 140.196C157.337 140.409 150.009 142.068 142.247 145.026C140.489 145.685 138.845 146.409 137.247 147.068C137.087 142.345 136.905 137.111 136.722 131.536C143.366 130.558 150.1 128.919 156.63 128.877C160.214 128.877 164.118 129.004 168.045 129.451ZM163.045 64.9404C170.51 62.4723 176.857 60.6851 183.98 60.5362C183.455 62.8766 182.93 65.2596 182.382 67.6851C179.209 68.0256 176.104 68.7702 172.953 70.0893C167.451 72.4085 162.451 75.9617 156.812 77.9404C149.233 80.6 142.772 80.4298 134.987 79.1745C134.827 74.3447 134.69 69.5787 134.553 64.983C135.855 65.3234 137.179 65.6638 138.48 65.983C147.087 68.0042 154.735 67.6851 163.045 64.9404ZM153.593 98.1958C160.671 97.6213 168.068 97.6852 175.282 98.6639C174.551 101.77 173.843 104.855 173.113 107.898C172.77 107.877 172.428 107.813 172.086 107.792C159.324 106.94 148.251 114.77 136.174 115.855C135.992 110.685 135.832 105.366 135.649 100.004C141.585 100.217 147.475 98.6639 153.571 98.1745L153.593 98.1958Z" fill="#61B6E5"/>
</g>
<path d="M161.881 21.1531C151.693 21.1531 143.434 17.6286 143.434 13.2808C143.434 8.93305 151.693 5.40845 161.881 5.40845C172.068 5.40845 180.327 8.93305 180.327 13.2808C180.327 17.6286 172.068 21.1531 161.881 21.1531Z" fill="#4971AA"/>
<path d="M123.892 176.472C123.892 176.472 118.778 34.451 116.061 15.5148C113.344 -3.42143 73.0267 -0.0809894 62.0912 15.1956C51.1557 30.4722 111.29 178.281 111.29 178.281L123.892 176.472Z" fill="#6196E2"/>
<path d="M68.8033 19.3661C69.7393 23.6214 78.5973 25.5363 88.574 23.6214C98.5506 21.7065 105.879 16.7278 104.943 12.4724C104.007 8.21712 95.149 6.30222 85.1723 8.21712C75.1956 10.132 67.8672 15.1107 68.8033 19.3661Z" fill="#4971AA"/>
<g style="mix-blend-mode:screen" opacity="0.5">
<path d="M120.33 88.3234C120.559 93.3022 120.764 98.3022 120.992 103.281C116.746 104.834 112.134 105.302 106.655 105.132C98.231 104.855 90.6971 101.579 82.387 100.94C82.2729 100.94 82.1359 100.941 82.0218 100.919C80.1497 95.6001 78.3233 90.2596 76.5654 84.983C88.2543 85.1958 98.6191 90.4299 110.308 90.6214C114.098 90.6852 117.317 89.6852 120.353 88.3447L120.33 88.3234ZM60.8584 19.2808C70.2187 21.1532 79.0539 25.217 88.3228 27.5787C95.7425 29.4723 103.162 29.4936 109.486 25.3021C111.86 23.7276 114.212 22.1531 116.609 20.6212C116.906 23.8552 117.203 28.0893 117.522 33.068C110.81 37.7489 104.897 40.6425 95.3772 40.5787C83.8481 40.5149 73.7573 34.8128 62.662 32.6425C62.4109 32.6 62.1826 32.5574 61.9314 32.4936C60.9726 26.9829 60.5616 22.4723 60.8813 19.2595L60.8584 19.2808ZM94.3499 53.983C101.085 56.3234 107.386 58.4936 114.737 57.366C116.175 57.1532 117.522 56.7489 118.801 56.2595C119.029 60.7276 119.257 65.3873 119.486 70.1958C109.988 72.983 100.126 71.0043 90.4688 67.8766C83.6427 65.6639 76.2001 62.1106 69.374 62.3234C67.8444 57.1532 66.4518 52.1957 65.2418 47.5574C75.6294 46.7915 84.4417 50.5362 94.3271 53.983H94.3499ZM121.906 125.175C122.18 132.026 122.453 138.536 122.682 144.494C121.974 145.068 121.221 145.6 120.422 146.047C113.641 149.919 106.518 149.238 99.3496 147.919C97.2265 142.387 94.9206 136.302 92.5463 129.898C97.4776 131.068 102.569 132.877 107.294 132.834C112.431 132.792 117.134 128.877 121.951 125.153L121.906 125.175ZM123.047 153.983C123.207 158.387 123.367 162.281 123.481 165.558C118.07 166.579 112.911 168.324 108.299 170.898C106.975 167.579 105.285 163.281 103.299 158.217C107.477 156.409 111.792 155.026 116.289 154.515C118.413 154.26 120.673 154.089 123.024 154.004L123.047 153.983Z" fill="#61B6E5"/>
</g>
<path d="M90.9482 178.898C90.9482 178.898 66.8855 91.5787 55.6532 54.4297C44.4209 17.302 3.50976 41.2382 0.427719 57.685C-4.02411 81.4936 78.0722 184.685 78.0722 184.685L90.9254 178.877L90.9482 178.898Z" fill="#6196E2"/>
<path d="M6.7744 57.3658C8.80626 61.2807 17.8926 61.0679 27.0473 56.9189C36.2021 52.77 41.9781 46.2381 39.9462 42.3232C37.9144 38.4083 28.8281 38.621 19.6733 42.77C10.5185 46.9189 4.74254 53.4509 6.7744 57.3658Z" fill="#4971AA"/>
<g style="mix-blend-mode:screen" opacity="0.5">
<path d="M72.0452 146.089C75.6751 146.749 79.1909 148.111 82.7067 149.217C84.008 153.855 85.1952 158.132 86.2454 161.919C82.3186 161.409 78.4604 160.26 74.5564 159.515C70.3557 158.728 63.3926 157.536 57.8906 158.302C54.9912 154.409 51.9092 150.238 48.7587 145.855C56.2469 143.515 64.4885 144.728 72.068 146.089H72.0452ZM18.0525 62.1957C23.7828 62.3447 29.3761 62.8553 35.0151 64.0255C41.9554 65.4724 47.5259 66.2808 52.2516 60.0681C53.5301 58.3872 54.7629 56.8553 55.9958 55.5149C57.1601 59.3872 58.4614 63.7702 59.854 68.5149C57.8221 71.9191 55.3794 74.1319 50.9047 75.5149C40.1062 78.8128 29.6957 74.4085 18.8515 74.4298C14.1029 74.4298 9.19447 74.0893 4.90245 75.9404C2.91625 71.451 1.50079 67.4298 0.79306 64.0468C6.15809 62.3446 12.0482 62.068 18.0753 62.2383L18.0525 62.1957ZM67.3879 118.089C69.8535 118.664 72.3191 119.855 74.8076 120.919C76.4513 126.77 78.0494 132.494 79.579 137.941C77.2732 137.706 74.9902 137.26 72.8442 136.558C68.2554 135.047 64.7168 132.536 59.7399 132.217C54.8771 131.919 48.9185 131.877 44.3068 133.196C43.1425 133.536 41.9097 133.983 40.6541 134.494C38.0286 130.749 35.3804 126.941 32.8006 123.111C39.1245 119.877 46.2702 117.94 53.0964 117.579C57.8906 117.323 62.7077 116.983 67.4107 118.068L67.3879 118.089ZM53.5758 88.8766C55.2195 89.2383 58.644 90.5362 60.3791 90.2171C62.5936 89.8341 64.0547 88.4511 65.1277 86.7702C66.7486 92.3872 68.3924 98.217 70.059 104.068C60.6759 108.6 49.1924 102.919 39.4441 103.6C32.7777 104.068 29.0108 108.047 25.9516 112.834C22.4586 107.472 19.1483 102.175 16.1119 97.0681C21.4313 91.5788 27.9378 87.9617 36.5675 87.3447C42.4348 86.9192 47.914 87.6213 53.5758 88.8979V88.8766Z" fill="#61B6E5"/>
</g>
</svg>