<svg width="235" height="185" viewBox="0 0 235 185" fill="none" xmlns="http://www.w3.org/2000/svg">
<path d="M234.151 145.749C234.097 144.949 233.733 144.207 232.908 143.66C231.523 142.755 229.68 143.114 228.08 143.517C203.359 149.766 178.662 156.018 153.942 162.266C169.825 150.046 183.338 135.204 193.724 118.578C195.46 115.804 197.173 112.747 196.815 109.519C196.458 106.29 193.12 103.073 189.765 103.898C187.405 104.487 186.051 106.68 184.932 108.684C180.526 116.595 176.115 124.528 171.733 132.444C170.058 118.137 174.812 103.429 184.629 92.6291C185.976 91.1557 187.447 89.6821 188.065 87.8189C188.707 85.9602 188.22 83.5686 186.38 82.5559C183.467 80.9743 180.213 83.8413 178.482 86.4533C172.548 95.4557 168.468 105.543 166.493 116.017C165.085 123.548 164.7 131.361 161.819 138.459C157.727 148.474 148.896 156.223 138.921 161.483C128.946 166.743 117.801 169.788 106.762 172.806C123.178 157.823 127.235 134.244 141.704 117.601C149.888 108.198 161.032 101.479 170.298 92.9958C177.189 86.6808 183.034 79.3832 187.598 71.4315C188.627 69.6439 189.096 66.6836 186.946 66.1259C185.704 65.8046 184.537 66.7065 183.629 67.5629C170.698 79.6513 157.766 91.7398 144.811 103.824C147.021 92.0676 149.227 80.3341 151.437 68.5779C152.168 64.5963 152.849 60.3493 150.292 56.6937C149.048 54.8838 146.845 53.5257 144.572 53.6428C140.4 53.8762 138.467 58.4045 137.474 62.1754C131.105 86.2133 123.701 109.759 116.647 133.578C110.395 112.035 111.412 89.3389 115.555 67.6126C116.323 63.5679 115.956 57.8031 111.585 57.2094C108.486 56.7795 106.185 59.6356 104.765 62.1885C96.4557 77.3122 93.7514 95.1632 97.1921 112.12C99.3635 122.774 103.858 133.042 105.032 143.815C106.205 154.588 103.166 166.634 93.5726 172.406C81.2275 147.255 74.7268 119.713 74.6575 92.3061C74.634 85.4882 75.1164 78.3679 78.8757 72.6171C83.5005 65.5602 92.1483 61.94 99.5043 57.3151C108.812 51.4675 116.573 43.5452 121.966 34.3505C123.418 31.8965 124.041 27.8251 121.117 26.9856C119.5 26.5257 117.917 27.5139 116.617 28.461C104.439 37.2693 92.2601 46.0777 80.0815 54.886C85.4338 41.0097 90.7861 27.1333 96.1625 13.2614C97.5955 9.54815 98.8667 4.94474 95.9643 1.94646C93.3996 -0.710713 88.622 -0.449015 85.5932 1.599C82.5643 3.64702 80.8544 6.96056 79.363 10.1747C67.6235 35.3885 61.5992 63.0012 61.7317 90.7451C52.9389 71.456 49.2822 50.227 51.1989 29.5802C51.428 26.9713 51.7505 24.2632 50.784 21.7602C49.8175 19.2571 47.1376 17.0903 44.378 17.5367C41.4082 18.0375 39.9499 21.0718 39.0826 23.7495C31.9501 46.0891 35.1132 71.3666 47.6792 92.0467C55.8668 105.504 68.2831 118.692 66.6923 133.887C45.1424 121.788 28.4618 102.12 20.8688 79.842C19.2417 75.0781 17.9546 70.0976 14.7092 66.1062C12.484 63.3718 6.38567 58.9725 2.59224 61.3684C-0.832773 63.5296 0.758295 70.124 1.17685 73.2937C2.49216 83.0233 5.79894 92.5374 10.6674 101.315C20.2802 118.592 36.1349 133.086 55.3781 140.715C60.5819 142.764 66.1265 144.457 70.27 148.055C76.7184 153.682 78.1872 162.44 80.9845 170.232C83.2073 176.385 87.4109 182.924 94.2172 184.152C97.3399 184.725 100.5 184.004 103.512 183.138C114.294 180.027 124.334 174.546 135.6 173.291C143.7 172.384 151.915 173.707 160.097 174.118C185.836 175.405 211.732 167.117 230.872 151.472C232.61 150.047 234.243 147.696 234.118 145.79L234.151 145.749Z" fill="url(#paint0_linear_1599_2776)"/>
<defs>
<linearGradient id="paint0_linear_1599_2776" x1="141.795" y1="12.5066" x2="96.1563" y2="194.167" gradientUnits="userSpaceOnUse">
<stop stop-color="#975DA5"/>
<stop offset="1" stop-color="#745DA5"/>
</linearGradient>
</defs>
</svg>