<svg width="272" height="92" viewBox="0 0 272 92" fill="none" xmlns="http://www.w3.org/2000/svg">
<rect x="2.35156" y="2" width="267" height="88" rx="44" fill="white" fill-opacity="0.8"/>
<rect x="2.35156" y="2" width="267" height="88" rx="44" stroke="#2A4474" stroke-width="4"/>
<path d="M235.13 36.1667C235.348 36.1667 235.565 36.1667 235.783 36.3833C236 36.6 236 36.8167 236 37.0333V41.8C236 42.0167 236 42.2333 235.783 42.45C235.565 42.6667 235.348 42.6667 235.13 42.6667H230.998V61.7333C230.998 61.95 230.998 62.1667 230.78 62.3833C230.563 62.6 230.346 62.6 230.128 62.6H223.821C223.604 62.6 223.386 62.6 223.169 62.3833C222.951 62.1667 222.951 61.95 222.951 61.7333V42.45H218.819C218.602 42.45 218.384 42.45 218.167 42.2333C217.949 42.0167 217.949 41.8 217.949 41.5833V36.8167C217.949 36.6 217.949 36.3833 218.167 36.1667C218.384 36.1667 218.602 36.1667 218.819 36.1667H222.951V29.45C222.951 29.2333 222.951 29.0167 223.169 28.8C223.386 28.5833 223.604 28.5833 223.821 28.5833H230.128C230.346 28.5833 230.563 28.5833 230.78 28.8C230.998 29.0167 230.998 29.2333 230.998 29.45V36.1667H235.13Z" fill="#1EA2B4"/>
<path d="M217.079 48.95C217.079 50.0333 216.862 50.9 216.644 51.55C216.427 51.9833 215.992 52.2 215.122 52.2H199.463C199.898 53.7167 200.551 54.8 201.638 55.45C202.726 56.1 204.248 56.5333 205.988 56.5333C206.858 56.5333 207.728 56.5333 208.38 56.3167C209.25 56.1 210.12 55.6667 210.99 55.0167C211.207 54.8 211.425 54.8 211.642 54.8C211.86 54.8 212.077 54.8 212.295 55.0167L215.122 57.6167C215.339 57.8333 215.339 57.8333 215.339 58.05C215.339 58.2667 215.339 58.4833 215.122 58.7C213.817 60 212.512 60.8667 210.772 61.7333C209.25 62.3833 207.51 62.8167 205.553 62.8167C202.943 62.8167 200.551 62.1667 198.376 61.0833C196.419 59.7833 194.679 58.2667 193.591 56.1C192.504 54.15 191.852 51.7667 191.852 49.3833C191.852 47 192.504 44.6167 193.591 42.6667C194.679 40.7167 196.419 38.9833 198.376 37.9C200.333 36.6 202.508 36.1667 205.118 36.1667C207.51 36.1667 209.685 36.8167 211.425 37.9C213.382 38.9833 214.687 40.7167 215.774 42.6667C216.644 44.4 217.079 46.5667 217.079 48.95ZM204.9 42.6667C203.595 42.6667 202.291 43.1 201.421 43.75C200.333 44.4 199.898 45.4833 199.463 47H210.12C209.902 45.4833 209.25 44.4 208.38 43.75C207.293 43.1 206.205 42.6667 204.9 42.6667Z" fill="#1EA2B4"/>
<path d="M188.372 36.6C188.589 36.6 188.807 36.6 189.024 36.8167C189.242 37.0333 189.242 37.25 189.242 37.4667V62.3833C189.242 64.9833 188.589 67.15 187.067 68.6667C185.762 70.4 184.022 71.4833 181.847 72.1333C179.673 72.5667 177.715 73 175.323 73C173.148 73 170.973 72.7833 169.016 72.1333C167.059 71.4833 165.319 70.6167 164.014 69.75C163.797 69.5333 163.797 69.3167 163.797 69.1C163.797 68.8833 163.797 68.6667 163.797 68.6667L165.754 64.9833C165.971 64.7667 166.189 64.55 166.406 64.55C166.624 64.55 166.624 64.55 166.841 64.55C167.929 65.2 169.234 65.85 170.538 66.0667C171.843 66.2833 173.148 66.5 174.888 66.5C176.628 66.5 178.368 66.0667 179.673 65.4167C181.195 64.7667 181.847 63.4667 181.847 61.7333V59.35C179.89 61.7333 177.28 62.8167 174.236 62.8167C171.843 62.8167 169.669 62.1667 167.929 61.0833C165.971 59.7833 164.449 58.2667 163.362 56.1C162.274 54.15 161.839 51.7667 161.839 49.3833C161.839 47 162.274 44.8333 163.362 42.6667C164.667 40.5 165.971 38.9833 167.929 37.6833C169.886 36.3833 171.843 35.95 174.236 35.95C177.063 35.95 179.455 37.0333 181.63 39.4167L181.847 37.25C181.847 36.8167 182.282 36.3833 182.717 36.3833H188.372V36.6ZM175.323 55.45C176.845 55.45 178.368 54.8 179.455 53.5C180.543 52.2 181.195 50.9 181.195 49.1667C181.195 47.4333 180.543 46.1333 179.455 44.8333C178.368 43.5333 177.063 42.8833 175.323 42.8833C173.583 42.8833 172.278 43.5333 171.191 44.6167C170.104 45.7 169.451 47.2167 169.451 48.95C169.451 50.6833 169.886 52.2 170.973 53.2833C172.278 54.8 173.583 55.45 175.323 55.45Z" fill="#1EA2B4"/>
<path d="M159.23 36.1667C159.447 36.1667 159.664 36.1667 159.882 36.3833C160.099 36.6 160.099 36.8167 160.099 37.0333V41.8C160.099 42.0167 160.099 42.2333 159.882 42.45C159.664 42.6667 159.447 42.6667 159.23 42.6667H155.097V61.7333C155.097 61.95 155.097 62.1667 154.88 62.3833C154.662 62.6 154.445 62.6 154.227 62.6H147.921C147.703 62.6 147.486 62.6 147.268 62.3833C147.268 62.1667 147.268 61.95 147.268 61.7333V42.45H142.918C142.701 42.45 142.484 42.45 142.266 42.2333C142.049 42.0167 142.049 41.8 142.049 41.5833V36.8167C142.049 36.6 142.049 36.3833 142.266 36.1667C142.484 36.1667 142.701 36.1667 142.918 36.1667H147.268V29.45C147.268 29.2333 147.268 29.0167 147.486 28.8C147.703 28.5833 147.921 28.5833 148.138 28.5833H154.445C154.662 28.5833 154.88 28.5833 155.097 28.8C155.315 29.0167 155.315 29.2333 155.315 29.45V36.1667H159.23Z" fill="#1EA2B4"/>
<path d="M135.307 34C134.219 34 133.132 33.5667 132.262 32.7C131.61 31.8333 131.175 30.9667 131.175 29.6667C131.175 28.3667 131.61 27.5 132.479 26.6333C133.132 25.7667 134.219 25.3333 135.307 25.3333C136.394 25.3333 137.481 25.7667 138.351 26.6333C139.221 27.5 139.656 28.5833 139.656 29.6667C139.656 30.75 139.221 31.8333 138.351 32.7C137.481 33.5667 136.612 34 135.307 34ZM131.392 36.8167C131.392 36.6 131.392 36.3833 131.61 36.1667C131.827 36.1667 132.044 36.1667 132.262 36.1667H138.569C138.786 36.1667 139.004 36.1667 139.221 36.3833C139.439 36.6 139.439 36.8167 139.439 37.0333V61.7333C139.439 61.95 139.439 62.1667 139.221 62.3833C139.004 62.6 138.786 62.6 138.569 62.6H132.262C132.044 62.6 131.827 62.6 131.61 62.3833C131.392 62.1667 131.392 61.95 131.392 61.7333V36.8167Z" fill="#1EA2B4"/>
<path d="M121.388 42.6667C123.345 43.1 125.085 44.1833 126.39 45.9167C127.912 47.65 128.565 49.6 128.565 51.7667C128.565 55.2333 127.477 58.05 125.085 59.7833C122.91 61.5167 119.431 62.3833 114.864 62.3833H102.032C101.815 62.3833 101.597 62.3833 101.38 62.1667C101.162 61.95 101.162 61.7333 101.162 61.5167V26.2C101.162 25.9833 101.162 25.7667 101.38 25.55C101.38 25.55 101.597 25.3333 101.815 25.3333H114.646C117.038 25.3333 118.996 25.7667 120.518 26.6333C122.258 27.5 123.563 28.5833 124.215 30.1C125.085 31.6167 125.52 33.1333 125.52 35.0833C125.52 36.8167 125.085 38.55 124.215 39.85C123.563 41.15 122.475 42.2333 121.388 42.6667ZM118.126 36.1667C118.126 34 116.821 32.7 113.994 32.7H109.209V39.85H113.994C115.299 39.85 116.386 39.6333 117.038 38.9833C117.691 38.3333 118.126 37.25 118.126 36.1667ZM115.081 55.2333C116.603 55.2333 117.908 54.8 118.996 54.15C119.866 53.5 120.518 52.2 120.518 50.9C120.518 49.3833 120.083 48.3 118.996 47.65C118.126 47 116.821 46.5667 115.081 46.5667H109.209V55.2333H115.081Z" fill="#1EA2B4"/>
<path d="M56.1439 22.0833C56.7964 21.4333 57.6663 21 58.5362 21H64.8431C65.713 21 66.148 21.8667 65.4956 22.5167L53.0992 35.95H60.0586L67.0179 43.3167H53.0992L67.0179 58.2667H58.5362C57.6663 58.2667 56.5789 57.8333 55.9264 57.1833L41.7902 42.0167C40.7028 40.7167 40.7028 38.55 42.0077 37.25L56.1439 22.0833Z" fill="#1EA2B4"/>
<path d="M75.4996 71.9167C74.8472 72.5667 73.9773 73 72.8899 73H66.583C65.713 73 65.2781 72.1333 65.9305 71.4833L78.5444 58.05H71.585L64.6256 50.6833H78.5444L64.6256 35.7333H73.1074C73.9773 35.7333 75.0647 36.1667 75.7171 36.8167L89.8533 51.9833C91.1582 53.2833 91.1582 55.45 89.8533 56.75L75.4996 71.9167Z" fill="#1EA2B4"/>
</svg>