<svg width="273" height="92" viewBox="0 0 273 92" fill="none" xmlns="http://www.w3.org/2000/svg">
<rect x="2.68066" y="2" width="267.835" height="88" rx="44" fill="white" fill-opacity="0.8"/>
<rect x="2.68066" y="2" width="267.835" height="88" rx="44" stroke="#2A4474" stroke-width="4"/>
<path d="M116.13 56.5623C115.527 63.0893 109.829 67.6115 103.242 67.6115H87.0747L90.5945 29.512H105.616C112.037 29.512 116.808 33.8684 116.22 40.2371C115.919 43.5006 114.321 46.0632 111.924 47.857C114.811 49.5981 116.499 52.5903 116.13 56.5623ZM97.4607 36.5364L96.6844 44.9176H104.199C106.543 44.9176 108.45 43.1238 108.668 40.727C108.887 38.3303 107.364 36.5364 104.975 36.5364H97.4607ZM108.721 56.0724C108.955 53.5173 107.281 51.6105 104.726 51.6105H96.0664L95.2373 60.587H103.89C106.452 60.5946 108.48 58.6877 108.721 56.0724Z" fill="#1B1C2B"/>
<path d="M146.979 36.6947H136.691L133.834 67.6115H126.32L129.184 36.6947H118.948L119.612 29.512H147.642L146.979 36.6947Z" fill="#1B1C2B"/>
<path d="M146.15 48.5655C147.182 37.4107 156.257 28.7507 167.796 28.7507C174.768 28.7507 180.586 32.2931 183.345 37.7273L176.516 41.4807C174.979 38.1042 171.466 36.039 167.11 36.039C159.656 36.039 154.275 41.2094 153.596 48.558C152.918 55.8538 157.342 61.0242 164.796 61.0242C169.153 61.0242 173.094 58.959 175.197 55.6352L181.325 59.3887C177.609 64.8304 171.127 68.3652 164.11 68.3652C152.594 68.3728 145.125 59.6675 146.15 48.5655Z" fill="#1B1C2B"/>
<path d="M209.438 60.4288L208.775 67.6115H185.206L188.734 29.512H212.03L211.367 36.6947H195.585L194.831 44.8045H209.257L208.601 51.8743H194.175L193.384 60.4212L209.438 60.4288Z" fill="#1B1C2B"/>
<path d="M225.997 58.4917L219.718 67.604H211.224L222.168 51.7084L225.997 58.4917ZM223.939 29.6552L243.06 67.6115H234.513L215.709 29.6552H223.939Z" fill="#1B1C2B"/>
<path d="M229.306 55.5071L220.239 36.5892L227.346 36.5364L229.569 40.9456L236.918 29.6552H246L229.306 55.5071Z" fill="#1B1C2B"/>
<path d="M47.6486 23C46.9778 23 46.4201 23.5125 46.3598 24.1758L46.1412 26.5876L46.1186 26.8514L45.5307 33.3332V33.3408L45.2896 35.9486C46.9854 35.1497 48.8772 34.705 50.8745 34.705C51.4699 34.705 52.0502 34.7502 52.6231 34.8256C54.5676 35.0517 56.3463 35.6848 57.8839 36.6571C58.5471 37.0791 59.1652 37.554 59.7305 38.0891C61.1022 39.2875 62.3081 40.6667 63.303 42.2043C64.1848 43.5609 64.8933 45.0231 65.4209 46.5833C66.0766 48.5429 66.4459 50.6382 66.4459 52.8164C66.4459 62.0643 60.0093 69.8048 51.3795 71.8247C63.1749 70.0309 72.2117 59.8484 72.2117 47.548C72.2042 33.9965 61.2077 23 47.6486 23Z" fill="url(#paint0_linear_2138_11273)"/>
<path d="M66.1143 49.3116C65.9409 48.377 65.7073 47.4726 65.4133 46.5908C64.8857 45.0306 64.1773 43.5684 63.2954 42.2118C62.3006 40.6817 61.0946 39.2949 59.7229 38.0966C61.7051 39.9657 63.0392 42.4906 63.4386 45.3622C63.5517 46.1687 63.5894 47.0053 63.5442 47.857C63.5366 47.97 63.5366 48.0831 63.5291 48.2037C63.4085 49.8091 63.0015 51.3541 62.3684 52.7862C61.6071 54.5122 60.5143 56.0874 59.1802 57.429C58.7205 57.8963 58.2306 58.3334 57.7181 58.7404C49.6233 65.6745 39.1016 69.8575 27.6077 69.8575C26.7485 69.8575 25.8893 69.8349 25.0376 69.7821C25.2712 71.1011 26.4169 72.1035 27.7961 72.1035H47.6411C48.9073 72.1035 50.1509 72.0055 51.3644 71.8246C60.0018 69.8047 66.4308 62.0642 66.4308 52.8163C66.4384 51.6179 66.3253 50.4497 66.1143 49.3116Z" fill="url(#paint1_linear_2138_11273)"/>
<path d="M48.2517 62.1397H35.288C35.1523 62.1397 35.0167 62.1096 34.9036 62.0643C34.8584 62.0493 34.8132 62.0191 34.768 61.9965C31.4668 61.7553 28.4067 60.6624 25.8065 58.9289L25 69.3074C25 69.4732 25.0151 69.6315 25.0452 69.7898C25.8969 69.835 26.7561 69.8651 27.6153 69.8651C39.1093 69.8651 49.6234 65.6746 57.7257 58.748C55.05 60.8584 51.7187 62.1397 48.2517 62.1397Z" fill="url(#paint2_linear_2138_11273)"/>
<path d="M41.3329 23H31.173C29.6204 23 28.3692 24.2587 28.3692 25.8038L27.5778 36.0541L27.103 42.1968L26.7111 47.2842L26.2664 53.0124L25.8066 58.9364C28.4069 60.67 31.4669 61.7704 34.7681 62.004C34.6551 61.9437 34.542 61.8608 34.4591 61.7628C34.2858 61.5518 34.1953 61.2804 34.2255 60.979L35.4239 47.8118L36.4715 36.333L36.8559 32.1499L37.1348 29.0296L37.2478 27.8237L37.3232 27.0248L37.3307 26.972H37.3609C37.3609 24.7787 39.1396 23 41.3329 23Z" fill="url(#paint3_linear_2138_11273)"/>
<path d="M48.1237 42.8901C47.9126 42.8222 47.6865 42.7845 47.4679 42.7695C46.458 42.7016 45.5008 43.0634 44.634 43.4704L43.7522 53.1328C43.7522 53.163 43.7522 53.2007 43.7597 53.2308C44.0085 53.3288 44.2723 53.4117 44.536 53.472C44.943 53.5625 45.3651 53.6228 45.8023 53.6228C46.2545 53.6228 46.6841 53.5625 47.1062 53.4645C47.8749 53.2836 48.5834 52.9369 49.1939 52.4771C50.543 51.4521 51.4173 49.8316 51.4173 48.0077C51.4173 45.7315 50.1587 43.5307 48.1237 42.8901Z" fill="url(#paint4_linear_2138_11273)"/>
<defs>
<linearGradient id="paint0_linear_2138_11273" x1="68.6792" y1="63.8605" x2="28.5839" y2="14.331" gradientUnits="userSpaceOnUse">
<stop stop-color="#00FFE0"/>
<stop offset="0.07" stop-color="#00FFE0"/>
<stop offset="1" stop-color="#0862FB"/>
</linearGradient>
<linearGradient id="paint1_linear_2138_11273" x1="29.6144" y1="76.4489" x2="71.4787" y2="43.6258" gradientUnits="userSpaceOnUse">
<stop stop-color="#00FFE0"/>
<stop offset="0.07" stop-color="#00FFE0"/>
<stop offset="1" stop-color="#0862FB"/>
</linearGradient>
<linearGradient id="paint2_linear_2138_11273" x1="21.3905" y1="64.3034" x2="53.9211" y2="64.3034" gradientUnits="userSpaceOnUse">
<stop stop-color="#00FFE0"/>
<stop offset="0.07" stop-color="#00FFE0"/>
<stop offset="1" stop-color="#0862FB"/>
</linearGradient>
<linearGradient id="paint3_linear_2138_11273" x1="33.566" y1="23" x2="33.566" y2="61.9965" gradientUnits="userSpaceOnUse">
<stop stop-color="#00FFE0"/>
<stop offset="0.07" stop-color="#00FFE0"/>
<stop offset="1" stop-color="#0862FB"/>
</linearGradient>
<linearGradient id="paint4_linear_2138_11273" x1="47.5843" y1="41.0687" x2="47.5843" y2="53.3096" gradientUnits="userSpaceOnUse">
<stop stop-color="#00FFE0"/>
<stop offset="0.07" stop-color="#00FFE0"/>
<stop offset="1" stop-color="#0862FB"/>
</linearGradient>
</defs>
</svg>