<svg width="283" height="92" viewBox="0 0 283 92" fill="none" xmlns="http://www.w3.org/2000/svg">
<rect x="2.84033" y="2" width="277.84" height="88" rx="44" fill="white" fill-opacity="0.8"/>
<rect x="2.84033" y="2" width="277.84" height="88" rx="44" stroke="#2A4474" stroke-width="4"/>
<path d="M34.9946 26.7123C39.5263 22.6577 45.4549 20.477 51.4858 20C57.5166 20.1363 63.6838 22.0103 68.2836 26.0649C66.2733 27.8026 64.5697 29.9151 62.389 31.4825C56.29 26.3034 46.3067 26.8145 40.6166 32.3343C38.7085 30.4944 36.8005 28.6544 34.9946 26.7123Z" fill="#7650FF"/>
<path d="M28.8277 54.5837C25.7271 47.0195 26.5448 37.7518 31.4853 31.1758C35.7444 35.4349 40.0376 39.6939 44.3648 43.8508C47.5335 41.2272 50.1912 37.8199 53.4622 35.3326C56.5287 38.1266 59.3567 41.125 62.4233 43.9189C64.3995 41.9087 66.4438 39.9665 68.5223 38.0584C67.6364 36.934 66.5461 35.98 65.592 34.9578C69.4422 34.9919 73.2924 34.9578 77.1427 34.9578C77.1427 38.774 77.1427 42.6242 77.1427 46.4403C76.1886 45.5203 75.3368 44.4641 74.2805 43.6464C73.6672 43.5782 73.3606 44.2937 72.9176 44.6004C69.3741 48.0417 65.9328 51.6875 62.2529 54.9925C59.3227 52.0964 56.3584 49.2002 53.36 46.3381C50.3956 49.2002 47.3973 52.0964 44.5692 55.0607C41.162 52.2667 38.3339 48.7572 34.9267 45.9633C35.097 51.0401 37.5503 55.7762 41.639 58.8087C47.6017 63.5448 56.6991 63.4085 62.6959 58.7746C64.6039 60.4782 66.2735 62.4544 68.2156 64.1581C67.5682 65.2143 66.4779 65.7595 65.4898 66.4069C62.6959 68.0764 59.6293 69.3371 56.3924 69.7801C53.8029 69.9163 51.2134 69.8141 48.6239 69.9163C39.9353 68.7919 32.0646 62.727 28.8277 54.5837Z" fill="#7650FF"/>
<path d="M94.8604 32.9476C102.084 23.8843 117.553 23.2369 125.424 31.7892C123.788 33.2884 122.187 34.8557 120.517 36.389C115.406 31.687 106.65 31.4825 101.539 36.2527C95.9507 41.7384 96.2914 52.369 102.697 57.0711C108.149 60.8531 116.122 59.9672 120.892 55.4696C122.561 57.1051 124.129 58.8428 125.935 60.342C123.379 63.2382 119.631 64.9418 115.917 65.8277C110.329 66.7817 104.23 66.3729 99.2898 63.3745C95.7463 61.1938 93.0886 57.8547 91.7598 53.9023C89.3747 46.9856 90.2265 38.74 94.8604 32.9476Z" fill="#403F5A"/>
<path d="M162.937 26.6442C165.493 25.5198 168.798 27.5642 168.491 30.4603C168.696 33.8335 164.232 35.4349 161.847 33.4246C159.632 31.6529 160.177 27.5642 162.937 26.6442Z" fill="#403F5A"/>
<path d="M199.395 26.576C202.121 26.4397 204.881 26.5419 207.607 26.5079C210.673 35.5712 213.603 44.7026 216.568 53.8C216.67 53.9363 216.874 54.1748 216.976 54.3111C219.805 45.5204 222.871 36.8319 225.733 28.0752C225.938 27.5641 226.006 26.9167 226.449 26.576C227.948 26.4738 229.481 26.576 230.98 26.5079C234.354 35.7415 237.454 45.1115 240.793 54.3793C241.27 53.3912 241.611 52.403 241.884 51.3468C244.507 43.0671 247.131 34.8216 249.754 26.5419C252.48 26.5419 255.24 26.4738 258 26.576C253.298 39.4895 248.664 52.4371 243.962 65.3847C241.884 65.3847 239.805 65.3847 237.727 65.4188C235.103 58.8768 232.445 52.3008 230.367 45.5544C229.754 44.0893 229.583 42.4198 228.663 41.0909C226.176 49.3365 223.144 57.3776 219.975 65.3506C217.862 65.3847 215.716 65.4188 213.603 65.3166C208.969 52.403 204.199 39.4895 199.395 26.576Z" fill="#403F5A"/>
<path d="M137.792 38.0926C142.426 36.9 147.775 37.5815 151.523 40.7843C157.349 45.6908 157.997 55.3333 153.193 61.1257C147.979 67.4291 137.144 67.6676 131.556 61.739C126.957 56.7303 126.582 48.3825 130.602 42.9309C132.374 40.5799 134.93 38.8422 137.792 38.0926ZM139.734 43.919C134.419 45.5545 133.158 52.8801 136.19 57.071C138.712 60.5805 144.402 60.785 147.298 57.6843C150.501 54.1749 150.092 47.9396 146.276 45.0434C144.47 43.5783 141.949 43.3398 139.734 43.919Z" fill="#403F5A"/>
<path d="M161.097 37.9223C163.312 37.9223 165.527 37.9563 167.742 37.8882C167.912 47.0537 167.81 56.2533 167.776 65.4529C165.527 65.3848 163.278 65.4529 161.029 65.3848C161.132 56.1852 161.097 47.0537 161.097 37.9223Z" fill="#403F5A"/>
<path d="M173.807 38.0245C175.783 37.8882 177.794 38.0245 179.77 37.9223C180.008 39.1148 180.145 40.3414 180.179 41.568C181.303 40.8866 182.223 39.9666 183.347 39.3192C187.504 36.7297 193.433 37.1045 197.045 40.5118C199.975 43.2376 201.065 47.4285 200.997 51.3469C200.963 56.0489 201.099 60.7509 200.929 65.4529C198.714 65.3507 196.5 65.3848 194.285 65.4189C194.285 60.9213 194.285 56.3896 194.285 51.858C194.251 49.6773 193.91 47.2922 192.377 45.6227C189.855 42.8969 185.051 43.1013 182.632 45.8612C181.269 47.3604 180.554 49.3366 180.588 51.3469C180.622 56.0148 180.554 60.6828 180.622 65.3507C178.373 65.4189 176.124 65.3507 173.875 65.4189C173.739 56.2874 173.909 47.1559 173.807 38.0245Z" fill="#403F5A"/>
</svg>