<svg width="279" height="92" viewBox="0 0 279 92" fill="none" xmlns="http://www.w3.org/2000/svg">
<rect x="2.35156" y="2" width="273.776" height="88" rx="44" fill="white" fill-opacity="0.8"/>
<rect x="2.35156" y="2" width="273.776" height="88" rx="44" stroke="#2A4474" stroke-width="4"/>
<path fill-rule="evenodd" clip-rule="evenodd" d="M45.2436 67.9021C43.758 67.9021 43.0152 67.9021 42.4478 67.6129C41.9495 67.357 41.5435 66.9505 41.2888 66.4498C41 65.8807 41 65.1352 41 63.645V24.4435H47.8051C49.2907 24.4435 50.0335 24.4435 50.601 24.7336C51.0992 24.9886 51.5052 25.396 51.7599 25.8967C52.0487 26.4658 52.0487 27.2104 52.0487 28.7006V55.5743C52.0487 56.3199 52.0487 56.6922 52.1936 56.9767C52.32 57.2271 52.523 57.4303 52.7731 57.5578C53.0564 57.7029 53.4282 57.7029 54.1701 57.7029H70.0253C71.5109 57.7029 72.2537 57.7029 72.8212 57.9929C73.3194 58.2479 73.7254 58.6553 73.9801 59.1561C74.2689 59.7252 74.2689 60.4698 74.2689 61.9599V67.9021H45.2436Z" fill="#212631"/>
<path fill-rule="evenodd" clip-rule="evenodd" d="M162.114 28.7006C162.114 27.2104 162.114 26.4658 162.403 25.8967C162.657 25.396 163.063 24.9886 163.562 24.7336C164.129 24.4435 164.872 24.4435 166.357 24.4435H170.263C171.159 24.4435 171.606 24.4435 172.008 24.5747C172.362 24.6901 172.688 24.8805 172.965 25.1317C173.277 25.4154 173.5 25.8052 173.945 26.585L187.531 50.386V28.7006C187.531 27.2104 187.531 26.4658 187.82 25.8967C188.074 25.396 188.479 24.9886 188.979 24.7336C189.546 24.4435 190.289 24.4435 191.774 24.4435H198.139V63.6386C198.139 65.1278 198.139 65.8715 197.851 66.4406C197.597 66.9413 197.192 67.3478 196.693 67.6037C196.126 67.8938 195.384 67.8947 193.9 67.8956L189.994 67.9003C189.097 67.9012 188.648 67.9012 188.247 67.77C187.892 67.6545 187.565 67.4651 187.288 67.2138C186.975 66.9293 186.752 66.5394 186.306 65.7588L172.723 41.9605V63.645C172.723 65.1352 172.723 65.8807 172.433 66.4498C172.179 66.9505 171.773 67.357 171.274 67.6129C170.707 67.9021 169.965 67.9021 168.479 67.9021H162.114V28.7006Z" fill="#212631"/>
<path fill-rule="evenodd" clip-rule="evenodd" d="M209.588 24.4435H203.223V63.6339C203.223 65.1241 203.223 65.8696 203.512 66.4387C203.766 66.9395 204.172 67.346 204.671 67.6019C205.238 67.891 205.981 67.891 207.467 67.891H213.831V50.1643H215.568C216.31 50.1643 216.682 50.1643 217.025 50.2585C217.329 50.3416 217.616 50.4784 217.871 50.6631C218.161 50.871 218.394 51.1602 218.862 51.7385L230.668 66.3288C231.135 66.9062 231.37 67.1954 231.659 67.4042C231.914 67.588 232.201 67.7247 232.506 67.8088C232.849 67.9021 233.22 67.9021 233.963 67.9021H244L228.387 48.639C227.611 47.681 227.222 47.2015 227.074 46.6694C226.943 46.2 226.943 45.703 227.074 45.2337C227.223 44.7016 227.612 44.223 228.388 43.2659L228.388 43.265L243.661 24.4435H233.732C232.993 24.4435 232.624 24.4435 232.281 24.5368C231.979 24.6199 231.693 24.7557 231.437 24.9387C231.148 25.1447 230.915 25.432 230.447 26.0066L218.903 40.1757C218.435 40.7503 218.201 41.0367 217.913 41.2436C217.657 41.4265 217.371 41.5623 217.068 41.6455C216.726 41.7388 216.356 41.7388 215.617 41.7388H213.831V28.7006C213.831 27.2104 213.832 26.4658 213.543 25.8967C213.288 25.396 212.883 24.9886 212.384 24.7336C211.816 24.4435 211.073 24.4435 209.588 24.4435Z" fill="#212631"/>
<path d="M80.5742 24.5127L80.5742 24.5127C80.8168 24.3887 81.1077 24.3204 81.5345 24.2854C81.9643 24.2502 82.5094 24.25 83.2563 24.25H97.136C100.851 24.25 102.66 24.2522 104.138 24.6498L104.138 24.6498C108.17 25.7333 111.32 28.8926 112.401 32.939C112.796 34.4218 112.798 36.237 112.798 39.9641C112.798 41.1314 112.536 41.9094 112.175 42.4819C111.811 43.0602 111.337 43.4468 110.87 43.8255L110.87 43.8256L110.845 43.8457C110.172 44.392 109.484 44.95 109.484 46.0624C109.484 47.1712 110.287 47.7307 111.065 48.2725C111.079 48.2822 111.093 48.292 111.107 48.3018L111.107 48.3018C111.673 48.6955 112.254 49.1023 112.7 49.7156C113.141 50.3209 113.462 51.1438 113.462 52.3815C113.462 56.1021 113.46 57.9146 113.065 59.3947C111.986 63.4437 108.834 66.6058 104.8 67.6893L104.8 67.6893C103.325 68.086 101.519 68.089 97.8095 68.09L83.2572 68.0946H83.2571C82.5102 68.0951 81.9651 68.0951 81.5354 68.06C81.1086 68.0251 80.8177 67.9568 80.5752 67.8328L80.5751 67.8328C80.1232 67.602 79.7553 67.233 79.5244 66.7792C79.4009 66.5357 79.3328 66.2435 79.298 65.815C79.2629 65.3837 79.2627 64.8367 79.2627 64.0875V28.2571C79.2627 27.5079 79.2629 26.9611 79.298 26.53C79.3328 26.1019 79.4008 25.81 79.5244 25.5665C79.7553 25.1124 80.1224 24.7435 80.5742 24.5127ZM99.007 38.6754L99.0071 38.6753L99.0289 38.6408C99.8456 37.3537 100.6 36.165 100.6 34.6427C100.6 31.5662 98.1085 29.0714 95.0349 29.0714C91.9571 29.0714 89.4691 31.6813 89.4691 34.6427C89.4691 36.1676 90.2452 37.3578 91.0844 38.6448L91.106 38.6779L91.1061 38.678C92.2713 40.4625 93.6214 42.5346 93.6214 46.1732C93.6214 49.8109 92.2713 51.883 91.1061 53.6685L91.106 53.6685L91.0858 53.6995C90.246 54.9865 89.4691 56.1771 89.4691 57.7028C89.4691 60.7794 91.9605 63.2742 95.0349 63.2742C98.1085 63.2742 100.6 60.7794 100.6 57.7028C100.6 56.1797 99.8448 54.9905 99.0276 53.7035L99.007 53.6711L99.007 53.6711C97.8732 51.886 96.5583 49.8128 96.5583 46.1732C96.5583 42.5327 97.8732 40.4595 99.007 38.6754Z" fill="#FFCB00" stroke="black" stroke-width="0.5"/>
<path fill-rule="evenodd" clip-rule="evenodd" d="M129.918 59.255L128.108 64.9403C127.769 66.0046 127.601 66.5367 127.278 66.9303C126.993 67.2786 126.625 67.5483 126.208 67.7146C125.737 67.9021 125.179 67.9021 124.066 67.9021H116.064L128.908 27.1947C129.245 26.1268 129.413 25.5928 129.736 25.1974C130.02 24.8482 130.389 24.5775 130.806 24.4112C131.279 24.2218 131.837 24.2218 132.953 24.2218H141.767C142.884 24.2218 143.442 24.2218 143.914 24.4112C144.332 24.5775 144.701 24.8482 144.985 25.1974C145.308 25.5928 145.476 26.1258 145.812 27.1938L158.664 67.9021H150.658C149.544 67.9021 148.988 67.9021 148.515 67.7146C148.099 67.5483 147.731 67.2786 147.446 66.9303C147.124 66.5367 146.954 66.0046 146.615 64.9403L144.806 59.255H129.918ZM132.175 52.1598H142.548L137.36 35.8623L132.175 52.1598Z" fill="#212631"/>
</svg>