<svg width="282" height="92" viewBox="0 0 282 92" fill="none" xmlns="http://www.w3.org/2000/svg">
<rect x="2" y="2" width="277.84" height="88" rx="44" fill="white" fill-opacity="0.8"/>
<rect x="2" y="2" width="277.84" height="88" rx="44" stroke="#2A4474" stroke-width="4"/>
<path d="M98.8331 52.4795L83.0051 24.3865C79.5106 18.5469 71.0827 18.4417 67.7423 24.6495L51.0921 53.9C48.0087 59.2661 51.8115 66 58.0297 66H91.3302C97.5998 66 102.276 59.0556 98.8331 52.4795Z" fill="#00B897"/>
<path d="M76.4184 54.6903L75.4182 52.9545C74.4706 51.3239 72.4177 47.8522 72.4177 47.8522L58.6784 24.0239C55.9411 19.8684 50.3612 18.7638 46.2026 21.4991C44.8866 22.3407 43.8338 23.5505 43.1494 24.9707L27.1993 52.5863C24.7252 56.847 26.1991 62.3175 30.5157 64.7897C31.8843 65.5788 33.4109 65.9995 34.9901 65.9995H92C83.209 66.0522 80.419 61.4759 76.4184 54.6903Z" fill="#76FCB2"/>
<path d="M160 64V31H186V33.0859C186 34.7439 184.733 36.081 183.162 36.081H166.437V44.906H183.162V49.987H166.437V58.8655H183.162C184.733 58.8655 186 60.2026 186 61.8606V63.9465L160 64Z" fill="black"/>
<path d="M224.895 31H218.556C217.404 31 216.304 31.5331 215.57 32.4394L207.974 42.2488L200.325 32.4927C199.592 31.5864 198.492 31.0533 197.339 31.0533H191L203.835 47.4733L191 63.8934H197.339C198.492 63.8934 199.592 63.3603 200.325 62.454L207.974 52.7512L215.675 62.5606C216.408 63.4669 217.508 64 218.661 64H225L212.112 47.58L224.895 31Z" fill="black"/>
<path d="M138.787 60.5773L147.421 44.8541V64H154V31.0027H149.94C148.655 31.0027 147.473 31.6979 146.856 32.8745L136.526 52.5017L126.195 32.8745C125.579 31.6979 124.396 30.9492 123.112 31.0027H119V64H125.579V44.8541L134.213 60.5773H138.787Z" fill="black"/>
<path d="M242.649 63.9956C233.629 64.2044 226.155 56.9475 226 47.811C226 47.7066 226 47.6544 226 47.55C226 42.4858 227.546 38.2569 230.381 35.3855C233.216 32.514 237.392 31 242.34 31C248.165 31 252.701 33.0361 256 37.0039L253.938 38.779C252.649 39.8754 250.742 39.9276 249.351 38.8834C247.392 37.4216 245.021 36.6907 242.598 36.7951C236.103 36.7951 232.289 40.7629 232.289 47.4456C232.289 54.1283 236.258 58.3571 242.598 58.3571C245.021 58.4093 247.392 57.6784 249.351 56.2688C250.742 55.2246 252.598 55.2768 253.938 56.3732L256 58.1483C252.753 62.0117 248.32 63.9956 242.649 63.9956Z" fill="black"/>
</svg>