<svg width="273" height="92" viewBox="0 0 273 92" fill="none" xmlns="http://www.w3.org/2000/svg">
<rect x="2.51611" y="2" width="267.835" height="88" rx="44" fill="white" fill-opacity="0.8"/>
<rect x="2.51611" y="2" width="267.835" height="88" rx="44" stroke="#2A4474" stroke-width="4"/>
<path d="M97.0049 57.1528L97.0362 34.8743H106.83C111.523 34.8743 114.121 38.0971 114.121 41.8832C114.121 45.6693 111.461 48.8609 106.83 48.8609H100.947V57.1841H97.0049V57.1528ZM106.267 38.3162H100.916V45.419H106.267C108.488 45.419 110.084 44.011 110.084 41.8832C110.084 39.7555 108.488 38.3162 106.267 38.3162Z" fill="#41D9BF"/>
<path d="M127.732 34.5302C134.428 34.5302 139.121 39.4114 139.121 46.0762C139.121 52.741 134.397 57.591 127.701 57.591C121.005 57.591 116.342 52.7097 116.342 46.0449C116.342 39.3801 121.067 34.4989 127.732 34.5302ZM127.732 38.0034C123.226 38.0034 120.347 41.4453 120.347 46.0449C120.347 50.6446 123.195 54.0865 127.732 54.0865C132.269 54.0865 135.116 50.6133 135.116 46.0449C135.116 41.4766 132.206 38.0034 127.732 38.0034Z" fill="#41D9BF"/>
<path d="M142.907 57.2154L142.939 34.9369H146.85L146.819 53.7735H156.644V57.2154H142.907Z" fill="#41D9BF"/>
<path d="M169.567 34.5927C176.263 34.5927 180.956 39.4739 180.956 46.1387C180.956 52.8035 176.231 57.6535 169.535 57.6535C162.839 57.6535 158.146 52.7722 158.146 46.1074C158.146 39.4426 162.902 34.5614 169.567 34.5927ZM169.567 38.0346C165.061 38.0346 162.182 41.4765 162.182 46.0761C162.182 50.6758 165.03 54.149 169.567 54.149C174.072 54.149 176.951 50.6758 176.951 46.1074C176.951 41.5391 174.072 38.0659 169.567 38.0346Z" fill="#41D9BF"/>
<path d="M200.293 57.2781L188.685 41.0072V57.2468H184.773L184.805 34.9683H188.81L200.168 50.801V34.9995H204.079L204.048 57.2781H200.293Z" fill="#41D9BF"/>
<path d="M208.804 57.278L208.836 34.9995H212.747L212.715 57.278H208.804Z" fill="#41D9BF"/>
<path d="M217.472 57.3093L217.503 34.9995H232.773V38.4414L221.414 38.4101V44.1988H232.554V47.6407H221.414V53.8048H232.773V57.2468L217.472 57.3093Z" fill="#41D9BF"/>
<path d="M251.672 57.3406L245.445 48.6107L239.187 57.3406H234.494L242.879 45.9197L235.057 35.0308H239.75L245.476 43.2288L251.203 35.0621H255.927L248.105 45.8884L256.397 57.3719L251.672 57.3406Z" fill="#41D9BF"/>
<path d="M73.9129 32.6527V45.9823L62.3668 39.3175L50.8208 32.6214L62.3981 25.9879L73.9442 19.3231L73.9129 32.6527Z" fill="#072B38"/>
<path d="M50.7893 45.9509V59.2805L39.2433 52.6157L27.6973 45.9196L39.2433 39.2861L50.7893 32.6213V45.9509Z" fill="#144556"/>
<path d="M27.6973 32.5902V19.2606L39.2433 25.9254L50.7893 32.5902L39.2433 39.2863L27.6973 45.9198V32.5902Z" fill="#41D9BF"/>
<path d="M27.666 59.2494L27.6973 45.9198L39.2433 52.6159L50.7894 59.2807L39.2433 65.9454L27.666 72.5789V59.2494Z" fill="#072B38"/>
<path d="M62.3668 39.3174L50.8208 32.6213V45.9509V59.2805L62.3355 65.9766L73.8816 72.6413V59.3118L73.9129 45.9822L62.3668 39.3174Z" fill="#41D9BF"/>
</svg>