<svg width="279" height="93" viewBox="0 0 279 93" fill="none" xmlns="http://www.w3.org/2000/svg">
<rect x="2.6084" y="2.93103" width="273.776" height="88" rx="44" fill="white" fill-opacity="0.8"/>
<rect x="2.6084" y="2.93103" width="273.776" height="88" rx="44" stroke="#2A4474" stroke-width="4"/>
<path d="M90.7828 63.5335C89.9852 63.6836 89.1763 63.7666 88.3649 63.7814C84.3446 63.7814 82.7063 62.894 82.7063 58.1265V46.9494L79.3615 46.4537C79.1748 46.4418 78.9989 46.3623 78.8666 46.23C78.7343 46.0977 78.6548 45.9217 78.643 45.7351V44.1399C78.643 43.9493 78.7186 43.7666 78.8534 43.6319C78.9882 43.4971 79.1709 43.4214 79.3615 43.4214H82.7063V40.5077C82.7174 40.3207 82.7967 40.1443 82.9291 40.0119C83.0616 39.8795 83.2379 39.8002 83.4249 39.7891L86.7338 39.2215H86.8774C86.951 39.213 87.0255 39.2207 87.0957 39.2439C87.166 39.2672 87.2304 39.3054 87.2844 39.356C87.3384 39.4065 87.3807 39.4683 87.4085 39.5369C87.4362 39.6055 87.4487 39.6793 87.4451 39.7532V43.4286H90.6499C90.8404 43.4286 91.0232 43.5042 91.1579 43.639C91.2927 43.7738 91.3684 43.9565 91.3684 44.1471V46.2452C91.3684 46.4358 91.2927 46.6186 91.1579 46.7534C91.0232 46.8881 90.8404 46.9638 90.6499 46.9638H87.4451V58.1265C87.4451 59.9048 87.5529 60.1168 88.8355 60.1168H90.7217C91.1852 60.1168 91.469 60.2964 91.469 60.6521V62.894C91.4618 63.2497 91.257 63.4508 90.7828 63.5335ZM110.356 55.1013H98.7554V55.2055C98.7554 57.2714 99.6062 59.7252 103.027 59.7252C105.624 59.7252 108.078 59.5132 109.573 59.3659H109.68C110.04 59.3659 110.32 59.5455 110.32 59.9012V62.2509C110.32 62.8186 110.212 63.0665 109.573 63.1742C107.3 63.6277 104.984 63.8301 102.667 63.7778C99.1105 63.7778 94.045 61.8592 94.045 54.8463V52.2164C94.045 46.6656 97.1416 43.1771 102.589 43.1771C108.035 43.1771 111.067 46.9243 111.067 52.2164V54.2104C111.067 54.778 110.855 55.1013 110.356 55.1013ZM106.347 51.6128C106.347 48.8357 104.816 47.2333 102.61 47.2333C100.404 47.2333 98.802 48.7997 98.802 51.6128V51.7529H106.347V51.6128ZM127.08 63.3215C125.573 63.6545 124.032 63.8088 122.489 63.7814C117.861 63.7814 114.373 60.936 114.373 55.1336V51.8248C114.373 46.0261 117.861 43.1771 122.489 43.1771C124.032 43.1503 125.574 43.3058 127.08 43.6406C127.684 43.7842 127.827 43.9998 127.827 44.5638V46.8776C127.827 47.2369 127.543 47.4129 127.188 47.4129H127.08C125.558 47.2145 124.023 47.1316 122.489 47.165C120.814 47.165 119.072 48.1242 119.072 51.8356V55.1445C119.072 58.8486 120.814 59.815 122.489 59.815C124.023 59.8465 125.558 59.7637 127.08 59.5671H127.188C127.547 59.5671 127.827 59.7432 127.827 60.0989V62.4126C127.827 62.9658 127.684 63.1778 127.08 63.3215ZM147.469 63.4976H144.196C144.002 63.491 143.819 63.4093 143.685 63.2698C143.551 63.1302 143.476 62.9439 143.478 62.7503V51.0415C143.478 47.9482 142.942 47.165 140.556 47.165C139.35 47.165 137.923 47.5925 136.428 48.3721V62.7431C136.429 62.9366 136.355 63.1231 136.221 63.2626C136.087 63.4021 135.904 63.4838 135.71 63.4904H132.437C132.243 63.4838 132.06 63.4021 131.926 63.2626C131.792 63.1231 131.717 62.9366 131.719 62.7431V37.1269C131.719 36.9364 131.794 36.7536 131.929 36.6188C132.064 36.4841 132.246 36.4084 132.437 36.4084H135.71C135.901 36.4084 136.083 36.4841 136.218 36.6188C136.353 36.7536 136.428 36.9364 136.428 37.1269V44.4956C137.783 43.6765 139.277 43.1771 141.817 43.1771C146.729 43.1771 148.188 46.6656 148.188 51.0415V62.7503C148.188 62.9439 148.114 63.1302 147.98 63.2698C147.845 63.4093 147.662 63.491 147.469 63.4976Z" fill="#2A4474"/>
<path d="M160.704 63.7815C155.118 63.7815 152.201 60.0127 152.201 54.9218V52.0476C152.201 46.9567 155.118 43.1843 160.704 43.1843C166.292 43.1843 169.219 46.9495 169.219 52.0404V54.9146C169.219 60.0127 166.292 63.7815 160.704 63.7815ZM164.513 52.0404C164.513 49.1195 163.198 47.2334 160.704 47.2334C158.211 47.2334 156.896 49.1195 156.896 52.0404V54.9146C156.896 57.8319 158.215 59.7181 160.704 59.7181C163.194 59.7181 164.513 57.8319 164.513 54.9146V52.0404ZM181.345 63.7815C180.202 63.7725 179.06 63.6897 177.928 63.5336V69.8352C177.928 70.0258 177.852 70.2086 177.718 70.3433C177.583 70.478 177.4 70.5538 177.21 70.5538H173.937C173.746 70.5538 173.563 70.478 173.429 70.3433C173.293 70.2086 173.218 70.0258 173.218 69.8352V45.0633C173.218 44.5316 173.361 44.3161 174.181 44.1041C176.519 43.5107 178.921 43.1995 181.334 43.1771C187.061 43.1771 189.838 46.5579 189.838 52.1087V54.8499C189.849 60.4007 187.072 63.7815 181.345 63.7815ZM185.15 52.1087C185.15 49.1914 184.402 47.0214 181.345 47.0214C180.201 47.0107 179.058 47.0936 177.928 47.2693V59.6893C179.061 59.8395 180.202 59.9235 181.345 59.9408C184.402 59.9408 185.15 57.7852 185.15 54.8499V52.1087ZM209.458 55.1014H197.853V55.2056C197.853 57.2715 198.709 59.7252 202.125 59.7252C204.723 59.7252 207.177 59.5133 208.671 59.366H208.779C209.138 59.366 209.418 59.5456 209.418 59.9014V62.251C209.418 62.8186 209.315 63.0665 208.671 63.1743C206.399 63.6277 204.085 63.8301 201.77 63.7779C198.209 63.7779 193.147 61.8594 193.147 54.8463V52.2164C193.147 46.6657 196.244 43.1771 201.69 43.1771C207.137 43.1771 210.177 46.9244 210.177 52.2164V54.2105C210.177 54.7781 209.954 55.1014 209.458 55.1014ZM205.434 51.6129C205.434 48.8357 203.904 47.2334 201.698 47.2334C199.492 47.2334 197.889 48.7998 197.889 51.6129V51.753H205.434V51.6129ZM229.132 62.8581C226.792 63.4486 224.391 63.7586 221.979 63.7815C216.23 63.7815 213.475 60.4007 213.475 54.8499V52.1087C213.475 46.5579 216.248 43.1771 221.979 43.1771C223.122 43.1878 224.263 43.2718 225.396 43.4286V37.127C225.396 36.9364 225.471 36.7537 225.606 36.6189C225.741 36.4842 225.923 36.4085 226.114 36.4085H229.387C229.578 36.4085 229.76 36.4842 229.895 36.6189C230.03 36.7537 230.105 36.9364 230.105 37.127V61.9168C230.095 62.4306 229.937 62.6462 229.132 62.8581ZM225.396 47.2836C224.262 47.1364 223.121 47.0537 221.979 47.0357C218.918 47.0357 218.17 49.1914 218.17 52.123V54.8643C218.17 57.7816 218.918 59.9552 221.979 59.9552C223.123 59.9668 224.265 59.8827 225.396 59.7037V47.2836ZM238.918 40.7593H235.466C235.272 40.7594 235.087 40.6846 234.948 40.5506C234.808 40.4167 234.726 40.2339 234.718 40.0407V36.9151C234.725 36.7215 234.807 36.5382 234.946 36.4041C235.086 36.2699 235.272 36.1955 235.466 36.1965H238.918C239.109 36.1965 239.292 36.2721 239.427 36.4069C239.561 36.5417 239.637 36.7244 239.637 36.9151V40.0479C239.635 40.2372 239.558 40.4181 239.424 40.5513C239.289 40.6846 239.108 40.7593 238.918 40.7593ZM238.81 63.4977H235.534C235.341 63.4911 235.158 63.4094 235.023 63.2698C234.889 63.1303 234.815 62.944 234.815 62.7504V44.14C234.815 43.9494 234.891 43.7667 235.026 43.6319C235.161 43.4971 235.343 43.4215 235.534 43.4215H238.81C239.001 43.4215 239.184 43.4971 239.318 43.6319C239.454 43.7667 239.529 43.9494 239.529 44.14V62.7504C239.53 62.944 239.456 63.1303 239.321 63.2698C239.187 63.4094 239.004 63.4911 238.81 63.4977ZM258.416 63.4977H255.391C255.201 63.4977 255.017 63.422 254.883 63.2872C254.748 63.1525 254.672 62.9697 254.672 62.7791V62.2115C253.173 63.189 251.432 63.7302 249.642 63.7743C246.69 63.7743 243.488 62.639 243.488 57.8319V57.7026C243.488 53.6428 245.978 51.5446 252.172 51.5446H254.414V49.9746C254.414 47.6609 253.382 47.1004 251.281 47.1004C249.345 47.0942 247.409 47.189 245.482 47.3843H245.303C244.943 47.3843 244.663 47.2764 244.663 46.7806V44.4957C244.663 44.1041 244.875 43.8526 245.339 43.7484C247.296 43.3639 249.286 43.1726 251.281 43.1771C256.336 43.1771 259.11 45.419 259.11 49.9746V62.7863C259.108 62.9713 259.035 63.1486 258.906 63.2811C258.777 63.4136 258.601 63.4912 258.416 63.4977ZM254.432 54.6739H252.19C248.957 54.6739 248.238 55.705 248.238 57.699V57.8391C248.238 59.5852 249.021 60.045 250.799 60.045C252.073 60.0161 253.321 59.6744 254.432 59.0499V54.6739ZM49.1934 41.291L48.4102 41.5748V70.931L57.9022 65.6425V48.3435L68.3822 44.5388L69.266 44.2154L69.3307 34.0013L49.1934 41.291ZM57.5645 36.2217L58.3262 36.4983L58.8291 36.6815L68.6013 33.1426L59.1201 29.593L57.9022 30.0385L49.2114 33.1965L56.7956 35.945L57.5645 36.2217Z" fill="#2A4474"/>
<path d="M46.8818 41.5751L46.0986 41.2913L37.3898 38.1405V65.6428L46.8818 70.9277V41.5751Z" fill="#2A4474"/>
<path d="M35.8559 37.5868L25.9579 34.0012L26.0226 44.2153L26.9064 44.5387L35.8559 47.7901V37.5868Z" fill="#2A4474"/>
<path d="M46.8798 40.4576L47.6487 40.7378L48.4104 40.4576L57.2844 37.2241L56.7958 37.0481L56.0161 36.7679L47.6666 33.7571L37.3879 30.0387L36.5938 29.7477L36.1699 29.5968L26.6887 33.1428L46.8798 40.4576ZM40.3914 32.223L42.4249 33.0673L39.989 33.9332L37.9555 33.0853L40.3914 32.223ZM38.9543 34.7882L40.6285 35.4853L38.6237 36.2038L36.9568 35.4996L38.9543 34.7882ZM43.2656 34.0697L44.9398 34.7667L42.935 35.4853L41.2608 34.7882L43.2656 34.0697ZM36.6478 30.6243L38.3543 31.3249L36.3747 32.0434L34.6718 31.3356L36.6478 30.6243ZM31.1868 33.5811L34.6682 32.356L37.5711 33.5596L34.0897 34.7882L31.1868 33.5811ZM32.764 27.7573L30.8383 28.404L32.4551 29.0686L34.3843 28.4184L32.764 27.7573ZM24.4828 28.2639L27.0839 29.3309L30.188 28.289L27.5869 27.2256L24.4828 28.2639ZM26.6061 30.2542L24.3355 29.3237L21.6265 30.2327L23.8972 31.1632L26.6061 30.2542ZM24.6157 27.2184L22.7295 26.4459L20.4805 27.2004L22.3667 27.9729L24.6157 27.2184ZM28.8084 25.5513L27.5653 25.0412L26.0887 25.5406L27.3282 26.0471L28.8084 25.5513ZM24.1271 24.4376L22.8876 23.931L21.4074 24.4268L22.6505 24.937L24.1271 24.4376Z" fill="#2A4474"/>
</svg>