<svg width="279" height="92" viewBox="0 0 279 92" fill="none" xmlns="http://www.w3.org/2000/svg">
<rect x="2.68066" y="2" width="273.776" height="88" rx="44" fill="white" fill-opacity="0.8"/>
<rect x="2.68066" y="2" width="273.776" height="88" rx="44" stroke="#2A4474" stroke-width="4"/>
<path d="M184.358 39.7858C184.718 39.559 184.947 39.4669 185.11 39.3086C190.761 33.7898 200.134 36.2186 203.892 42.2938C208.154 49.1821 206.451 58.219 199.862 62.5887C196.038 65.1245 191.947 65.4626 187.78 63.4789C186.881 63.0509 186.158 62.2335 185.396 61.5487C185.18 61.354 185.114 60.988 184.979 60.7013C184.827 60.804 184.675 60.9046 184.521 61.0073C184.491 61.5551 184.416 62.1051 184.438 62.6507C184.472 63.466 184.121 63.8298 183.314 63.8277C181.709 63.8234 180.104 63.8148 178.502 63.8576C177.669 63.879 177.361 63.5281 177.355 62.7171C177.329 59.7212 177.23 56.7275 177.23 53.7316C177.228 44.9858 177.271 36.24 177.258 27.4963C177.258 26.5419 177.504 26.1567 178.521 26.1974C180.087 26.2616 181.66 26.223 183.226 26.1503C184.087 26.1096 184.352 26.4413 184.35 27.2588C184.333 31.0378 184.35 34.8191 184.356 38.5982C184.356 38.9427 184.356 39.2851 184.356 39.7901L184.358 39.7858ZM191.857 57.9579C196.406 57.7931 199.492 54.4527 199.331 49.8669C199.207 46.2825 195.901 42.5848 191.442 42.8073C187.106 43.0235 184.371 46.1841 184.391 50.7978C184.403 53.9862 187.705 58.5036 191.859 57.9579H191.857Z" fill="#2967FE"/>
<path d="M124.554 64.1915C117.146 64.2643 110.534 57.714 110.429 50.2351C110.322 42.4479 116.264 35.6665 124.608 35.6537C132.055 35.643 138.676 40.7681 138.92 49.4882C139.176 58.6492 132.016 64.0417 124.554 64.1915ZM124.636 42.4586C120.362 42.4672 117.433 45.5615 117.454 50.0403C117.473 54.1083 120.756 57.3438 124.927 57.3695C127.814 57.3866 132.053 54.5791 132.027 49.9461C132.003 45.6856 128.83 42.4522 124.636 42.4607V42.4586Z" fill="#2967FE"/>
<path d="M171.303 49.8711C171.363 58.2553 164.344 64.3091 156.799 64.1251C149.486 63.9475 142.887 58.6811 142.808 50.0145C142.737 42.4991 147.965 35.7627 156.921 35.6621C164.408 35.5765 171.168 41.0483 171.303 49.8711ZM157.01 57.2752C160.969 57.2602 164.423 53.9862 164.444 50.2264C164.47 45.8203 161.228 42.4713 156.936 42.4692C152.887 42.4692 149.793 45.6726 149.737 49.7791C149.681 53.9134 153.332 57.5748 157.008 57.2774L157.01 57.2752Z" fill="#2967FE"/>
<path d="M94.3688 33.349C91.3473 33.349 88.4306 33.302 85.516 33.3747C84.4974 33.4004 84.2256 33.0559 84.2599 32.1036C84.3198 30.4666 84.3134 28.8231 84.2706 27.1839C84.2492 26.4221 84.5316 26.1996 85.2635 26.2017C93.8552 26.2189 102.447 26.2232 111.037 26.1911C111.903 26.1889 112.13 26.4714 112.102 27.2952C112.047 28.9686 112.049 30.6485 112.113 32.3197C112.143 33.1029 111.865 33.2998 111.137 33.2913C108.535 33.2656 105.929 33.3619 103.331 33.2592C102.19 33.2142 101.957 33.6058 101.961 34.6287C101.998 43.612 101.993 52.5975 102.004 61.5809C102.004 62.0795 102.002 62.5802 102.025 63.0788C102.053 63.6737 101.779 63.907 101.195 63.9027C99.235 63.8856 97.2727 63.8663 95.3147 63.9005C94.5357 63.9134 94.3389 63.5453 94.3431 62.8605C94.3517 60.4018 94.3239 57.9409 94.3303 55.48C94.3517 48.3862 94.3838 41.2924 94.4095 34.1964C94.4095 33.9503 94.3859 33.7043 94.3688 33.3469V33.349Z" fill="#2967FE"/>
<path d="M243.523 36.9975C243.523 39.1524 243.551 41.1062 243.482 43.0578C243.474 43.2739 242.926 43.6355 242.618 43.6484C241.231 43.7019 239.838 43.6783 238.449 43.6291C237.73 43.6034 237.426 43.826 237.437 44.5921C237.486 47.9432 237.458 51.2943 237.525 54.6432C237.563 56.6141 238.575 57.5664 240.52 57.6413C240.841 57.6541 241.162 57.6541 241.483 57.6498C242.802 57.6355 243.476 58.311 243.506 59.6763C243.529 60.8169 243.591 61.9596 243.531 63.0959C243.514 63.4126 243.15 63.9476 242.896 63.9775C240.018 64.3242 237.154 64.5232 234.465 63.0038C232.25 61.7541 230.842 59.9523 230.7 57.4101C230.495 53.7124 230.463 50.0061 230.367 46.3019C230.343 45.4245 230.362 44.5471 230.362 43.6633C229.07 43.6633 227.974 43.6526 226.879 43.6676C226.155 43.6783 225.862 43.3509 225.875 42.6298C225.903 40.9906 225.911 39.3493 225.879 37.7123C225.864 37.0189 226.155 36.8691 226.782 36.9119C227.634 36.9697 228.496 36.8927 229.346 36.9612C230.174 37.0275 230.358 36.6979 230.347 35.9147C230.313 33.0644 230.377 30.2119 230.354 27.3615C230.347 26.5591 230.529 26.2124 231.426 26.2402C233.026 26.2916 234.634 26.2509 236.234 26.1632C237.124 26.114 237.437 26.4157 237.437 27.3016C237.437 30.3317 237.495 33.3618 237.533 36.3898C237.533 36.5267 237.57 36.6637 237.619 36.9975H243.525H243.523Z" fill="#2967FE"/>
<path d="M219.785 50.4961C219.785 54.5213 219.757 58.5486 219.804 62.5737C219.817 63.603 219.504 63.9518 218.462 63.8855C217.114 63.7978 215.755 63.8684 214.403 63.877C212.657 63.8877 212.65 63.8898 212.646 62.0923C212.642 59.7405 212.646 57.3887 212.652 55.037C212.672 49.3726 212.714 43.7062 212.695 38.0418C212.691 37.1195 212.997 36.8884 213.866 36.9226C215.466 36.9868 217.071 36.9526 218.674 36.9462C219.459 36.944 219.787 37.2329 219.778 38.0932C219.736 42.2254 219.759 46.3596 219.759 50.4918H219.785V50.4961Z" fill="#2967FE"/>
<path d="M216.164 34.1364C214.118 34.1514 212.192 32.2447 212.175 30.1883C212.16 28.2859 214.125 26.238 216.003 26.1931C217.914 26.146 220.091 28.196 220.133 30.0834C220.183 32.2276 218.327 34.1236 216.164 34.1385V34.1364Z" fill="#2967FE"/>
<path d="M57.2712 26.0018C68.5283 25.8528 78.0489 35.0835 77.8698 46.7134C77.698 57.908 68.6876 66.9024 57.2514 66.8268C45.7331 66.7505 37.0022 57.3334 37 46.4954C36.9971 34.9051 46.4222 26.0187 57.272 26.001L57.2712 26.0018ZM57.4466 61.3942C57.5142 61.2834 57.5413 61.2269 57.5795 61.1792C58.4147 60.1297 59.1978 59.0324 60.0991 58.0438C61.4943 56.5128 62.8484 54.965 63.8201 53.1169C63.884 52.9951 64.1386 52.8997 64.2964 52.9107C66.2839 53.0435 68.0138 52.3918 69.4721 51.0971C71.1888 49.5728 72.5818 46.5666 71.2915 43.4789C70.1525 40.7524 67.078 38.7832 64.3728 39.0489C64.2289 39.0628 64.0058 38.9828 63.9295 38.872C63.3276 37.995 62.5467 37.3029 61.7042 36.6548C61.7277 36.5998 61.7357 36.5477 61.7658 36.5154C62.3442 35.8981 62.8983 35.2545 63.5141 34.6769C63.9434 34.2747 64.0462 33.9972 63.7541 33.4299C63.5786 33.0886 63.1515 32.9514 62.695 33.1268C62.4579 33.2178 62.1959 33.3242 62.03 33.5026C61.4179 34.1624 60.8279 34.8442 60.2605 35.5429C60.1057 35.7345 59.9949 35.8218 59.7512 35.7462C58.3266 35.3044 56.8874 35.3154 55.4357 35.6082C55.305 35.6346 55.1017 35.5642 55.0092 35.4666C54.5322 34.9609 54.1021 34.4097 53.6118 33.918C53.3322 33.6376 52.9902 33.402 52.6394 33.2156C52.1865 32.9749 51.7587 33.1165 51.4871 33.5195C51.2119 33.9275 51.2633 34.2703 51.6625 34.6556C51.7506 34.74 51.8541 34.8082 51.9414 34.8934C52.3429 35.2853 52.7568 35.6655 53.134 36.0794C53.4584 36.4361 53.421 36.4662 53.0262 36.7341C52.1829 37.3058 51.4086 37.9502 50.8743 38.8449C50.8082 38.9557 50.6005 39.0504 50.4662 39.0423C49.3565 38.974 48.3084 39.1671 47.2934 39.6302C44.8391 40.7502 43.4271 42.7017 43.157 45.3138C42.8656 48.135 43.9819 50.4351 46.4296 51.9764C47.711 52.7837 49.1048 53.2366 50.6512 52.9679C50.9117 52.9224 51.024 53.0663 51.1341 53.26C52.0258 54.8307 53.1113 56.2545 54.3538 57.5653C55.0841 58.3352 55.799 59.1227 56.48 59.9366C56.8287 60.3535 57.0877 60.846 57.4466 61.3942Z" fill="#2967FE"/>
<path d="M57.4475 61.3942C57.0894 60.846 56.8303 60.3535 56.4809 59.9367C55.7999 59.1227 55.085 58.3359 54.3547 57.5653C53.1122 56.2552 52.0267 54.8307 51.135 53.2601C51.0249 53.0663 50.9126 52.9225 50.6521 52.968C49.1057 53.2366 47.7127 52.7837 46.4305 51.9764C43.9828 50.4344 42.8665 48.1343 43.1579 45.3138C43.428 42.7017 44.84 40.7494 47.2943 39.6302C48.3093 39.1671 49.3581 38.9741 50.4671 39.0423C50.6021 39.0504 50.8091 38.9557 50.8752 38.8449C51.4095 37.9502 52.1838 37.3058 53.0271 36.7341C53.4219 36.4662 53.4601 36.4361 53.135 36.0794C52.7577 35.6655 52.343 35.2853 51.9423 34.8934C51.855 34.8083 51.7515 34.74 51.6634 34.6556C51.2642 34.2703 51.2128 33.9283 51.488 33.5195C51.7596 33.1165 52.1882 32.9749 52.6403 33.2156C52.9911 33.402 53.3331 33.6376 53.6127 33.918C54.103 34.4097 54.5331 34.9602 55.0101 35.4666C55.1026 35.5649 55.3059 35.6347 55.4366 35.6082C56.8883 35.3161 58.3275 35.3044 59.7521 35.7462C59.9958 35.8218 60.1058 35.7337 60.2614 35.5429C60.828 34.8442 61.4188 34.1624 62.031 33.5026C62.1968 33.3242 62.4588 33.2171 62.6959 33.1268C63.1524 32.9514 63.5796 33.0887 63.755 33.4299C64.0463 33.9965 63.9443 34.274 63.515 34.6769C62.8992 35.2545 62.3451 35.8974 61.7667 36.5154C61.7366 36.5469 61.7286 36.5991 61.7051 36.6548C62.5469 37.3029 63.3285 37.995 63.9304 38.872C64.0067 38.9836 64.2291 39.0636 64.3737 39.0489C67.0789 38.7832 70.1527 40.7524 71.2925 43.4789C72.5827 46.5666 71.1897 49.5728 69.473 51.0972C68.0147 52.3926 66.2848 53.0443 64.2973 52.9107C64.1395 52.9004 63.8849 52.9951 63.821 53.1169C62.85 54.965 61.4952 56.5129 60.1 58.0438C59.1987 59.0332 58.4156 60.1297 57.5804 61.1792C57.5422 61.2269 57.5158 61.2834 57.4475 61.3942ZM55.0968 47.3666C55.6289 48.0756 56.0949 48.684 56.5419 49.3064C56.5947 49.3798 56.5962 49.5706 56.5397 49.6308C56.089 50.1108 55.6494 50.6069 55.1467 51.0282C54.663 51.4333 54.1096 51.754 53.5863 52.1129C53.4417 52.212 53.3104 52.2942 53.4322 52.5203C54.2248 53.9896 55.1951 55.3077 56.5837 56.2736C57.176 56.6853 57.6853 56.6384 58.2695 56.2149C59.6038 55.249 60.5543 53.9639 61.3851 52.5687C61.5502 52.2913 61.4585 52.1966 61.2273 52.0329C60.453 51.4839 59.6508 50.9577 58.9565 50.3163C57.6523 49.1104 56.7525 47.5875 55.8424 46.0778C54.9368 44.5769 53.8403 43.2514 52.2902 42.3582C50.1699 41.137 47.9079 41.8144 46.5765 43.6272C45.0455 45.7116 45.7773 48.6811 47.8991 49.9075C49.1607 50.637 50.4422 50.8131 51.7779 50.1577C52.7981 49.6572 53.6685 48.9511 54.4421 48.124C54.6637 47.8869 54.867 47.6323 55.096 47.3666H55.0968ZM64.577 41.6603C63.9994 41.6089 63.3836 41.8056 62.8324 42.1087C61.2222 42.9931 60.0046 44.2958 59.0607 45.8583C59.0013 45.9567 59.0027 46.1556 59.0644 46.2525C59.9671 47.6829 61.0416 48.9526 62.5168 49.8311C63.1311 50.1966 63.777 50.4748 64.5116 50.4865C66.4096 50.5181 68.7442 49.2117 69.0312 46.4763C69.3094 43.8188 67.1861 41.7116 64.5777 41.661L64.577 41.6603ZM57.4233 43.6132C57.5723 43.4077 57.6677 43.283 57.7558 43.1545C58.6703 41.818 59.6229 40.5212 61.1627 39.8225C61.388 39.7205 61.3645 39.5663 61.206 39.421C60.5205 38.7913 59.8233 38.1733 58.8941 37.9245C57.4901 37.548 56.125 37.6207 54.8678 38.4038C54.4054 38.6915 54.0083 39.0856 53.5819 39.4313C53.3816 39.5935 53.4814 39.6904 53.6546 39.777C55.1731 40.5359 56.1918 41.8092 57.1342 43.1604C57.2215 43.2859 57.2993 43.418 57.4233 43.6125V43.6132Z" fill="white"/>
<path d="M55.0957 47.3666C54.8675 47.6323 54.6634 47.887 54.4418 48.1241C53.669 48.9512 52.7978 49.6572 51.7776 50.1578C50.4426 50.8125 49.1604 50.6363 47.8988 49.9075C45.777 48.6804 45.0453 45.7109 46.5762 43.6272C47.9083 41.8137 50.1696 41.137 52.2899 42.3583C53.84 43.2507 54.9365 44.577 55.8421 46.0778C56.7522 47.5868 57.652 49.1097 58.9562 50.3163C59.6498 50.9578 60.452 51.4847 61.227 52.033C61.4582 52.1966 61.5499 52.2913 61.3848 52.5687C60.554 53.964 59.6035 55.2483 58.2693 56.2149C57.685 56.6384 57.1757 56.6854 56.5834 56.2736C55.1948 55.3078 54.2246 53.9896 53.4319 52.5203C53.3101 52.2943 53.4414 52.2121 53.586 52.113C54.1086 51.7548 54.6627 51.4334 55.1464 51.0282C55.6484 50.6069 56.0887 50.1101 56.5394 49.6308C56.5959 49.5706 56.5944 49.3805 56.5416 49.3064C56.0939 48.6848 55.6286 48.0756 55.0965 47.3666H55.0957Z" fill="#2967FE"/>
<path d="M64.5761 41.6602C67.1845 41.7109 69.3078 43.818 69.0296 46.4756C68.7434 49.2109 66.408 50.5173 64.5101 50.4858C63.7754 50.4733 63.1296 50.1959 62.5153 49.8304C61.04 48.9519 59.9656 47.6822 59.0628 46.2517C59.0019 46.1549 59.0004 45.956 59.0592 45.8576C60.0037 44.2951 61.2213 42.9923 62.8308 42.1079C63.382 41.8048 63.9985 41.6081 64.5754 41.6595L64.5761 41.6602Z" fill="#2967FE"/>
<path d="M57.4225 43.6132C57.2985 43.4188 57.2207 43.2866 57.1334 43.1611C56.191 41.8092 55.1723 40.5366 53.6538 39.7777C53.4806 39.6911 53.3808 39.5942 53.5811 39.432C54.0075 39.0863 54.4046 38.6922 54.867 38.4045C56.1242 37.6214 57.4886 37.5488 58.8933 37.9253C59.8225 38.1741 60.5197 38.792 61.2052 39.4218C61.3637 39.5671 61.3872 39.7212 61.1619 39.8232C59.6221 40.5212 58.6702 41.8188 57.755 43.1553C57.6669 43.2844 57.5722 43.4085 57.4225 43.614V43.6132Z" fill="#2967FE"/>
</svg>