<svg width="279" height="92" viewBox="0 0 279 92" fill="none" xmlns="http://www.w3.org/2000/svg">
<rect x="2.9043" y="2" width="273.776" height="88" rx="44" fill="white" fill-opacity="0.8"/>
<rect x="2.9043" y="2" width="273.776" height="88" rx="44" stroke="#2A4474" stroke-width="4"/>
<path d="M40.1878 42.906C41.2645 44.7862 38.8419 45.3234 37.7652 45.4577C36.1502 45.592 35.7464 44.6519 36.0156 43.4432C36.1502 43.0403 36.4194 42.6374 36.6885 42.3688C36.9577 42.1002 37.4961 41.8315 37.8998 41.8315C38.3036 41.8315 38.8419 41.8315 39.1111 42.1002C39.6494 42.2345 39.9186 42.5031 40.1878 42.906Z" fill="#EB1A6B"/>
<path d="M46.6481 39.5485C45.4368 48.9497 61.8563 46.9352 61.5872 54.3218C63.2022 52.173 63.8751 46.5322 59.1646 43.5776C54.8579 40.8915 49.3398 42.3688 46.6481 39.5485Z" fill="#EB1A6B"/>
<path d="M56.2037 35.9223C56.0692 35.788 55.9346 35.788 55.9346 35.6537C55.9346 35.788 56.0692 35.9223 56.2037 35.9223Z" fill="#EB1A6B"/>
<path d="M59.9721 42.7717C59.8375 42.5031 59.7029 42.2345 59.4337 41.9659C58.8954 41.16 58.0879 40.6228 57.1458 40.4885C56.6074 40.3542 55.9345 40.2199 55.2615 40.2199C54.5886 40.2199 54.0503 40.0856 53.3773 40.0856C52.0315 39.9513 50.8202 39.817 49.4743 39.5484C49.2052 39.4141 48.8014 39.4141 48.5322 39.2798C48.3977 39.2798 48.2631 39.1455 47.9939 39.1455C47.8593 39.0112 47.7247 39.0112 47.4556 38.8769C46.7826 38.6083 46.2443 38.0711 45.8405 37.6682C44.8984 36.728 44.0909 35.6536 43.2834 34.7135C42.4759 33.6391 41.8029 32.6989 40.8608 31.7588C40.0533 30.8187 38.9766 30.0129 37.8999 29.4756C36.8233 28.9384 35.4774 28.5355 34.2661 28.4012C35.612 28.2669 36.9578 28.4012 38.1691 28.9384C39.3804 29.4757 40.5917 30.1472 41.5338 31.0873C42.2067 31.6245 42.745 32.296 43.2834 32.9675C47.4556 32.1617 50.6856 32.8332 53.2428 34.3106C54.0503 34.7135 54.8578 35.2507 55.5307 35.9222C55.6653 36.0565 55.7999 36.0565 55.7999 36.1908C56.3382 36.728 56.8766 37.2652 57.2803 37.8025C59.1645 39.5484 59.9721 41.563 59.9721 42.7717Z" fill="#EB1A6B"/>
<path d="M34.6697 29.4757C35.7464 29.61 36.8231 30.0129 37.496 30.8187C38.169 31.6246 38.4382 32.699 38.7073 33.6391C38.8419 34.4449 38.9765 35.2508 39.2457 35.9223C39.3803 36.3252 39.6494 36.5938 39.784 36.8624C39.9186 37.131 40.1878 37.3996 40.3224 37.6682V37.8025V37.9368C39.9186 38.3397 38.9765 37.9368 38.5727 37.6682C37.8998 37.3996 37.3615 36.8624 36.8231 36.3252C35.3427 34.7135 34.5352 32.2961 34.5352 30.1472C34.5352 30.0129 34.6697 29.7443 34.6697 29.4757Z" fill="#EB1A6B"/>
<path d="M52.1661 48.2782C49.8781 54.5905 60.2413 58.8882 56.3383 65.3347C60.2413 63.7231 62.1255 58.7539 60.5104 54.8591C59.1646 51.3672 54.8578 50.0241 52.1661 48.2782Z" fill="#EB1A6B"/>
<path d="M38.573 56.4706C39.2459 56.0677 39.9189 55.6648 40.5918 55.2619C41.2647 54.9933 42.0722 54.7247 42.8798 54.5904C44.3602 54.3218 45.9752 54.1875 47.1865 53.6503C47.8594 53.3817 48.3978 53.113 48.9361 52.5758C49.4745 52.1729 49.7436 51.6357 50.0128 50.9642C50.282 50.2927 50.282 49.6212 50.282 48.9496C50.282 48.1438 50.0128 47.4723 49.7436 46.8008C50.282 47.338 50.6857 48.1438 50.9549 48.9496C51.2241 49.7555 51.2241 50.5613 51.0895 51.3671C50.9549 52.1729 50.4166 52.9787 49.8782 53.6503C49.3399 54.1875 48.5324 54.7247 47.7249 54.9933C46.9173 55.2619 46.1098 55.3962 45.3023 55.5305C44.4948 55.5305 43.8219 55.6648 43.0143 55.6648C41.5339 55.6648 40.0534 55.9334 38.573 56.4706Z" fill="#EB1A6B"/>
<path d="M53.108 67.6178C52.8389 67.7521 52.7043 68.0208 52.4351 68.1551C52.1659 68.2894 51.8968 68.4237 51.6276 68.558C51.0893 68.8266 50.4163 68.9609 49.7434 68.9609C47.9938 68.9609 46.7825 67.6178 46.1096 66.1405C45.5712 65.2004 45.3021 64.126 44.7637 63.1858C43.9562 61.8428 42.4757 60.7684 40.8607 60.9027C40.1878 61.037 39.5148 61.3056 39.2457 61.8428C38.3036 63.3201 39.6494 65.469 41.5336 65.2004C41.6682 65.2004 41.8028 65.2004 41.9374 65.0661C42.072 65.0661 42.2066 64.9318 42.3412 64.7975C42.6103 64.5289 42.7449 64.2603 42.8795 63.9917C43.0141 63.723 43.0141 63.3201 43.0141 62.9172C42.8795 62.5143 42.7449 62.2457 42.4757 62.1114C42.8795 62.2457 43.1487 62.5143 43.2833 62.9172C43.1487 63.5887 43.1487 63.9917 43.1487 64.3946C43.0141 64.7975 42.8795 65.2004 42.6103 65.469C42.4757 65.6033 42.3412 65.7376 42.072 65.8719C41.9374 66.0062 41.6682 66.1405 41.5336 66.1405C41.1299 66.2748 40.7261 66.2748 40.3224 66.2748C39.784 66.1405 39.1111 66.0062 38.7073 65.6033C38.169 65.2004 37.7652 64.5289 37.2269 64.126C36.6885 63.4544 36.0156 63.0515 35.2081 62.6486C34.6697 62.38 34.1314 62.2457 33.5931 62.1114C33.3239 62.1114 33.0547 61.9771 32.7855 61.9771C32.651 61.9771 31.978 61.8428 31.978 61.8428C32.9201 61.037 33.8622 60.3655 34.8043 59.6939C35.881 59.0224 36.9577 58.6195 38.169 58.2166C39.3803 57.8137 40.5915 57.8137 41.9374 57.948C42.6103 58.0823 43.1487 58.2166 43.8216 58.4852C44.4945 58.7538 45.0329 59.1567 45.5712 59.5596C46.1096 60.0969 46.5133 60.6341 46.7825 61.1713C47.0517 61.7085 47.1863 62.38 47.3208 63.0515C47.7246 64.9318 47.59 67.8865 50.0126 68.2894C50.1471 68.2894 50.2817 68.2894 50.4163 68.2894H50.8201C51.0893 68.2894 51.3584 68.2894 51.6276 68.1551C52.0314 68.1551 52.5697 67.8865 53.108 67.6178Z" fill="#EB1A6B"/>
<path d="M36.5541 39.0112C36.4195 39.4141 36.2849 39.6827 36.1503 39.9513C35.7466 40.4885 35.2082 40.8915 34.6699 41.1601C34.1315 41.4287 33.5932 41.563 32.9203 41.563C32.7857 41.563 32.6511 41.563 32.5165 41.563C32.1127 41.563 31.8436 41.6973 31.4398 41.9659C31.1706 42.2345 30.9015 42.5031 30.9015 42.906C30.9015 43.0403 30.7669 43.3089 30.7669 43.4432C30.7669 43.9804 30.6323 44.3833 30.6323 45.0549C30.4977 46.1293 30.2285 47.0694 29.8248 48.0095C29.2864 49.2183 28.6135 50.2927 28.7481 51.6357C28.8827 52.5759 29.2864 53.2474 29.9594 53.7846C31.0361 54.9933 33.5932 55.5305 33.0549 58.3509C32.6511 60.0968 29.8248 61.8428 25.9218 62.5143C26.3255 62.5143 25.3834 60.9027 25.3834 60.7684C24.9797 60.0968 24.4413 59.4253 24.1722 58.7538C23.4992 57.4108 23.2301 55.6648 23.4992 54.1875C23.7684 52.5759 24.9797 51.3671 25.9218 50.0241C27.1331 48.5467 28.3443 46.6665 28.6135 44.652C28.6135 44.249 28.7481 43.5775 28.8827 43.0403C29.0173 42.3688 29.1519 41.8316 29.421 41.1601C29.5556 40.7572 29.8248 40.4885 30.2285 40.0856C30.3631 39.9513 30.4977 39.6827 30.4977 39.5484C30.4977 39.2798 30.4977 39.1455 30.3631 38.8769L24.0376 27.4611L33.1894 38.7426C33.324 38.8769 33.4586 39.0112 33.5932 39.0112C33.7278 39.1455 33.8624 39.1455 34.1315 39.1455C34.2661 39.1455 34.4007 39.1455 34.6699 39.0112C34.8045 38.8769 34.9391 38.8769 35.0736 38.7426C35.2082 38.6083 35.2082 38.474 35.2082 38.2054C35.2082 38.0711 35.2082 37.8025 35.0736 37.6682C34.5353 36.8624 33.8624 36.1908 33.1894 35.385L30.9015 32.5646L26.3255 26.9239L20 19L26.8639 26.3867L31.709 31.7588L34.1315 34.4449C34.9391 35.385 35.7466 36.1908 36.5541 37.2653L36.6887 37.3996V37.6682C36.6887 38.2054 36.6887 38.6083 36.5541 39.0112Z" fill="#EB1A6B"/>
<path d="M38.7074 65.469C38.3036 65.0661 37.8999 64.6632 37.4961 64.2603C37.8999 64.7975 38.169 65.2004 38.7074 65.469Z" fill="#EB1A6B"/>
<path fill-rule="evenodd" clip-rule="evenodd" d="M157.278 35.1164C152.836 36.1909 150.818 39.6828 152.029 43.8462C152.567 45.5921 154.182 47.4724 156.605 48.8154C160.777 51.2329 162.123 52.173 162.796 53.6503C163.334 54.8591 163.469 55.262 163.2 56.4707C162.527 59.1568 160.642 60.4998 157.951 60.4998C155.259 60.4998 153.375 59.0225 152.836 56.4707C152.702 55.3963 152.433 55.1277 152.029 55.1277C151.491 55.1277 151.356 55.3963 151.356 57.948V60.7684L153.106 61.3056C155.932 62.2457 159.835 62.1114 162.123 61.037C166.699 58.8882 168.448 54.7247 166.43 50.8299C165.622 49.3526 163.738 47.741 160.508 45.7264C157.009 43.5776 155.528 42.1002 155.259 40.6229C154.855 38.2054 157.009 36.3252 159.969 36.3252C162.257 36.3252 163.2 36.8624 164.007 38.6083C164.545 39.6828 164.815 40.0857 165.488 40.0857C166.16 40.0857 166.295 39.9514 166.026 39.2798C165.891 38.8769 165.757 37.8025 165.757 36.9967C165.757 35.9223 165.622 35.3851 165.218 35.2507C164.276 34.8478 158.489 34.7135 157.278 35.1164ZM68.4509 36.0566C68.4509 36.5938 68.7201 36.7281 69.2584 36.7281C70.8735 36.7281 71.0081 37.131 71.1426 46.9351C71.2772 55.3963 71.4118 56.0678 72.0848 57.4108C73.0269 59.1568 74.3727 60.3655 76.3915 61.3056C77.7374 61.9771 78.6795 62.1114 81.5058 62.1114C84.4667 62.1114 85.1396 61.9771 86.7546 61.1713C87.8313 60.6341 89.1772 59.694 89.7155 59.0225C91.5997 56.7393 91.8689 55.5306 92.0035 46.1293C92.2727 36.9967 92.2727 36.8624 93.7531 36.8624C94.1569 36.8624 94.2915 36.5938 94.2915 36.1909C94.2915 35.5194 94.0223 35.5194 90.2539 35.5194C86.4855 35.5194 86.2163 35.5194 86.2163 36.1909C86.2163 36.7281 86.4855 36.8624 87.293 36.9967C89.0426 37.131 89.1772 37.8025 89.1772 46.1293C89.1772 54.5904 88.908 56.2021 87.0238 57.948C85.4088 59.5597 84.0629 60.0969 81.775 60.0969C78.5449 60.0969 76.1223 58.6195 75.4494 55.9335C75.1802 54.9934 75.0456 51.7701 75.1802 45.995L75.3148 37.3996L76.5261 36.9967C77.199 36.7281 77.7374 36.3252 77.872 36.0566C78.0065 35.5194 77.4682 35.5194 73.296 35.5194C68.7201 35.3851 68.4509 35.3851 68.4509 36.0566ZM99.8095 36.0566C99.8095 36.5938 100.079 36.7281 100.752 36.7281C102.501 36.7281 103.443 37.3996 103.847 38.8769C104.116 39.6828 104.116 43.5776 104.116 49.084C103.982 59.0225 103.847 59.694 101.828 60.0969C101.155 60.2312 100.886 60.4998 100.886 60.9027C100.886 61.4399 101.155 61.5742 105.597 61.5742C109.903 61.5742 110.307 61.5742 110.307 61.037C110.307 60.6341 109.903 60.3655 108.827 60.0969C107.481 59.694 107.346 59.5597 106.943 58.4852C106.404 56.8736 106.404 41.6973 106.808 41.8316C106.943 41.8316 108.288 43.1746 109.769 44.9206C111.249 46.6665 115.152 51.0985 118.652 54.7247C124.035 60.4998 124.977 61.5742 125.785 61.5742H126.727L126.861 49.7555C126.996 41.2944 127.13 37.8025 127.4 37.5339C127.669 37.2653 128.342 36.9967 128.88 36.8624C129.553 36.7281 129.957 36.4595 129.957 36.1909C129.957 35.788 129.149 35.6537 125.381 35.6537C120.939 35.5194 120.805 35.5194 120.805 36.1909C120.805 36.7281 121.074 36.8624 121.612 36.8624C122.016 36.8624 122.824 37.2653 123.362 37.6682L124.304 38.474L124.439 46.5322C124.439 51.0986 124.439 54.5904 124.304 54.5904C124.17 54.5904 123.093 53.516 122.016 52.3073C120.939 51.0986 117.844 47.6067 115.152 44.652C112.461 41.6973 109.5 38.474 108.558 37.3996L106.943 35.5194H103.443C99.9441 35.3851 99.8095 35.3851 99.8095 36.0566ZM135.071 36.0566C135.071 36.5938 135.34 36.7281 136.013 36.7281C136.551 36.7281 137.224 36.9967 137.628 37.2653C138.301 37.6682 138.301 38.3397 138.436 47.6067C138.57 59.1568 138.436 59.8283 136.417 60.0969C135.475 60.2312 135.071 60.4998 135.071 60.9027C135.071 61.4399 135.475 61.5742 140.185 61.5742C145.03 61.5742 145.3 61.5742 145.3 60.9027C145.3 60.3655 145.03 60.2312 144.492 60.2312C144.088 60.2312 143.415 59.9626 143.012 59.694C142.339 59.2911 142.339 58.6195 142.204 48.6811C142.07 38.474 142.07 38.0711 142.742 37.3996C143.146 36.9967 143.819 36.7281 144.223 36.7281C144.896 36.7281 145.03 36.5938 145.03 36.0566C145.03 35.3851 144.761 35.3851 139.916 35.3851C135.34 35.3851 135.071 35.3851 135.071 36.0566ZM170.467 36.0566C170.602 36.4595 170.871 36.7281 171.409 36.7281C171.813 36.7281 172.486 37.131 172.89 37.5339C173.293 37.9368 175.581 43.4433 178.139 50.0241L182.58 61.7085L183.791 61.8428L185.002 61.9771L188.098 53.6503C189.848 49.084 191.463 44.9206 191.597 44.5177C192.001 43.7119 192.001 43.8462 193.078 46.5322C193.616 48.1439 195.231 52.173 196.577 55.6649L198.999 61.9771H200.076C200.614 61.9771 201.153 61.8428 201.287 61.5742C201.422 61.3056 202.902 57.4108 204.787 52.8445C206.536 48.2782 208.555 43.1746 209.228 41.563C210.708 37.8025 210.978 37.3996 212.054 36.9967C212.593 36.8624 212.996 36.4595 212.996 36.1909C212.996 35.788 212.323 35.6537 208.959 35.6537C205.19 35.6537 204.921 35.6537 204.921 36.3252C204.921 36.8624 205.19 36.9967 205.729 36.9967C207.075 36.9967 207.613 37.3996 207.613 38.2054C207.613 38.8769 201.153 56.2021 200.749 56.605C200.48 56.8736 194.693 40.7572 194.558 39.1455C194.289 37.6682 194.962 36.9967 196.442 36.9967C196.981 36.9967 197.25 36.8624 197.25 36.3252C197.25 35.6537 196.981 35.6537 192.001 35.6537C187.021 35.6537 186.752 35.6537 186.752 36.3252C186.752 36.7281 187.021 36.9967 187.29 36.9967C188.367 36.9967 189.713 38.0711 190.117 39.0112C190.655 40.4886 190.251 41.9659 187.156 50.0241L184.599 56.8736L184.06 55.5306C183.791 54.859 182.176 50.5613 180.561 46.1293C177.331 37.3996 177.331 36.9967 179.484 36.9967C180.292 36.9967 180.427 36.8624 180.427 36.3252C180.427 35.6537 180.157 35.6537 175.447 35.6537C170.333 35.3851 170.198 35.3851 170.467 36.0566ZM238.568 36.3252C238.568 36.3252 238.568 36.7281 238.568 36.8624C238.568 36.9967 238.971 36.9967 238.971 36.9967C239.241 36.9967 239.375 37.131 239.644 37.131C240.721 37.3996 241.394 37.5339 241.663 38.2054C241.798 38.6083 241.932 40.22 241.932 48.6811C241.932 57.5451 241.932 58.6195 241.663 59.1568C241.394 59.8283 240.856 60.2312 239.51 60.6341C239.51 60.6341 238.971 60.7684 238.837 60.9027C238.702 61.037 238.702 61.3056 238.702 61.3056C238.702 61.3056 238.702 61.5742 238.837 61.7085C238.971 61.8428 239.375 61.8428 239.375 61.8428H242.74H248.393C248.393 61.8428 248.662 61.8428 248.796 61.7085C248.931 61.5742 248.931 61.3056 248.931 61.3056C248.931 61.3056 248.931 61.037 248.796 60.9027C248.662 60.7684 248.123 60.6341 248.123 60.6341C246.912 60.3655 246.239 59.9626 245.97 59.2911C245.701 58.7538 245.701 57.5451 245.701 54.7247V50.6956C245.835 50.8299 245.97 50.8299 246.105 50.9643C246.777 51.3672 247.585 52.0387 250.546 52.0387C254.18 52.173 256.333 50.5613 257.679 48.6811C259.025 46.8008 259.429 43.8462 258.486 40.6229C257.544 37.5339 254.718 35.5194 250.815 35.3851C248.796 35.2507 245.701 35.3851 244.086 35.5194H243.682C242.202 35.5194 240.317 35.788 239.375 35.788C239.106 35.788 239.106 35.788 238.971 35.9223C238.568 36.1909 238.568 36.3252 238.568 36.3252ZM253.507 48.6811C254.987 47.3381 254.987 45.1892 254.987 43.7119C254.853 41.563 253.911 37.3996 249.065 37.3996C247.854 37.3996 245.566 37.5339 245.432 39.1455C245.297 39.4142 245.297 41.4287 245.297 44.3834V49.2183L245.835 49.4869C246.105 49.6212 246.508 49.7555 247.047 49.8898C249.065 50.427 252.026 50.0241 253.507 48.6811ZM222.552 35.788C222.956 35.6537 223.225 35.5194 223.225 35.5194C223.225 35.5194 223.763 35.2507 223.898 35.5194C223.898 35.6537 224.167 36.0566 224.705 37.3996C224.84 37.6682 224.975 37.9368 224.975 38.2054C225.647 40.0857 226.724 42.7717 227.263 44.2491C227.801 45.7264 228.878 48.4125 229.685 50.5613C230.493 52.5759 231.435 55.1277 231.973 56.3364C232.377 57.5451 233.05 58.6195 233.184 58.8881C233.319 59.0224 233.319 59.1568 233.453 59.2911C233.857 59.8283 234.261 60.6341 235.203 60.7684C235.203 60.7684 235.876 60.9027 236.011 61.037C236.145 61.1713 236.145 61.3056 236.145 61.3056V61.7085C236.145 61.7085 236.145 61.8428 236.011 61.8428C236.011 61.9771 235.741 61.8428 235.741 61.8428H230.089H226.051C226.051 61.8428 225.917 61.8428 225.782 61.8428C225.647 61.8428 225.647 61.5742 225.647 61.5742V61.3056C225.647 61.3056 225.647 61.037 225.782 60.9027C225.917 60.7684 226.59 60.6341 226.59 60.6341C227.801 60.4998 228.339 59.5597 228.474 59.0225V58.8881C228.743 58.3509 228.608 57.948 227.397 55.1277C226.59 53.2474 226.32 52.7102 226.186 52.5759C226.051 52.5759 223.898 52.5759 221.61 52.5759H217.169L216.899 53.2474C216.092 55.3963 215.419 57.4108 215.419 57.948C215.15 59.0225 215.554 60.3655 217.169 60.6341C217.169 60.6341 217.841 60.7684 217.976 60.9027C218.111 61.037 218.245 61.3056 218.245 61.3056V61.5742C218.245 61.5742 218.245 61.7085 218.111 61.8428C217.976 61.9771 217.707 61.8428 217.707 61.8428H213.535H209.497C209.497 61.8428 209.363 61.8428 209.228 61.7085C209.093 61.5742 209.093 61.4399 209.093 61.4399V61.1713C209.093 61.1713 209.093 61.037 209.363 60.7684C209.632 60.4998 210.17 60.4998 210.17 60.4998C211.247 60.3655 211.92 59.1568 212.323 58.4852C212.323 58.4852 212.323 58.3509 212.458 58.3509C212.593 58.0823 213.266 56.605 213.938 54.9934C214.611 53.3817 215.284 51.5015 215.554 50.9643C216.361 48.9497 217.169 47.0695 218.38 44.1148C219.053 42.5031 219.995 40.0857 220.533 38.7426L221.475 36.3252L222.552 35.788ZM222.283 41.563C222.552 42.1002 222.821 42.906 222.956 43.309C223.09 43.7119 223.629 44.9206 224.032 45.995C224.436 47.0694 224.975 48.2782 225.244 48.8154C225.513 49.3526 225.647 49.7555 225.647 49.7555C225.647 49.7555 224.032 49.7555 222.014 49.7555C219.726 49.7555 218.38 49.7555 218.38 49.6212C218.38 49.6212 218.514 49.3526 218.514 49.084C218.649 48.6811 219.457 46.5322 221.072 41.9659C221.341 41.2944 221.61 40.6229 221.61 40.4886C221.744 40.4886 221.879 40.6229 222.283 41.563Z" fill="#1D1D1B"/>
</svg>